SplineFontDB: 3.0
FontName: Judson-Regular
FullName: Judson Regular
FamilyName: Judson
Weight: Regular
Copyright: Copyright (c) 2010, 2011 by Daniel Johnson. Released under the terms of the SIL Open Font License v1.1.
Version: 20110429
ItalicAngle: 0
UnderlinePosition: -100
UnderlineWidth: 50
Ascent: 800
Descent: 200
LayerCount: 2
Layer: 0 1 "Back"  1
Layer: 1 1 "Fore"  0
XUID: [1021 288 713564382 3351364]
FSType: 0
OS2Version: 2
OS2_WeightWidthSlopeOnly: 0
OS2_UseTypoMetrics: 1
CreationTime: 1278450264
ModificationTime: 1304074979
PfmFamily: 17
TTFWeight: 400
TTFWidth: 5
LineGap: 0
VLineGap: 0
Panose: 2 0 6 3 0 0 0 0 0 0
OS2TypoAscent: 902
OS2TypoAOffset: 0
OS2TypoDescent: -248
OS2TypoDOffset: 0
OS2TypoLinegap: 0
OS2WinAscent: 902
OS2WinAOffset: 0
OS2WinDescent: 248
OS2WinDOffset: 0
HheadAscent: 902
HheadAOffset: 0
HheadDescent: -248
HheadDOffset: 0
OS2SubXSize: 650
OS2SubYSize: 699
OS2SubXOff: 0
OS2SubYOff: 140
OS2SupXSize: 650
OS2SupYSize: 699
OS2SupXOff: 0
OS2SupYOff: 479
OS2StrikeYSize: 49
OS2StrikeYPos: 258
OS2Vendor: 'PfEd'
OS2CodePages: 00000093.00000000
OS2UnicodeRanges: a00000ff.5000000b.00000000.00000000
Lookup: 4 0 0 "'dlig' Discretionary Ligatures in Latin lookup 0"  {"'dlig' Discretionary Ligatures in Latin lookup 0 subtable"  } ['dlig' ('latn' <'dflt' > ) ]
Lookup: 4 0 0 "'dlig' Discretionary Ligatures in '    ' lookup 1"  {"'dlig' Discretionary Ligatures in '    ' lookup 1 subtable"  } ['dlig' ('    ' <'dflt' > ) ]
Lookup: 260 0 0 "'abvm' Above Base Mark lookup 0"  {"'abvm' Above Base Mark lookup 0 subtable"  } ['abvm' ('DFLT' <'dflt' > 'grek' <'dflt' > 'latn' <'dflt' > ) ]
Lookup: 260 0 0 "'mark' Mark Positioning lookup 1"  {"'mark' Mark Positioning lookup 1 subtable"  } ['mark' ('DFLT' <'dflt' > 'grek' <'dflt' > 'latn' <'dflt' > ) ]
Lookup: 260 0 0 "'blwm' Below Base Mark lookup 2"  {"'blwm' Below Base Mark lookup 2 subtable"  } ['blwm' ('DFLT' <'dflt' > 'grek' <'dflt' > 'latn' <'dflt' > ) ]

StartChar: .notdef
Encoding: 65536 -1 0
Width: 500
Flags: W
LayerCount: 2
Fore
SplineSet
50 0 m 1,0,-1
 50 533 l 1,1,-1
 450 533 l 1,2,-1
 450 0 l 1,3,-1
 50 0 l 1,0,-1
100 50 m 1,4,-1
 400 50 l 1,5,-1
 400 483 l 1,6,-1
 100 483 l 1,7,-1
 100 50 l 1,4,-1
EndSplineSet
EndChar

StartChar: exclam
Encoding: 33 33 4
Width: 235
GlyphClass: 2
Flags: W
LayerCount: 2
Fore
SplineSet
58 51 m 128,-1,1
 58 75 58 75 74.5 94.5 c 128,-1,2
 91 114 91 114 117 114 c 0,3,4
 140 114 140 114 159 96 c 128,-1,5
 178 78 178 78 178 54 c 128,-1,6
 178 30 178 30 161 10 c 128,-1,7
 144 -10 144 -10 118 -10 c 0,8,9
 95 -10 95 -10 76.5 8.5 c 128,-1,0
 58 27 58 27 58 51 c 128,-1,1
117 186 m 128,-1,11
 102 186 102 186 94 254 c 0,12,13
 91 273 91 273 79.5 411 c 128,-1,14
 68 549 68 549 68 585 c 0,15,16
 68 607 68 607 81.5 618.5 c 128,-1,17
 95 630 95 630 117 630 c 128,-1,18
 139 630 139 630 152.5 618.5 c 128,-1,19
 166 607 166 607 166 585 c 0,20,21
 166 549 166 549 154.5 410 c 128,-1,22
 143 271 143 271 140 254 c 0,23,10
 132 186 132 186 117 186 c 128,-1,11
EndSplineSet
EndChar

StartChar: quotedbl
Encoding: 34 34 5
Width: 332
GlyphClass: 2
Flags: W
LayerCount: 2
Fore
SplineSet
86 408 m 128,-1,1
 71 408 71 408 55 502 c 1,2,3
 41 600 41 600 41 620 c 0,4,5
 41 665 41 665 86 665 c 128,-1,6
 131 665 131 665 131 620 c 0,7,8
 131 593 131 593 117 502 c 1,9,0
 101 408 101 408 86 408 c 128,-1,1
246 408 m 128,-1,11
 231 408 231 408 215 502 c 1,12,13
 201 600 201 600 201 620 c 0,14,15
 201 665 201 665 246 665 c 128,-1,16
 291 665 291 665 291 620 c 0,17,18
 291 593 291 593 277 502 c 1,19,10
 261 408 261 408 246 408 c 128,-1,11
EndSplineSet
EndChar

StartChar: numbersign
Encoding: 35 35 6
Width: 486
GlyphClass: 2
Flags: W
LayerCount: 2
Fore
SplineSet
438 230 m 1,0,-1
 438 196 l 1,1,-1
 323 196 l 1,2,-1
 296 0 l 1,3,-1
 261 0 l 1,4,-1
 288 196 l 1,5,-1
 163 196 l 1,6,-1
 136 0 l 1,7,-1
 101 0 l 1,8,-1
 128 196 l 1,9,-1
 33 196 l 1,10,-1
 33 230 l 1,11,-1
 133 230 l 1,12,-1
 151 356 l 1,13,-1
 48 356 l 1,14,-1
 48 390 l 1,15,-1
 156 390 l 1,16,-1
 183 585 l 1,17,-1
 218 585 l 1,18,-1
 191 390 l 1,19,-1
 316 390 l 1,20,-1
 343 585 l 1,21,-1
 378 585 l 1,22,-1
 351 390 l 1,23,-1
 453 390 l 1,24,-1
 453 356 l 1,25,-1
 346 356 l 1,26,-1
 328 230 l 1,27,-1
 438 230 l 1,0,-1
168 230 m 1,28,-1
 293 230 l 1,29,-1
 311 356 l 1,30,-1
 186 356 l 1,31,-1
 168 230 l 1,28,-1
EndSplineSet
EndChar

StartChar: dollar
Encoding: 36 36 7
Width: 455
GlyphClass: 2
Flags: W
LayerCount: 2
Fore
SplineSet
240 353 m 1,0,1
 278 332 278 332 293.5 322.5 c 128,-1,2
 309 313 309 313 340 290.5 c 128,-1,3
 371 268 371 268 385 250.5 c 128,-1,4
 399 233 399 233 411.5 205.5 c 128,-1,5
 424 178 424 178 424 148 c 0,6,7
 424 74 424 74 369.5 32.5 c 128,-1,8
 315 -9 315 -9 240 -10 c 1,9,-1
 240 -36 l 1,10,-1
 210 -36 l 1,11,-1
 210 -9 l 1,12,13
 168 -5 168 -5 127.5 8.5 c 128,-1,14
 87 22 87 22 68 34 c 2,15,-1
 49 46 l 1,16,-1
 49 139 l 1,17,-1
 71 139 l 1,18,19
 90 34 90 34 210 25 c 1,20,-1
 210 256 l 1,21,22
 171 279 171 279 153.5 290.5 c 128,-1,23
 136 302 136 302 106 327 c 128,-1,24
 76 352 76 352 63 379.5 c 128,-1,25
 50 407 50 407 50 440 c 0,26,27
 50 499 50 499 97.5 546 c 128,-1,28
 145 593 145 593 210 595 c 1,29,-1
 210 620 l 1,30,-1
 240 620 l 1,31,-1
 240 594 l 1,32,33
 274 590 274 590 307 576.5 c 128,-1,34
 340 563 340 563 356 552 c 1,35,-1
 371 540 l 1,36,-1
 371 458 l 1,37,-1
 349 458 l 1,38,39
 343 498 343 498 316 526 c 128,-1,40
 289 554 289 554 240 560 c 1,41,-1
 240 353 l 1,0,1
210 371 m 1,42,-1
 210 561 l 1,43,44
 168 559 168 559 146.5 530.5 c 128,-1,45
 125 502 125 502 125 472 c 0,46,47
 125 441 125 441 146.5 418.5 c 128,-1,48
 168 396 168 396 210 371 c 1,42,-1
240 239 m 1,49,-1
 240 24 l 1,50,51
 342 27 342 27 342 120 c 0,52,53
 342 158 342 158 316 184 c 128,-1,54
 290 210 290 210 240 239 c 1,49,-1
EndSplineSet
EndChar

StartChar: percent
Encoding: 37 37 8
Width: 544
GlyphClass: 2
Flags: W
LayerCount: 2
Fore
SplineSet
461 565 m 1,0,-1
 124 20 l 1,1,-1
 84 20 l 1,2,-1
 421 565 l 1,3,-1
 461 565 l 1,0,-1
92 466 m 128,-1,5
 92 432 92 432 106.5 405 c 128,-1,6
 121 378 121 378 138 378 c 128,-1,7
 155 378 155 378 169.5 405.5 c 128,-1,8
 184 433 184 433 184 466 c 0,9,10
 184 500 184 500 169.5 527 c 128,-1,11
 155 554 155 554 138 554 c 128,-1,12
 121 554 121 554 106.5 527 c 128,-1,4
 92 500 92 500 92 466 c 128,-1,5
31 466 m 128,-1,14
 31 517 31 517 63.5 552.5 c 128,-1,15
 96 588 96 588 138 588 c 128,-1,16
 180 588 180 588 212.5 552.5 c 128,-1,17
 245 517 245 517 245 466 c 128,-1,18
 245 415 245 415 212.5 379.5 c 128,-1,19
 180 344 180 344 138 344 c 128,-1,20
 96 344 96 344 63.5 379.5 c 128,-1,13
 31 415 31 415 31 466 c 128,-1,14
360 119 m 128,-1,22
 360 85 360 85 374.5 58 c 128,-1,23
 389 31 389 31 406 31 c 128,-1,24
 423 31 423 31 437.5 58 c 128,-1,25
 452 85 452 85 452 119 c 128,-1,26
 452 153 452 153 437.5 180 c 128,-1,27
 423 207 423 207 406 207 c 128,-1,28
 389 207 389 207 374.5 180 c 128,-1,21
 360 153 360 153 360 119 c 128,-1,22
299 119 m 128,-1,30
 299 170 299 170 331.5 205.5 c 128,-1,31
 364 241 364 241 406 241 c 128,-1,32
 448 241 448 241 480.5 205.5 c 128,-1,33
 513 170 513 170 513 119 c 128,-1,34
 513 68 513 68 480.5 32.5 c 128,-1,35
 448 -3 448 -3 406 -3 c 128,-1,36
 364 -3 364 -3 331.5 32.5 c 128,-1,29
 299 68 299 68 299 119 c 128,-1,30
EndSplineSet
EndChar

StartChar: ampersand
Encoding: 38 38 9
Width: 605
GlyphClass: 2
Flags: W
LayerCount: 2
Fore
SplineSet
285 560 m 0,0,1
 253 560 253 560 243 537.5 c 128,-1,2
 233 515 233 515 233 466 c 0,3,4
 233 426 233 426 257 357 c 1,5,6
 333 411 333 411 333 469 c 0,7,8
 333 506 333 506 320.5 533 c 128,-1,9
 308 560 308 560 285 560 c 0,0,1
566 345 m 1,10,-1
 566 324 l 1,11,12
 509 324 509 324 503 305 c 0,13,14
 457 158 457 158 407 90 c 1,15,16
 450 44 450 44 478 44 c 0,17,18
 516 44 516 44 530.5 51 c 128,-1,19
 545 58 545 58 561 81 c 1,20,-1
 573 71 l 1,21,22
 559 33 559 33 536 11.5 c 128,-1,23
 513 -10 513 -10 470 -10 c 0,24,25
 413 -10 413 -10 357 36 c 1,26,27
 300 -10 300 -10 225 -10 c 0,28,29
 20 -10 20 -10 20 127 c 0,30,31
 20 158 20 158 33 184.5 c 128,-1,32
 46 211 46 211 74.5 235 c 128,-1,33
 103 259 103 259 124.5 273.5 c 128,-1,34
 146 288 146 288 186 312 c 1,35,36
 151 409 151 409 151 474 c 0,37,38
 151 595 151 595 265 595 c 0,39,40
 314 595 314 595 344.5 560.5 c 128,-1,41
 375 526 375 526 375 481 c 0,42,43
 375 432 375 432 347.5 395 c 128,-1,44
 320 358 320 358 271 320 c 1,45,46
 318 204 318 204 386 116 c 1,47,48
 421 172 421 172 463 308 c 1,49,50
 453 324 453 324 402 324 c 1,51,-1
 402 345 l 1,52,-1
 566 345 l 1,10,-1
334 57 m 1,53,54
 259 132 259 132 203 269 c 1,55,56
 120 206 120 206 120 150 c 0,57,58
 120 32 120 32 262 32 c 0,59,60
 301 32 301 32 334 57 c 1,53,54
EndSplineSet
EndChar

StartChar: quotesingle
Encoding: 39 39 10
Width: 172
GlyphClass: 2
Flags: W
LayerCount: 2
Fore
SplineSet
86 408 m 128,-1,1
 71 408 71 408 55 502 c 1,2,3
 41 600 41 600 41 620 c 0,4,5
 41 665 41 665 86 665 c 128,-1,6
 131 665 131 665 131 620 c 0,7,8
 131 593 131 593 117 502 c 1,9,0
 101 408 101 408 86 408 c 128,-1,1
EndSplineSet
EndChar

StartChar: parenleft
Encoding: 40 40 11
Width: 243
GlyphClass: 2
Flags: W
LayerCount: 2
Fore
SplineSet
40 315 m 128,-1,1
 40 500 40 500 176 669 c 0,2,3
 185 680 185 680 192 680 c 0,4,5
 201 680 201 680 201 669 c 0,6,7
 201 666 201 666 199 660 c 0,8,9
 198 658 198 658 189 638 c 128,-1,10
 180 618 180 618 177.5 611.5 c 128,-1,11
 175 605 175 605 167 584.5 c 128,-1,12
 159 564 159 564 155.5 552 c 128,-1,13
 152 540 152 540 146 517.5 c 128,-1,14
 140 495 140 495 137 475 c 128,-1,15
 134 455 134 455 130.5 429 c 128,-1,16
 127 403 127 403 125.5 374.5 c 128,-1,17
 124 346 124 346 124 315 c 0,18,19
 124 275 124 275 126 239.5 c 128,-1,20
 128 204 128 204 134 172.5 c 128,-1,21
 140 141 140 141 144 120 c 128,-1,22
 148 99 148 99 158 71.5 c 128,-1,23
 168 44 168 44 171.5 34.5 c 128,-1,24
 175 25 175 25 186.5 -1.5 c 128,-1,25
 198 -28 198 -28 199 -30 c 0,26,27
 201 -36 201 -36 201 -39 c 0,28,29
 201 -50 201 -50 192 -50 c 0,30,31
 185 -50 185 -50 176 -39 c 0,32,0
 40 130 40 130 40 315 c 128,-1,1
EndSplineSet
EndChar

StartChar: parenright
Encoding: 41 41 12
Width: 243
GlyphClass: 2
Flags: W
LayerCount: 2
Fore
SplineSet
203 315 m 128,-1,1
 203 130 203 130 67 -39 c 0,2,3
 58 -50 58 -50 51 -50 c 0,4,5
 42 -50 42 -50 42 -39 c 0,6,7
 42 -36 42 -36 44 -30 c 0,8,9
 45 -28 45 -28 54 -8 c 128,-1,10
 63 12 63 12 65.5 18.5 c 128,-1,11
 68 25 68 25 76 45.5 c 128,-1,12
 84 66 84 66 87.5 78 c 128,-1,13
 91 90 91 90 97 112.5 c 128,-1,14
 103 135 103 135 106 155 c 128,-1,15
 109 175 109 175 112.5 201 c 128,-1,16
 116 227 116 227 117.5 255.5 c 128,-1,17
 119 284 119 284 119 315 c 0,18,19
 119 355 119 355 117 390.5 c 128,-1,20
 115 426 115 426 109 457.5 c 128,-1,21
 103 489 103 489 99 510 c 128,-1,22
 95 531 95 531 85 558.5 c 128,-1,23
 75 586 75 586 71.5 595.5 c 128,-1,24
 68 605 68 605 56.5 631.5 c 128,-1,25
 45 658 45 658 44 660 c 0,26,27
 42 666 42 666 42 669 c 0,28,29
 42 680 42 680 51 680 c 0,30,31
 58 680 58 680 67 669 c 0,32,0
 203 500 203 500 203 315 c 128,-1,1
EndSplineSet
EndChar

StartChar: asterisk
Encoding: 42 42 13
Width: 360
GlyphClass: 2
Flags: W
LayerCount: 2
Fore
SplineSet
128 358 m 0,0,1
 110 358 110 358 93.5 373 c 128,-1,2
 77 388 77 388 77 404 c 0,3,4
 77 414 77 414 83 423 c 0,5,6
 89 431 89 431 120 446 c 128,-1,7
 151 461 151 461 162 462 c 1,8,9
 153 470 153 470 153 481 c 0,10,11
 153 482 153 482 153.5 484 c 128,-1,12
 154 486 154 486 154 487 c 1,13,14
 146 482 146 482 118.5 476 c 128,-1,15
 91 470 91 470 75 470 c 0,16,17
 60 470 60 470 52 480.5 c 128,-1,18
 44 491 44 491 44 505 c 0,19,20
 44 525 44 525 56 541 c 128,-1,21
 68 557 68 557 84 557 c 0,22,23
 86 557 86 557 94 555 c 0,24,25
 104 552 104 552 127.5 527.5 c 128,-1,26
 151 503 151 503 155 492 c 1,27,28
 162 505 162 505 177 507 c 1,29,30
 169 513 169 513 152 544 c 128,-1,31
 135 575 135 575 135 585 c 0,32,33
 135 601 135 601 147.5 610.5 c 128,-1,34
 160 620 160 620 179 620 c 128,-1,35
 198 620 198 620 210.5 610.5 c 128,-1,36
 223 601 223 601 223 585 c 0,37,38
 223 575 223 575 206 544 c 128,-1,39
 189 513 189 513 181 507 c 1,40,41
 197 505 197 505 203 491 c 1,42,43
 205 500 205 500 230 526 c 128,-1,44
 255 552 255 552 265 555 c 0,45,46
 273 557 273 557 276 557 c 0,47,48
 291 557 291 557 303 541.5 c 128,-1,49
 315 526 315 526 315 506 c 0,50,51
 315 492 315 492 307 481 c 128,-1,52
 299 470 299 470 284 470 c 0,53,54
 267 470 267 470 239 476 c 128,-1,55
 211 482 211 482 204 487 c 1,56,57
 205 485 205 485 205 481 c 0,58,59
 205 471 205 471 196 462 c 1,60,61
 207 462 207 462 239 446.5 c 128,-1,62
 271 431 271 431 277 423 c 0,63,64
 283 414 283 414 283 405 c 0,65,66
 283 388 283 388 266 373 c 128,-1,67
 249 358 249 358 230 358 c 0,68,69
 214 358 214 358 205 371 c 0,70,71
 200 377 200 377 196 403 c 128,-1,72
 192 429 192 429 192 448 c 0,73,74
 192 457 192 457 193 459 c 1,75,76
 188 455 188 455 179 455 c 0,77,78
 172 455 172 455 166 458 c 1,79,80
 167 455 167 455 167 446 c 0,81,82
 167 388 167 388 154 371 c 0,83,84
 144 358 144 358 128 358 c 0,0,1
EndSplineSet
EndChar

StartChar: plus
Encoding: 43 43 14
Width: 404
GlyphClass: 2
Flags: W
LayerCount: 2
Fore
SplineSet
224 296 m 1,0,-1
 224 155 l 1,1,-1
 180 155 l 1,2,-1
 180 296 l 1,3,-1
 39 296 l 1,4,-1
 39 340 l 1,5,-1
 180 340 l 1,6,-1
 180 481 l 1,7,-1
 224 481 l 1,8,-1
 224 340 l 1,9,-1
 365 340 l 1,10,-1
 365 296 l 1,11,-1
 224 296 l 1,0,-1
EndSplineSet
EndChar

StartChar: comma
Encoding: 44 44 15
Width: 230
GlyphClass: 2
Flags: W
LayerCount: 2
Fore
SplineSet
101 -6 m 0,0,1
 79 -6 79 -6 64.5 7 c 128,-1,2
 50 20 50 20 50 43 c 0,3,4
 50 70 50 70 69 85 c 128,-1,5
 88 100 88 100 107 100 c 0,6,7
 143 100 143 100 165.5 68.5 c 128,-1,8
 188 37 188 37 188 -6 c 0,9,10
 188 -90 188 -90 64 -129 c 1,11,-1
 64 -101 l 1,12,13
 89 -98 89 -98 115.5 -73.5 c 128,-1,14
 142 -49 142 -49 142 -18 c 0,15,16
 142 0 142 0 140 3.5 c 128,-1,17
 138 7 138 7 132 7 c 0,18,19
 129 7 129 7 120.5 0.5 c 128,-1,20
 112 -6 112 -6 101 -6 c 0,0,1
EndSplineSet
EndChar

StartChar: hyphen
Encoding: 45 45 16
Width: 388
GlyphClass: 2
Flags: W
LayerCount: 2
Fore
SplineSet
62 340 m 1,0,-1
 326 340 l 1,1,-1
 326 296 l 1,2,-1
 62 296 l 1,3,-1
 62 340 l 1,0,-1
EndSplineSet
EndChar

StartChar: period
Encoding: 46 46 17
Width: 220
GlyphClass: 2
Flags: W
LayerCount: 2
Fore
SplineSet
50 51 m 128,-1,1
 50 75 50 75 66.5 94.5 c 128,-1,2
 83 114 83 114 109 114 c 0,3,4
 132 114 132 114 151 96 c 128,-1,5
 170 78 170 78 170 54 c 128,-1,6
 170 30 170 30 153 10 c 128,-1,7
 136 -10 136 -10 110 -10 c 0,8,9
 87 -10 87 -10 68.5 8.5 c 128,-1,0
 50 27 50 27 50 51 c 128,-1,1
EndSplineSet
EndChar

StartChar: slash
Encoding: 47 47 18
Width: 458
GlyphClass: 2
Flags: W
LayerCount: 2
Fore
SplineSet
20 -10 m 1,0,-1
 409 612 l 1,1,-1
 438 594 l 1,2,-1
 49 -28 l 1,3,-1
 20 -10 l 1,0,-1
EndSplineSet
EndChar

StartChar: zero
Encoding: 48 48 19
Width: 490
GlyphClass: 2
Flags: W
LayerCount: 2
Fore
SplineSet
124 292 m 128,-1,1
 124 185 124 185 158.5 103 c 128,-1,2
 193 21 193 21 245 21 c 128,-1,3
 297 21 297 21 331.5 103 c 128,-1,4
 366 185 366 185 366 292 c 128,-1,5
 366 399 366 399 331.5 481.5 c 128,-1,6
 297 564 297 564 245 564 c 128,-1,7
 193 564 193 564 158.5 481.5 c 128,-1,0
 124 399 124 399 124 292 c 128,-1,1
34 292 m 128,-1,9
 34 419 34 419 90.5 507 c 128,-1,10
 147 595 147 595 245 595 c 128,-1,11
 343 595 343 595 399.5 507 c 128,-1,12
 456 419 456 419 456 292 c 128,-1,13
 456 165 456 165 399.5 77.5 c 128,-1,14
 343 -10 343 -10 245 -10 c 128,-1,15
 147 -10 147 -10 90.5 77.5 c 128,-1,8
 34 165 34 165 34 292 c 128,-1,9
EndSplineSet
EndChar

StartChar: one
Encoding: 49 49 20
Width: 490
GlyphClass: 2
Flags: W
LayerCount: 2
Fore
SplineSet
322 585 m 1,0,-1
 322 61 l 2,1,2
 322 40 322 40 362 30.5 c 128,-1,3
 402 21 402 21 445 21 c 1,4,-1
 445 0 l 1,5,-1
 107 0 l 1,6,-1
 107 21 l 1,7,8
 150 21 150 21 190 30.5 c 128,-1,9
 230 40 230 40 230 61 c 2,10,-1
 230 444 l 1,11,12
 188 419 188 419 124 371 c 1,13,-1
 117 388 l 1,14,-1
 295 585 l 1,15,-1
 322 585 l 1,0,-1
EndSplineSet
EndChar

StartChar: two
Encoding: 50 50 21
Width: 490
GlyphClass: 2
Flags: W
LayerCount: 2
Fore
SplineSet
40 0 m 1,0,1
 40 11 40 11 69.5 42.5 c 128,-1,2
 99 74 99 74 141 116 c 128,-1,3
 183 158 183 158 224.5 206 c 128,-1,4
 266 254 266 254 295.5 310 c 128,-1,5
 325 366 325 366 325 414 c 0,6,7
 325 460 325 460 299.5 497.5 c 128,-1,8
 274 535 274 535 226 535 c 0,9,10
 185 535 185 535 154 525 c 128,-1,11
 123 515 123 515 107.5 501 c 128,-1,12
 92 487 92 487 82 473 c 128,-1,13
 72 459 72 459 66.5 449 c 128,-1,14
 61 439 61 439 58 439 c 0,15,16
 50 439 50 439 50 449 c 0,17,18
 50 460 50 460 60 482 c 128,-1,19
 70 504 70 504 90 530.5 c 128,-1,20
 110 557 110 557 149 576 c 128,-1,21
 188 595 188 595 237 595 c 0,22,23
 330 595 330 595 376.5 546.5 c 128,-1,24
 423 498 423 498 423 427 c 0,25,26
 423 386 423 386 382 325.5 c 128,-1,27
 341 265 341 265 291.5 215 c 128,-1,28
 242 165 242 165 201 122 c 128,-1,29
 160 79 160 79 160 70 c 1,30,-1
 371 70 l 1,31,32
 412 88 412 88 430 133 c 1,33,-1
 450 133 l 1,34,-1
 412 0 l 1,35,-1
 40 0 l 1,0,1
EndSplineSet
EndChar

StartChar: three
Encoding: 51 51 22
Width: 490
GlyphClass: 2
Flags: W
LayerCount: 2
Fore
SplineSet
212 291 m 0,0,1
 205 291 205 291 199 295 c 128,-1,2
 193 299 193 299 193 304 c 0,3,4
 193 308 193 308 200 311 c 0,5,6
 252 327 252 327 290.5 359.5 c 128,-1,7
 329 392 329 392 329 446 c 0,8,9
 329 487 329 487 301 511 c 128,-1,10
 273 535 273 535 222 535 c 0,11,12
 181 535 181 535 152 523 c 128,-1,13
 123 511 123 511 112.5 496 c 128,-1,14
 102 481 102 481 94.5 469 c 128,-1,15
 87 457 87 457 83 457 c 0,16,17
 75 457 75 457 75 467 c 0,18,19
 75 478 75 478 84 497 c 128,-1,20
 93 516 93 516 110.5 539 c 128,-1,21
 128 562 128 562 160.5 578.5 c 128,-1,22
 193 595 193 595 233 595 c 0,23,24
 329 595 329 595 372 561 c 128,-1,25
 415 527 415 527 415 459 c 0,26,27
 415 387 415 387 318 331 c 1,28,29
 367 319 367 319 404.5 270.5 c 128,-1,30
 442 222 442 222 442 172 c 0,31,32
 442 133 442 133 433.5 102.5 c 128,-1,33
 425 72 425 72 403.5 45.5 c 128,-1,34
 382 19 382 19 339.5 4.5 c 128,-1,35
 297 -10 297 -10 236 -10 c 0,36,37
 195 -10 195 -10 158 0 c 128,-1,38
 121 10 121 10 98 24 c 128,-1,39
 75 38 75 38 61.5 51.5 c 128,-1,40
 48 65 48 65 48 72 c 0,41,42
 48 102 48 102 55.5 114 c 128,-1,43
 63 126 63 126 84 126 c 0,44,45
 94 126 94 126 101 115 c 128,-1,46
 108 104 108 104 115 88.5 c 128,-1,47
 122 73 122 73 133 57.5 c 128,-1,48
 144 42 144 42 169 31 c 128,-1,49
 194 20 194 20 230 20 c 0,50,51
 359 20 359 20 359 152 c 0,52,53
 359 178 359 178 351 209 c 128,-1,54
 343 240 343 240 319 268 c 128,-1,55
 295 296 295 296 261 296 c 0,56,57
 249 296 249 296 235.5 293.5 c 128,-1,58
 222 291 222 291 212 291 c 0,0,1
EndSplineSet
EndChar

StartChar: four
Encoding: 52 52 23
Width: 490
GlyphClass: 2
Flags: W
LayerCount: 2
Fore
SplineSet
366 585 m 1,0,-1
 366 206 l 1,1,-1
 447 206 l 1,2,-1
 447 176 l 1,3,-1
 366 176 l 1,4,-1
 366 41 l 1,5,6
 375 21 375 21 429 21 c 1,7,-1
 429 0 l 1,8,-1
 213 0 l 1,9,-1
 213 21 l 1,10,11
 267 21 267 21 276 41 c 1,12,-1
 276 176 l 1,13,-1
 39 176 l 1,14,-1
 314 585 l 1,15,-1
 366 585 l 1,0,-1
276 206 m 1,16,-1
 276 475 l 1,17,-1
 94 206 l 1,18,-1
 276 206 l 1,16,-1
EndSplineSet
EndChar

StartChar: five
Encoding: 53 53 24
Width: 490
GlyphClass: 2
Flags: W
LayerCount: 2
Fore
SplineSet
142 387 m 1,0,1
 303 387 303 387 372.5 332.5 c 128,-1,2
 442 278 442 278 442 196 c 0,3,4
 442 157 442 157 433 123 c 128,-1,5
 424 89 424 89 404 57.5 c 128,-1,6
 384 26 384 26 344 8 c 128,-1,7
 304 -10 304 -10 248 -10 c 0,8,9
 186 -10 186 -10 137 7.5 c 128,-1,10
 88 25 88 25 68 43 c 128,-1,11
 48 61 48 61 48 72 c 0,12,13
 48 102 48 102 55.5 114 c 128,-1,14
 63 126 63 126 84 126 c 0,15,16
 94 126 94 126 100.5 115 c 128,-1,17
 107 104 107 104 114 88.5 c 128,-1,18
 121 73 121 73 133 57.5 c 128,-1,19
 145 42 145 42 173 31 c 128,-1,20
 201 20 201 20 242 20 c 0,21,22
 275 20 275 20 299.5 36 c 128,-1,23
 324 52 324 52 336 77.5 c 128,-1,24
 348 103 348 103 353.5 127.5 c 128,-1,25
 359 152 359 152 359 176 c 0,26,27
 359 348 359 348 102 348 c 1,28,-1
 135 585 l 1,29,-1
 414 585 l 1,30,-1
 390 515 l 1,31,-1
 160 515 l 1,32,-1
 142 387 l 1,0,1
EndSplineSet
EndChar

StartChar: six
Encoding: 54 54 25
Width: 490
GlyphClass: 2
Flags: W
LayerCount: 2
Fore
SplineSet
249 336 m 0,0,1
 184 336 184 336 149 313 c 1,2,3
 143 271 143 271 143 224 c 0,4,5
 143 120 143 120 173.5 71 c 128,-1,6
 204 22 204 22 251 22 c 0,7,8
 294 22 294 22 320.5 70.5 c 128,-1,9
 347 119 347 119 347 196 c 0,10,11
 347 230 347 230 339.5 259.5 c 128,-1,12
 332 289 332 289 308.5 312.5 c 128,-1,13
 285 336 285 336 249 336 c 0,0,1
154 346 m 1,14,15
 195 370 195 370 247 370 c 0,16,17
 355 370 355 370 396 323 c 128,-1,18
 437 276 437 276 437 188 c 0,19,20
 437 96 437 96 388 43 c 128,-1,21
 339 -10 339 -10 251 -10 c 0,22,23
 156 -10 156 -10 104.5 55 c 128,-1,24
 53 120 53 120 53 224 c 0,25,26
 53 308 53 308 82 380.5 c 128,-1,27
 111 453 111 453 155.5 498.5 c 128,-1,28
 200 544 200 544 247 571 c 128,-1,29
 294 598 294 598 335 603 c 1,30,-1
 347 585 l 1,31,32
 273 566 273 566 223 505 c 128,-1,33
 173 444 173 444 154 346 c 1,14,15
EndSplineSet
EndChar

StartChar: seven
Encoding: 55 55 26
Width: 490
GlyphClass: 2
Flags: W
LayerCount: 2
Fore
SplineSet
181 11 m 0,0,1
 181 62 181 62 224.5 176.5 c 128,-1,2
 268 291 268 291 312 392.5 c 128,-1,3
 356 494 356 494 356 515 c 1,4,-1
 137 515 l 1,5,6
 96 497 96 497 78 452 c 1,7,-1
 58 452 l 1,8,-1
 96 585 l 1,9,-1
 432 585 l 1,10,11
 432 570 432 570 387 461.5 c 128,-1,12
 342 353 342 353 297.5 219.5 c 128,-1,13
 253 86 253 86 253 11 c 0,14,15
 253 1 253 1 241 -4.5 c 128,-1,16
 229 -10 229 -10 216 -10 c 0,17,18
 181 -10 181 -10 181 11 c 0,0,1
EndSplineSet
EndChar

StartChar: eight
Encoding: 56 56 27
Width: 490
GlyphClass: 2
Flags: W
LayerCount: 2
Fore
SplineSet
275 324 m 1,0,1
 359 370 359 370 359 465 c 0,2,3
 359 512 359 512 332 537.5 c 128,-1,4
 305 563 305 563 265 563 c 0,5,6
 155 563 155 563 155 458 c 0,7,8
 155 436 155 436 174 411.5 c 128,-1,9
 193 387 193 387 213.5 370.5 c 128,-1,10
 234 354 234 354 275 324 c 1,0,1
306 301 m 1,11,12
 367 255 367 255 401 213.5 c 128,-1,13
 435 172 435 172 435 123 c 0,14,15
 435 66 435 66 382 28 c 128,-1,16
 329 -10 329 -10 245 -10 c 0,17,18
 155 -10 155 -10 105 28.5 c 128,-1,19
 55 67 55 67 55 131 c 0,20,21
 55 234 55 234 177 301 c 1,22,23
 67 387 67 387 67 465 c 0,24,25
 67 520 67 520 115.5 557.5 c 128,-1,26
 164 595 164 595 246 595 c 0,27,28
 335 595 335 595 380.5 558.5 c 128,-1,29
 426 522 426 522 426 457 c 0,30,31
 426 362 426 362 306 301 c 1,11,12
208 277 m 1,32,33
 122 226 122 226 122 123 c 0,34,35
 122 81 122 81 154 51.5 c 128,-1,36
 186 22 186 22 226 22 c 0,37,38
 283 22 283 22 315 51.5 c 128,-1,39
 347 81 347 81 347 130 c 0,40,41
 347 138 347 138 345 146.5 c 128,-1,42
 343 155 343 155 337.5 163.5 c 128,-1,43
 332 172 332 172 326.5 179 c 128,-1,44
 321 186 321 186 311.5 195.5 c 128,-1,45
 302 205 302 205 295 211.5 c 128,-1,46
 288 218 288 218 274.5 228 c 128,-1,47
 261 238 261 238 253.5 243.5 c 128,-1,48
 246 249 246 249 230.5 260.5 c 128,-1,49
 215 272 215 272 208 277 c 1,32,33
EndSplineSet
EndChar

StartChar: nine
Encoding: 57 57 28
Width: 490
GlyphClass: 2
Flags: W
LayerCount: 2
Fore
SplineSet
241 249 m 0,0,1
 306 249 306 249 341 272 c 1,2,3
 347 314 347 314 347 361 c 0,4,5
 347 465 347 465 316.5 514 c 128,-1,6
 286 563 286 563 239 563 c 0,7,8
 196 563 196 563 169.5 514.5 c 128,-1,9
 143 466 143 466 143 389 c 0,10,11
 143 355 143 355 150.5 325.5 c 128,-1,12
 158 296 158 296 181.5 272.5 c 128,-1,13
 205 249 205 249 241 249 c 0,0,1
336 239 m 1,14,15
 295 215 295 215 243 215 c 0,16,17
 135 215 135 215 94 262 c 128,-1,18
 53 309 53 309 53 397 c 0,19,20
 53 489 53 489 102 542 c 128,-1,21
 151 595 151 595 239 595 c 0,22,23
 334 595 334 595 385.5 529.5 c 128,-1,24
 437 464 437 464 437 361 c 0,25,26
 437 277 437 277 408 204.5 c 128,-1,27
 379 132 379 132 334.5 86.5 c 128,-1,28
 290 41 290 41 243 14 c 128,-1,29
 196 -13 196 -13 155 -18 c 1,30,-1
 143 0 l 1,31,32
 217 19 217 19 267 80 c 128,-1,33
 317 141 317 141 336 239 c 1,14,15
EndSplineSet
EndChar

StartChar: colon
Encoding: 58 58 29
Width: 244
GlyphClass: 2
Flags: W
LayerCount: 2
Fore
SplineSet
62 381 m 128,-1,1
 62 405 62 405 78.5 424.5 c 128,-1,2
 95 444 95 444 121 444 c 0,3,4
 144 444 144 444 163 426 c 128,-1,5
 182 408 182 408 182 384 c 128,-1,6
 182 360 182 360 165 340 c 128,-1,7
 148 320 148 320 122 320 c 0,8,9
 99 320 99 320 80.5 338.5 c 128,-1,0
 62 357 62 357 62 381 c 128,-1,1
62 51 m 128,-1,11
 62 75 62 75 78.5 94.5 c 128,-1,12
 95 114 95 114 121 114 c 0,13,14
 144 114 144 114 163 96 c 128,-1,15
 182 78 182 78 182 54 c 128,-1,16
 182 30 182 30 165 10 c 128,-1,17
 148 -10 148 -10 122 -10 c 0,18,19
 99 -10 99 -10 80.5 8.5 c 128,-1,10
 62 27 62 27 62 51 c 128,-1,11
EndSplineSet
EndChar

StartChar: semicolon
Encoding: 59 59 30
Width: 262
GlyphClass: 2
Flags: W
LayerCount: 2
Fore
SplineSet
71 381 m 128,-1,1
 71 405 71 405 87.5 424.5 c 128,-1,2
 104 444 104 444 130 444 c 0,3,4
 153 444 153 444 172 426 c 128,-1,5
 191 408 191 408 191 384 c 128,-1,6
 191 360 191 360 174 340 c 128,-1,7
 157 320 157 320 131 320 c 0,8,9
 108 320 108 320 89.5 338.5 c 128,-1,0
 71 357 71 357 71 381 c 128,-1,1
115 -6 m 0,10,11
 93 -6 93 -6 78.5 7 c 128,-1,12
 64 20 64 20 64 43 c 0,13,14
 64 70 64 70 83 85 c 128,-1,15
 102 100 102 100 121 100 c 0,16,17
 157 100 157 100 179.5 68.5 c 128,-1,18
 202 37 202 37 202 -6 c 0,19,20
 202 -90 202 -90 78 -129 c 1,21,-1
 78 -101 l 1,22,23
 103 -98 103 -98 129.5 -73.5 c 128,-1,24
 156 -49 156 -49 156 -18 c 0,25,26
 156 0 156 0 154 3.5 c 128,-1,27
 152 7 152 7 146 7 c 0,28,29
 143 7 143 7 134.5 0.5 c 128,-1,30
 126 -6 126 -6 115 -6 c 0,10,11
EndSplineSet
EndChar

StartChar: less
Encoding: 60 60 31
Width: 465
GlyphClass: 2
Flags: W
LayerCount: 2
Fore
SplineSet
30 340 m 1,0,-1
 398 512 l 1,1,-1
 398 472 l 1,2,-1
 68 318 l 1,3,-1
 398 164 l 1,4,-1
 398 124 l 1,5,-1
 30 296 l 1,6,-1
 30 340 l 1,0,-1
EndSplineSet
EndChar

StartChar: equal
Encoding: 61 61 32
Width: 484
GlyphClass: 2
Flags: W
LayerCount: 2
Fore
SplineSet
65 280 m 1,0,-1
 419 280 l 1,1,-1
 419 236 l 1,2,-1
 65 236 l 1,3,-1
 65 280 l 1,0,-1
65 400 m 1,4,-1
 419 400 l 1,5,-1
 419 356 l 1,6,-1
 65 356 l 1,7,-1
 65 400 l 1,4,-1
EndSplineSet
EndChar

StartChar: greater
Encoding: 62 62 33
Width: 465
GlyphClass: 2
Flags: W
LayerCount: 2
Fore
SplineSet
435 296 m 1,0,-1
 67 124 l 1,1,-1
 67 164 l 1,2,-1
 397 318 l 1,3,-1
 67 472 l 1,4,-1
 67 512 l 1,5,-1
 435 340 l 1,6,-1
 435 296 l 1,0,-1
EndSplineSet
EndChar

StartChar: question
Encoding: 63 63 34
Width: 394
GlyphClass: 2
Flags: W
LayerCount: 2
Fore
SplineSet
122 51 m 128,-1,1
 122 75 122 75 138.5 94.5 c 128,-1,2
 155 114 155 114 181 114 c 0,3,4
 204 114 204 114 223 96 c 128,-1,5
 242 78 242 78 242 54 c 128,-1,6
 242 30 242 30 225 10 c 128,-1,7
 208 -10 208 -10 182 -10 c 0,8,9
 159 -10 159 -10 140.5 8.5 c 128,-1,0
 122 27 122 27 122 51 c 128,-1,1
167 200 m 0,10,11
 167 238 167 238 183.5 274.5 c 128,-1,12
 200 311 200 311 219.5 336.5 c 128,-1,13
 239 362 239 362 255.5 400.5 c 128,-1,14
 272 439 272 439 272 480 c 0,15,16
 272 543 272 543 250 571.5 c 128,-1,17
 228 600 228 600 177 600 c 0,18,19
 139 600 139 600 114 577 c 128,-1,20
 89 554 89 554 89 529 c 0,21,22
 89 517 89 517 96.5 503.5 c 128,-1,23
 104 490 104 490 104 479 c 0,24,25
 104 464 104 464 94.5 454.5 c 128,-1,26
 85 445 85 445 71 445 c 0,27,28
 54 445 54 445 41.5 457.5 c 128,-1,29
 29 470 29 470 29 496 c 0,30,31
 29 547 29 547 70 588.5 c 128,-1,32
 111 630 111 630 187 630 c 0,33,34
 279 630 279 630 320.5 582.5 c 128,-1,35
 362 535 362 535 362 475 c 0,36,37
 362 436 362 436 335.5 394.5 c 128,-1,38
 309 353 309 353 277.5 323.5 c 128,-1,39
 246 294 246 294 219.5 260 c 128,-1,40
 193 226 193 226 193 200 c 0,41,42
 193 195 193 195 188.5 190.5 c 128,-1,43
 184 186 184 186 180 186 c 128,-1,44
 176 186 176 186 171.5 190.5 c 128,-1,45
 167 195 167 195 167 200 c 0,10,11
EndSplineSet
EndChar

StartChar: at
Encoding: 64 64 35
Width: 626
GlyphClass: 2
Flags: W
LayerCount: 2
Fore
SplineSet
248 159 m 0,0,1
 210 159 210 159 189.5 188 c 128,-1,2
 169 217 169 217 169 259 c 0,3,4
 169 325 169 325 214.5 381 c 128,-1,5
 260 437 260 437 310 437 c 0,6,7
 369 437 369 437 385 373 c 1,8,-1
 399 426 l 1,9,-1
 452 426 l 1,10,-1
 393 203 l 2,11,12
 392 201 392 201 392 197 c 0,13,14
 392 182 392 182 415 182 c 0,15,16
 448 182 448 182 474 215.5 c 128,-1,17
 500 249 500 249 510 283 c 128,-1,18
 520 317 520 317 520 338 c 0,19,20
 520 404 520 404 504.5 449.5 c 128,-1,21
 489 495 489 495 460.5 516 c 128,-1,22
 432 537 432 537 403.5 545 c 128,-1,23
 375 553 375 553 338 553 c 0,24,25
 237 553 237 553 161.5 482 c 128,-1,26
 86 411 86 411 86 288 c 0,27,28
 86 209 86 209 128 147.5 c 128,-1,29
 170 86 170 86 226 57.5 c 128,-1,30
 282 29 282 29 338 29 c 0,31,32
 383 29 383 29 422.5 43 c 128,-1,33
 462 57 462 57 485 72.5 c 128,-1,34
 508 88 508 88 530.5 115 c 128,-1,35
 553 142 553 142 559 152.5 c 128,-1,36
 565 163 565 163 576 182 c 1,37,-1
 592 174 l 1,38,39
 555 90 555 90 495 40 c 128,-1,40
 435 -10 435 -10 332 -10 c 0,41,42
 223 -10 223 -10 133.5 73.5 c 128,-1,43
 44 157 44 157 44 284 c 0,44,45
 44 426 44 426 130 510.5 c 128,-1,46
 216 595 216 595 334 595 c 0,47,48
 432 595 432 595 497 530.5 c 128,-1,49
 562 466 562 466 562 346 c 0,50,51
 562 319 562 319 551.5 286.5 c 128,-1,52
 541 254 541 254 521.5 221.5 c 128,-1,53
 502 189 502 189 467.5 167.5 c 128,-1,54
 433 146 433 146 391 146 c 0,55,56
 373 146 373 146 357 158 c 128,-1,57
 341 170 341 170 341 197 c 0,58,59
 341 207 341 207 342 213 c 1,60,61
 298 159 298 159 248 159 c 0,0,1
365 338 m 0,62,63
 365 367 365 367 352 387 c 128,-1,64
 339 407 339 407 314 407 c 0,65,66
 277 407 277 407 245 364 c 128,-1,67
 213 321 213 321 213 270 c 0,68,69
 213 241 213 241 226 221.5 c 128,-1,70
 239 202 239 202 264 202 c 0,71,72
 301 202 301 202 333 244 c 128,-1,73
 365 286 365 286 365 338 c 0,62,63
EndSplineSet
EndChar

StartChar: A
Encoding: 65 65 36
Width: 546
GlyphClass: 2
Flags: W
AnchorPoint: "Anchor-5" 248 0 basechar 0
AnchorPoint: "Anchor-4" 490 0 basechar 0
AnchorPoint: "Anchor-3" 436 0 basechar 0
AnchorPoint: "Anchor-2" 240 288 basechar 0
AnchorPoint: "Anchor-0" 276 620 basechar 0
LayerCount: 2
Fore
SplineSet
336 0 m 1,0,-1
 336 21 l 1,1,2
 382 21 382 21 394 33 c 1,3,-1
 338 186 l 1,4,-1
 146 186 l 1,5,-1
 94 39 l 1,6,7
 104 21 104 21 156 21 c 1,8,-1
 156 0 l 1,9,-1
 -8 0 l 1,10,-1
 -8 21 l 1,11,12
 48 21 48 21 55 42 c 2,13,-1
 249 585 l 1,14,-1
 297 585 l 1,15,-1
 491 42 l 2,16,17
 498 21 498 21 555 21 c 1,18,-1
 555 0 l 1,19,-1
 336 0 l 1,0,-1
241 452 m 1,20,-1
 158 219 l 1,21,-1
 326 219 l 1,22,-1
 241 452 l 1,20,-1
EndSplineSet
EndChar

StartChar: B
Encoding: 66 66 37
Width: 558
GlyphClass: 2
Flags: W
AnchorPoint: "Anchor-5" 246 0 basechar 0
AnchorPoint: "Anchor-2" 174 158 basechar 0
AnchorPoint: "Anchor-0" 240 620 basechar 0
LayerCount: 2
Fore
SplineSet
197 290 m 1,0,-1
 197 34 l 1,1,-1
 282 34 l 2,2,3
 422 34 422 34 422 170 c 0,4,5
 422 217 422 217 387 253.5 c 128,-1,6
 352 290 352 290 270 290 c 2,7,-1
 197 290 l 1,0,-1
197 551 m 1,8,-1
 197 319 l 1,9,-1
 238 319 l 2,10,11
 378 319 378 319 378 446 c 0,12,13
 378 551 378 551 226 551 c 2,14,-1
 197 551 l 1,8,-1
42 0 m 1,15,-1
 42 21 l 1,16,17
 96 21 96 21 105 41 c 1,18,-1
 105 544 l 1,19,20
 96 564 96 564 42 564 c 1,21,-1
 42 585 l 1,22,-1
 226 585 l 2,23,24
 351 585 351 585 414.5 544 c 128,-1,25
 478 503 478 503 478 447 c 0,26,27
 478 345 478 345 372 309 c 1,28,29
 447 292 447 292 484.5 253.5 c 128,-1,30
 522 215 522 215 522 171 c 0,31,32
 522 95 522 95 461.5 47.5 c 128,-1,33
 401 0 401 0 282 0 c 2,34,-1
 42 0 l 1,15,-1
EndSplineSet
EndChar

StartChar: C
Encoding: 67 67 38
Width: 562
GlyphClass: 2
Flags: W
AnchorPoint: "Anchor-5" 325 0 basechar 0
AnchorPoint: "Anchor-3" 325 0 basechar 0
AnchorPoint: "Anchor-0" 344 620 basechar 0
LayerCount: 2
Fore
SplineSet
346 561 m 0,0,1
 260 561 260 561 203 490 c 128,-1,2
 146 419 146 419 146 306 c 0,3,4
 146 174 146 174 206 99 c 128,-1,5
 266 24 266 24 350 24 c 0,6,7
 400 24 400 24 449 58.5 c 128,-1,8
 498 93 498 93 512 132 c 1,9,-1
 536 120 l 1,10,11
 513 65 513 65 463.5 27.5 c 128,-1,12
 414 -10 414 -10 330 -10 c 0,13,14
 197 -10 197 -10 119.5 76.5 c 128,-1,15
 42 163 42 163 42 284 c 0,16,17
 42 424 42 424 131.5 509.5 c 128,-1,18
 221 595 221 595 345 595 c 0,19,20
 374 595 374 595 412 580 c 128,-1,21
 450 565 450 565 456 565 c 0,22,23
 468 565 468 565 468 585 c 1,24,-1
 491 585 l 1,25,-1
 501 458 l 1,26,-1
 479 458 l 1,27,28
 472 503 472 503 439.5 532 c 128,-1,29
 407 561 407 561 346 561 c 0,0,1
EndSplineSet
EndChar

StartChar: D
Encoding: 68 68 39
Width: 611
GlyphClass: 2
Flags: W
AnchorPoint: "Anchor-5" 240 0 basechar 0
AnchorPoint: "Anchor-3" 240 0 basechar 0
AnchorPoint: "Anchor-2" 178 286 basechar 0
AnchorPoint: "Anchor-0" 268 620 basechar 0
LayerCount: 2
Fore
SplineSet
42 0 m 1,0,-1
 42 21 l 1,1,2
 96 21 96 21 105 41 c 1,3,-1
 105 544 l 1,4,5
 96 564 96 564 42 564 c 1,6,-1
 42 585 l 1,7,-1
 272 585 l 2,8,9
 405 585 405 585 486 504.5 c 128,-1,10
 567 424 567 424 567 294 c 128,-1,11
 567 164 567 164 488 82 c 128,-1,12
 409 0 409 0 284 0 c 2,13,-1
 42 0 l 1,0,-1
197 556 m 1,14,-1
 197 34 l 1,15,-1
 284 34 l 2,16,17
 316 34 316 34 346.5 48.5 c 128,-1,18
 377 63 377 63 405 92 c 128,-1,19
 433 121 433 121 450 173 c 128,-1,20
 467 225 467 225 467 293 c 0,21,22
 467 423 467 423 408.5 489.5 c 128,-1,23
 350 556 350 556 272 556 c 2,24,-1
 197 556 l 1,14,-1
EndSplineSet
EndChar

StartChar: E
Encoding: 69 69 40
Width: 507
GlyphClass: 2
Flags: W
AnchorPoint: "Anchor-5" 260 0 basechar 0
AnchorPoint: "Anchor-4" 406 0 basechar 0
AnchorPoint: "Anchor-3" 260 0 basechar 0
AnchorPoint: "Anchor-2" 154 164 basechar 0
AnchorPoint: "Anchor-0" 268 620 basechar 0
LayerCount: 2
Fore
SplineSet
42 0 m 1,0,-1
 42 21 l 1,1,2
 96 21 96 21 105 41 c 1,3,-1
 105 544 l 1,4,5
 96 564 96 564 42 564 c 1,6,-1
 42 585 l 1,7,-1
 445 585 l 1,8,-1
 445 488 l 1,9,-1
 424 488 l 1,10,11
 424 542 424 542 404 551 c 1,12,-1
 197 551 l 1,13,-1
 197 321 l 1,14,-1
 337 321 l 1,15,16
 357 330 357 330 357 384 c 1,17,-1
 378 384 l 1,18,-1
 378 224 l 1,19,-1
 357 224 l 1,20,21
 357 278 357 278 337 287 c 1,22,-1
 197 287 l 1,23,-1
 197 34 l 1,24,-1
 425 34 l 1,25,26
 450 45 450 45 470 97 c 1,27,-1
 490 97 l 1,28,-1
 466 0 l 1,29,-1
 42 0 l 1,0,-1
EndSplineSet
EndChar

StartChar: F
Encoding: 70 70 41
Width: 470
GlyphClass: 2
Flags: W
AnchorPoint: "Anchor-0" 268 620 basechar 0
LayerCount: 2
Fore
SplineSet
42 0 m 1,0,-1
 42 21 l 1,1,2
 96 21 96 21 105 41 c 1,3,-1
 105 544 l 1,4,5
 96 564 96 564 42 564 c 1,6,-1
 42 585 l 1,7,-1
 445 585 l 1,8,-1
 445 488 l 1,9,-1
 424 488 l 1,10,11
 424 542 424 542 404 551 c 1,12,-1
 197 551 l 1,13,-1
 197 321 l 1,14,-1
 337 321 l 1,15,16
 357 330 357 330 357 384 c 1,17,-1
 378 384 l 1,18,-1
 378 224 l 1,19,-1
 357 224 l 1,20,21
 357 278 357 278 337 287 c 1,22,-1
 197 287 l 1,23,-1
 197 41 l 1,24,25
 206 21 206 21 260 21 c 1,26,-1
 260 0 l 1,27,-1
 42 0 l 1,0,-1
EndSplineSet
EndChar

StartChar: G
Encoding: 71 71 42
Width: 617
GlyphClass: 2
Flags: W
AnchorPoint: "Anchor-5" 323 0 basechar 0
AnchorPoint: "Anchor-3" 323 0 basechar 0
AnchorPoint: "Anchor-2" 494 177 basechar 0
AnchorPoint: "Anchor-0" 342 620 basechar 0
LayerCount: 2
Fore
SplineSet
354 561 m 0,0,1
 268 561 268 561 206 480.5 c 128,-1,2
 144 400 144 400 144 286 c 0,3,4
 144 217 144 217 162 164 c 128,-1,5
 180 111 180 111 210 81.5 c 128,-1,6
 240 52 240 52 273 38 c 128,-1,7
 306 24 306 24 340 24 c 0,8,9
 396 24 396 24 446 43 c 1,10,-1
 446 248 l 1,11,12
 437 268 437 268 383 268 c 1,13,-1
 383 289 l 1,14,-1
 601 289 l 1,15,-1
 601 268 l 1,16,17
 547 268 547 268 538 248 c 1,18,-1
 538 80 l 1,19,20
 521 48 521 48 469.5 19 c 128,-1,21
 418 -10 418 -10 338 -10 c 0,22,23
 204 -10 204 -10 122 77 c 128,-1,24
 40 164 40 164 40 284 c 0,25,26
 40 423 40 423 134 509 c 128,-1,27
 228 595 228 595 353 595 c 0,28,29
 382 595 382 595 425 580 c 128,-1,30
 468 565 468 565 474 565 c 0,31,32
 486 565 486 565 486 585 c 1,33,-1
 509 585 l 1,34,-1
 519 458 l 1,35,-1
 497 458 l 1,36,37
 491 502 491 502 453 531.5 c 128,-1,38
 415 561 415 561 354 561 c 0,0,1
EndSplineSet
EndChar

StartChar: H
Encoding: 72 72 43
Width: 650
GlyphClass: 2
Flags: W
AnchorPoint: "Anchor-5" 325 0 basechar 0
AnchorPoint: "Anchor-3" 325 0 basechar 0
AnchorPoint: "Anchor-2" 324 420 basechar 0
AnchorPoint: "Anchor-0" 326 620 basechar 0
LayerCount: 2
Fore
SplineSet
42 0 m 1,0,-1
 42 21 l 1,1,2
 96 21 96 21 105 41 c 1,3,-1
 105 544 l 1,4,5
 96 564 96 564 42 564 c 1,6,-1
 42 585 l 1,7,-1
 260 585 l 1,8,-1
 260 564 l 1,9,10
 206 564 206 564 197 544 c 1,11,-1
 197 321 l 1,12,-1
 453 321 l 1,13,-1
 453 544 l 1,14,15
 444 564 444 564 390 564 c 1,16,-1
 390 585 l 1,17,-1
 608 585 l 1,18,-1
 608 564 l 1,19,20
 554 564 554 564 545 544 c 1,21,-1
 545 41 l 1,22,23
 554 21 554 21 608 21 c 1,24,-1
 608 0 l 1,25,-1
 390 0 l 1,26,-1
 390 21 l 1,27,28
 444 21 444 21 453 41 c 1,29,-1
 453 287 l 1,30,-1
 197 287 l 1,31,-1
 197 41 l 1,32,33
 206 21 206 21 260 21 c 1,34,-1
 260 0 l 1,35,-1
 42 0 l 1,0,-1
EndSplineSet
EndChar

StartChar: I
Encoding: 73 73 44
Width: 302
GlyphClass: 2
Flags: W
AnchorPoint: "Anchor-5" 149 0 basechar 0
AnchorPoint: "Anchor-4" 201 0 basechar 0
AnchorPoint: "Anchor-3" 150 0 basechar 0
AnchorPoint: "Anchor-2" 153 294 basechar 0
AnchorPoint: "Anchor-0" 149 620 basechar 0
LayerCount: 2
Fore
SplineSet
42 0 m 1,0,-1
 42 21 l 1,1,2
 96 21 96 21 105 41 c 1,3,-1
 105 544 l 1,4,5
 96 564 96 564 42 564 c 1,6,-1
 42 585 l 1,7,-1
 260 585 l 1,8,-1
 260 564 l 1,9,10
 206 564 206 564 197 544 c 1,11,-1
 197 41 l 1,12,13
 206 21 206 21 260 21 c 1,14,-1
 260 0 l 1,15,-1
 42 0 l 1,0,-1
EndSplineSet
EndChar

StartChar: J
Encoding: 74 74 45
Width: 412
GlyphClass: 2
Flags: W
AnchorPoint: "Anchor-0" 278 620 basechar 0
LayerCount: 2
Fore
SplineSet
323 172 m 2,0,1
 323 137 323 137 315 107 c 128,-1,2
 307 77 307 77 289.5 49.5 c 128,-1,3
 272 22 272 22 238 6 c 128,-1,4
 204 -10 204 -10 157 -10 c 0,5,6
 86 -10 86 -10 46.5 18.5 c 128,-1,7
 7 47 7 47 7 80 c 0,8,9
 7 103 7 103 19 116.5 c 128,-1,10
 31 130 31 130 50 130 c 0,11,12
 68 130 68 130 81.5 121 c 128,-1,13
 95 112 95 112 95 95 c 0,14,15
 95 61 95 61 70 53 c 1,16,17
 97 26 97 26 147 26 c 0,18,19
 170 26 170 26 186 34.5 c 128,-1,20
 202 43 202 43 211 56.5 c 128,-1,21
 220 70 220 70 224.5 95.5 c 128,-1,22
 229 121 229 121 230 144.5 c 128,-1,23
 231 168 231 168 231 208 c 2,24,-1
 231 544 l 1,25,26
 222 564 222 564 168 564 c 1,27,-1
 168 585 l 1,28,-1
 386 585 l 1,29,-1
 386 564 l 1,30,31
 332 564 332 564 323 544 c 1,32,-1
 323 172 l 2,0,1
EndSplineSet
EndChar

StartChar: K
Encoding: 75 75 46
Width: 579
GlyphClass: 2
Flags: W
AnchorPoint: "Anchor-5" 312 0 basechar 0
AnchorPoint: "Anchor-3" 312 0 basechar 0
AnchorPoint: "Anchor-2" 151 462 basechar 0
AnchorPoint: "Anchor-0" 321 620 basechar 0
LayerCount: 2
Fore
SplineSet
42 0 m 1,0,-1
 42 21 l 1,1,2
 96 21 96 21 105 41 c 1,3,-1
 105 544 l 1,4,5
 96 564 96 564 42 564 c 1,6,-1
 42 585 l 1,7,-1
 258 585 l 1,8,-1
 258 564 l 1,9,10
 204 564 204 564 195 544 c 1,11,-1
 195 41 l 1,12,13
 204 21 204 21 258 21 c 1,14,-1
 258 0 l 1,15,-1
 42 0 l 1,0,-1
391 0 m 1,16,-1
 391 21 l 1,17,18
 414 21 414 21 428 24 c 1,19,-1
 200 314 l 1,20,-1
 445 557 l 1,21,22
 431 564 431 564 394 564 c 1,23,-1
 394 585 l 1,24,-1
 551 585 l 1,25,-1
 551 564 l 1,26,27
 509 564 509 564 489 541 c 1,28,-1
 288 342 l 1,29,-1
 523 37 l 1,30,31
 539 21 539 21 586 21 c 1,32,-1
 586 0 l 1,33,-1
 391 0 l 1,16,-1
EndSplineSet
EndChar

StartChar: L
Encoding: 76 76 47
Width: 495
GlyphClass: 2
Flags: W
AnchorPoint: "Anchor-5" 266 0 basechar 0
AnchorPoint: "Anchor-3" 266 0 basechar 0
AnchorPoint: "Anchor-2" 153 341 basechar 0
AnchorPoint: "Anchor-0" 151 620 basechar 0
LayerCount: 2
Fore
SplineSet
42 0 m 1,0,-1
 42 21 l 1,1,2
 96 21 96 21 105 41 c 1,3,-1
 105 544 l 1,4,5
 96 564 96 564 42 564 c 1,6,-1
 42 585 l 1,7,-1
 260 585 l 1,8,-1
 260 564 l 1,9,10
 206 564 206 564 197 544 c 1,11,-1
 197 34 l 1,12,-1
 425 34 l 1,13,14
 450 45 450 45 470 97 c 1,15,-1
 490 97 l 1,16,-1
 466 0 l 1,17,-1
 42 0 l 1,0,-1
EndSplineSet
EndChar

StartChar: M
Encoding: 77 77 48
Width: 804
GlyphClass: 2
Flags: W
AnchorPoint: "Anchor-5" 375 0 basechar 0
AnchorPoint: "Anchor-3" 375 0 basechar 0
AnchorPoint: "Anchor-0" 379 620 basechar 0
LayerCount: 2
Fore
SplineSet
42 0 m 1,0,-1
 42 21 l 1,1,2
 96 21 96 21 105 41 c 1,3,-1
 105 544 l 1,4,5
 96 564 96 564 42 564 c 1,6,-1
 42 585 l 1,7,-1
 188 585 l 1,8,-1
 401 120 l 1,9,-1
 614 585 l 1,10,-1
 762 585 l 1,11,-1
 762 564 l 1,12,13
 708 564 708 564 699 544 c 1,14,-1
 699 41 l 1,15,16
 708 21 708 21 762 21 c 1,17,-1
 762 0 l 1,18,-1
 544 0 l 1,19,-1
 544 21 l 1,20,21
 598 21 598 21 607 41 c 1,22,-1
 607 490 l 1,23,-1
 383 0 l 1,24,-1
 368 0 l 1,25,-1
 139 496 l 1,26,-1
 139 41 l 1,27,28
 148 21 148 21 202 21 c 1,29,-1
 202 0 l 1,30,-1
 42 0 l 1,0,-1
EndSplineSet
EndChar

StartChar: N
Encoding: 78 78 49
Width: 637
GlyphClass: 2
Flags: W
AnchorPoint: "Anchor-5" 318 0 basechar 0
AnchorPoint: "Anchor-3" 318 0 basechar 0
AnchorPoint: "Anchor-2" 329 330 basechar 0
AnchorPoint: "Anchor-0" 318 620 basechar 0
LayerCount: 2
Fore
SplineSet
42 0 m 1,0,-1
 42 21 l 1,1,2
 96 21 96 21 105 41 c 1,3,-1
 105 544 l 1,4,5
 96 564 96 564 42 564 c 1,6,-1
 42 585 l 1,7,-1
 176 585 l 1,8,-1
 507 176 l 1,9,-1
 507 544 l 1,10,11
 498 564 498 564 444 564 c 1,12,-1
 444 585 l 1,13,-1
 604 585 l 1,14,-1
 604 564 l 1,15,16
 550 564 550 564 541 544 c 1,17,-1
 541 0 l 1,18,-1
 532 0 l 1,19,-1
 139 497 l 1,20,-1
 139 41 l 1,21,22
 148 21 148 21 202 21 c 1,23,-1
 202 0 l 1,24,-1
 42 0 l 1,0,-1
EndSplineSet
EndChar

StartChar: O
Encoding: 79 79 50
Width: 641
GlyphClass: 2
Flags: W
AnchorPoint: "Anchor-5" 322 0 basechar 0
AnchorPoint: "Anchor-4" 351 0 basechar 0
AnchorPoint: "Anchor-3" 322 0 basechar 0
AnchorPoint: "Anchor-2" 327 294 basechar 0
AnchorPoint: "Anchor-1" 501 440 basechar 0
AnchorPoint: "Anchor-0" 321 620 basechar 0
LayerCount: 2
Fore
SplineSet
144 300 m 0,0,1
 144 234 144 234 162.5 173.5 c 128,-1,2
 181 113 181 113 223.5 68.5 c 128,-1,3
 266 24 266 24 325 24 c 128,-1,4
 384 24 384 24 424.5 66 c 128,-1,5
 465 108 465 108 481.5 164.5 c 128,-1,6
 498 221 498 221 498 284 c 0,7,8
 498 349 498 349 479 410.5 c 128,-1,9
 460 472 460 472 417.5 516.5 c 128,-1,10
 375 561 375 561 317 561 c 0,11,12
 272 561 272 561 237.5 537 c 128,-1,13
 203 513 203 513 183.5 473.5 c 128,-1,14
 164 434 164 434 154 390 c 128,-1,15
 144 346 144 346 144 300 c 0,0,1
44 292 m 0,16,17
 44 417 44 417 122 506 c 128,-1,18
 200 595 200 595 321 595 c 128,-1,19
 442 595 442 595 520 506 c 128,-1,20
 598 417 598 417 598 292 c 128,-1,21
 598 167 598 167 519.5 78.5 c 128,-1,22
 441 -10 441 -10 321 -10 c 0,23,24
 199 -10 199 -10 121.5 78 c 128,-1,25
 44 166 44 166 44 292 c 0,16,17
EndSplineSet
EndChar

StartChar: P
Encoding: 80 80 51
Width: 538
GlyphClass: 2
Flags: W
AnchorPoint: "Anchor-5" 148 0 basechar 0
AnchorPoint: "Anchor-3" 148 0 basechar 0
AnchorPoint: "Anchor-2" 151 160 basechar 0
AnchorPoint: "Anchor-0" 240 620 basechar 0
LayerCount: 2
Fore
SplineSet
42 0 m 1,0,-1
 42 21 l 1,1,2
 96 21 96 21 105 41 c 1,3,-1
 105 544 l 1,4,5
 96 564 96 564 42 564 c 1,6,-1
 42 585 l 1,7,-1
 268 585 l 2,8,9
 391 585 391 585 455.5 538 c 128,-1,10
 520 491 520 491 520 433 c 0,11,12
 520 358 520 358 460 312 c 128,-1,13
 400 266 400 266 280 266 c 2,14,-1
 197 266 l 1,15,-1
 197 41 l 1,16,17
 206 21 206 21 260 21 c 1,18,-1
 260 0 l 1,19,-1
 42 0 l 1,0,-1
197 551 m 1,20,-1
 197 300 l 1,21,-1
 280 300 l 2,22,23
 357 300 357 300 388.5 330.5 c 128,-1,24
 420 361 420 361 420 432 c 0,25,26
 420 551 420 551 268 551 c 2,27,-1
 197 551 l 1,20,-1
EndSplineSet
EndChar

StartChar: Q
Encoding: 81 81 52
Width: 641
GlyphClass: 2
Flags: W
LayerCount: 2
Fore
SplineSet
44 292 m 0,0,1
 44 417 44 417 122 506 c 128,-1,2
 200 595 200 595 321 595 c 128,-1,3
 442 595 442 595 520 506 c 128,-1,4
 598 417 598 417 598 292 c 0,5,6
 598 215 598 215 566.5 148.5 c 128,-1,7
 535 82 535 82 479 41 c 1,8,9
 483 33 483 33 492.5 15 c 128,-1,10
 502 -3 502 -3 506.5 -11 c 128,-1,11
 511 -19 511 -19 520 -32 c 128,-1,12
 529 -45 529 -45 536 -50.5 c 128,-1,13
 543 -56 543 -56 553 -61 c 128,-1,14
 563 -66 563 -66 574 -66 c 0,15,16
 598 -66 598 -66 618 -54.5 c 128,-1,17
 638 -43 638 -43 646 -32 c 2,18,-1
 654 -20 l 1,19,-1
 669 -31 l 1,20,21
 668 -34 668 -34 665.5 -38.5 c 128,-1,22
 663 -43 663 -43 654.5 -55.5 c 128,-1,23
 646 -68 646 -68 636 -77.5 c 128,-1,24
 626 -87 626 -87 609 -94.5 c 128,-1,25
 592 -102 592 -102 574 -102 c 0,26,27
 508 -102 508 -102 470.5 -73.5 c 128,-1,28
 433 -45 433 -45 407 4 c 1,29,30
 365 -10 365 -10 321 -10 c 0,31,32
 199 -10 199 -10 121.5 78 c 128,-1,33
 44 166 44 166 44 292 c 0,0,1
231 61 m 1,34,35
 271 24 271 24 325 24 c 0,36,37
 362 24 362 24 390 39 c 1,38,39
 375 71 375 71 361 86.5 c 128,-1,40
 347 102 347 102 326 102 c 0,41,42
 270 102 270 102 231 61 c 1,34,35
446 91 m 1,43,44
 498 166 498 166 498 284 c 0,45,46
 498 349 498 349 479 410.5 c 128,-1,47
 460 472 460 472 417.5 516.5 c 128,-1,48
 375 561 375 561 317 561 c 0,49,50
 272 561 272 561 237.5 537 c 128,-1,51
 203 513 203 513 183.5 473.5 c 128,-1,52
 164 434 164 434 154 390 c 128,-1,53
 144 346 144 346 144 300 c 0,54,55
 144 160 144 160 214 78 c 1,56,57
 259 146 259 146 332 146 c 0,58,59
 401 146 401 146 446 91 c 1,43,44
EndSplineSet
EndChar

StartChar: R
Encoding: 82 82 53
Width: 581
GlyphClass: 2
Flags: W
AnchorPoint: "Anchor-5" 322 0 basechar 0
AnchorPoint: "Anchor-3" 322 0 basechar 0
AnchorPoint: "Anchor-2" 151 160 basechar 0
AnchorPoint: "Anchor-0" 284 620 basechar 0
LayerCount: 2
Fore
SplineSet
42 0 m 1,0,-1
 42 21 l 1,1,2
 96 21 96 21 105 41 c 1,3,-1
 105 544 l 1,4,5
 96 564 96 564 42 564 c 1,6,-1
 42 585 l 1,7,-1
 268 585 l 2,8,9
 392 585 392 585 456 540 c 128,-1,10
 520 495 520 495 520 437 c 0,11,12
 520 382 520 382 487 340.5 c 128,-1,13
 454 299 454 299 389 280 c 1,14,-1
 522 42 l 1,15,16
 532 21 532 21 588 21 c 1,17,-1
 588 0 l 1,18,-1
 545 0 l 2,19,20
 475 0 475 0 454 8 c 128,-1,21
 433 16 433 16 412 52 c 2,22,-1
 291 266 l 1,23,-1
 197 266 l 1,24,-1
 197 41 l 1,25,26
 206 21 206 21 260 21 c 1,27,-1
 260 0 l 1,28,-1
 42 0 l 1,0,-1
197 551 m 1,29,-1
 197 300 l 1,30,-1
 280 300 l 2,31,32
 360 300 360 300 390 331 c 128,-1,33
 420 362 420 362 420 436 c 0,34,35
 420 491 420 491 386.5 521 c 128,-1,36
 353 551 353 551 268 551 c 2,37,-1
 197 551 l 1,29,-1
EndSplineSet
EndChar

StartChar: S
Encoding: 83 83 54
Width: 478
GlyphClass: 2
Flags: W
AnchorPoint: "Anchor-5" 239 0 basechar 0
AnchorPoint: "Anchor-3" 239 0 basechar 0
AnchorPoint: "Anchor-2" 251 294 basechar 0
AnchorPoint: "Anchor-0" 227 620 basechar 0
LayerCount: 2
Fore
SplineSet
249 -10 m 0,0,1
 200 -10 200 -10 149 5 c 128,-1,2
 98 20 98 20 96 20 c 0,3,4
 90 20 90 20 82 14 c 128,-1,5
 74 8 74 8 74 0 c 1,6,-1
 51 0 l 1,7,-1
 51 139 l 1,8,-1
 73 139 l 1,9,10
 84 79 84 79 132.5 51.5 c 128,-1,11
 181 24 181 24 243 24 c 0,12,13
 296 24 296 24 330 48 c 128,-1,14
 364 72 364 72 364 120 c 0,15,16
 364 142 364 142 354.5 160 c 128,-1,17
 345 178 345 178 325.5 193.5 c 128,-1,18
 306 209 306 209 288 219.5 c 128,-1,19
 270 230 270 230 241.5 245.5 c 128,-1,20
 213 261 213 261 198 270 c 0,21,22
 163 292 163 292 146 303.5 c 128,-1,23
 129 315 129 315 102.5 338 c 128,-1,24
 76 361 76 361 64 386 c 128,-1,25
 52 411 52 411 52 440 c 0,26,27
 52 499 52 499 106 547 c 128,-1,28
 160 595 160 595 227 595 c 0,29,30
 256 595 256 595 299 580 c 128,-1,31
 342 565 342 565 348 565 c 0,32,33
 360 565 360 565 360 585 c 1,34,-1
 383 585 l 1,35,-1
 393 458 l 1,36,-1
 371 458 l 1,37,38
 365 502 365 502 327 531.5 c 128,-1,39
 289 561 289 561 228 561 c 0,40,41
 182 561 182 561 154.5 531.5 c 128,-1,42
 127 502 127 502 127 472 c 0,43,44
 127 453 127 453 136 436.5 c 128,-1,45
 145 420 145 420 164 406 c 128,-1,46
 183 392 183 392 200 381.5 c 128,-1,47
 217 371 217 371 245.5 356 c 128,-1,48
 274 341 274 341 289 332 c 0,49,50
 330 307 330 307 348 295 c 128,-1,51
 366 283 366 283 394.5 258 c 128,-1,52
 423 233 423 233 434.5 206.5 c 128,-1,53
 446 180 446 180 446 148 c 0,54,55
 446 74 446 74 386 32 c 128,-1,56
 326 -10 326 -10 249 -10 c 0,0,1
EndSplineSet
EndChar

StartChar: T
Encoding: 84 84 55
Width: 538
GlyphClass: 2
Flags: W
AnchorPoint: "Anchor-5" 270 0 basechar 0
AnchorPoint: "Anchor-3" 270 0 basechar 0
AnchorPoint: "Anchor-2" 269 316 basechar 0
AnchorPoint: "Anchor-0" 270 620 basechar 0
LayerCount: 2
Fore
SplineSet
18 585 m 1,0,-1
 520 585 l 1,1,-1
 520 488 l 1,2,-1
 499 488 l 1,3,4
 499 542 499 542 479 551 c 1,5,-1
 315 551 l 1,6,-1
 315 41 l 1,7,8
 324 21 324 21 378 21 c 1,9,-1
 378 0 l 1,10,-1
 160 0 l 1,11,-1
 160 21 l 1,12,13
 214 21 214 21 223 41 c 1,14,-1
 223 551 l 1,15,-1
 59 551 l 1,16,17
 39 542 39 542 39 488 c 1,18,-1
 18 488 l 1,19,-1
 18 585 l 1,0,-1
EndSplineSet
EndChar

StartChar: U
Encoding: 85 85 56
Width: 618
GlyphClass: 2
Flags: W
AnchorPoint: "Anchor-5" 330 0 basechar 0
AnchorPoint: "Anchor-4" 330 0 basechar 0
AnchorPoint: "Anchor-3" 330 0 basechar 0
AnchorPoint: "Anchor-2" 330 339 basechar 0
AnchorPoint: "Anchor-0" 336 620 basechar 0
LayerCount: 2
Fore
SplineSet
338 24 m 0,0,1
 405 24 405 24 450.5 80 c 128,-1,2
 496 136 496 136 496 228 c 2,3,-1
 496 544 l 1,4,5
 487 564 487 564 433 564 c 1,6,-1
 433 585 l 1,7,-1
 593 585 l 1,8,-1
 593 564 l 1,9,10
 539 564 539 564 530 544 c 1,11,-1
 530 248 l 2,12,13
 530 118 530 118 472.5 54 c 128,-1,14
 415 -10 415 -10 328 -10 c 0,15,16
 88 -10 88 -10 88 248 c 2,17,-1
 88 544 l 1,18,19
 79 564 79 564 25 564 c 1,20,-1
 25 585 l 1,21,-1
 243 585 l 1,22,-1
 243 564 l 1,23,24
 189 564 189 564 180 544 c 1,25,-1
 180 234 l 2,26,27
 180 135 180 135 224 79.5 c 128,-1,28
 268 24 268 24 338 24 c 0,0,1
EndSplineSet
EndChar

StartChar: V
Encoding: 86 86 57
Width: 544
GlyphClass: 2
Flags: W
AnchorPoint: "Anchor-5" 271 0 basechar 0
AnchorPoint: "Anchor-3" 271 0 basechar 0
AnchorPoint: "Anchor-2" 297 440 basechar 0
AnchorPoint: "Anchor-0" 298 620 basechar 0
LayerCount: 2
Fore
SplineSet
209 585 m 1,0,-1
 209 564 l 1,1,2
 163 564 163 564 151 552 c 1,3,-1
 304 133 l 1,4,-1
 451 546 l 1,5,6
 441 564 441 564 389 564 c 1,7,-1
 389 585 l 1,8,-1
 553 585 l 1,9,-1
 553 564 l 1,10,11
 497 564 497 564 492 548 c 2,12,-1
 296 0 l 1,13,-1
 248 0 l 1,14,-1
 54 543 l 2,15,16
 46 564 46 564 -10 564 c 1,17,-1
 -10 585 l 1,18,-1
 209 585 l 1,0,-1
EndSplineSet
EndChar

StartChar: W
Encoding: 87 87 58
Width: 841
GlyphClass: 2
Flags: W
AnchorPoint: "Anchor-5" 427 0 basechar 0
AnchorPoint: "Anchor-4" 574 0 basechar 0
AnchorPoint: "Anchor-3" 427 0 basechar 0
AnchorPoint: "Anchor-2" 421 294 basechar 0
AnchorPoint: "Anchor-0" 400 620 basechar 0
LayerCount: 2
Fore
SplineSet
506 585 m 1,0,-1
 506 564 l 1,1,2
 460 564 460 564 448 552 c 1,3,-1
 601 133 l 1,4,-1
 748 546 l 1,5,6
 738 564 738 564 686 564 c 1,7,-1
 686 585 l 1,8,-1
 850 585 l 1,9,-1
 850 564 l 1,10,11
 794 564 794 564 787 543 c 2,12,-1
 593 0 l 1,13,-1
 545 0 l 1,14,-1
 420 349 l 1,15,-1
 296 0 l 1,16,-1
 248 0 l 1,17,-1
 54 543 l 2,18,19
 46 564 46 564 -10 564 c 1,20,-1
 -10 585 l 1,21,-1
 209 585 l 1,22,-1
 209 564 l 1,23,24
 163 564 163 564 151 552 c 1,25,-1
 304 134 l 1,26,-1
 400 405 l 1,27,-1
 351 543 l 2,28,29
 344 564 344 564 287 564 c 1,30,-1
 287 585 l 1,31,-1
 506 585 l 1,0,-1
EndSplineSet
EndChar

StartChar: X
Encoding: 88 88 59
Width: 519
GlyphClass: 2
Flags: W
LayerCount: 2
Fore
SplineSet
225 585 m 1,0,-1
 225 564 l 1,1,2
 178 564 178 564 167 552 c 1,3,-1
 276 361 l 1,4,-1
 395 548 l 1,5,6
 385 564 385 564 334 564 c 1,7,-1
 334 585 l 1,8,-1
 498 585 l 1,9,-1
 498 564 l 1,10,11
 449 564 449 564 438 547 c 2,12,-1
 296 326 l 1,13,-1
 459 42 l 2,14,15
 470 21 470 21 523 21 c 1,16,-1
 523 0 l 1,17,-1
 304 0 l 1,18,-1
 304 21 l 1,19,20
 351 21 351 21 362 33 c 1,21,-1
 243 242 l 1,22,-1
 111 37 l 1,23,24
 121 21 121 21 172 21 c 1,25,-1
 172 0 l 1,26,-1
 8 0 l 1,27,-1
 8 21 l 1,28,29
 58 21 58 21 72 43 c 2,30,-1
 222 277 l 1,31,-1
 70 544 l 2,32,33
 59 564 59 564 6 564 c 1,34,-1
 6 585 l 1,35,-1
 225 585 l 1,0,-1
EndSplineSet
EndChar

StartChar: Y
Encoding: 89 89 60
Width: 563
GlyphClass: 2
Flags: W
AnchorPoint: "Anchor-5" 290 0 basechar 0
AnchorPoint: "Anchor-4" 322 0 basechar 0
AnchorPoint: "Anchor-3" 292 0 basechar 0
AnchorPoint: "Anchor-2" 288 200 basechar 0
AnchorPoint: "Anchor-0" 308 620 basechar 0
LayerCount: 2
Fore
SplineSet
210 585 m 1,0,-1
 210 564 l 1,1,2
 163 564 163 564 152 552 c 1,3,-1
 307 281 l 1,4,-1
 467 546 l 1,5,6
 456 564 456 564 405 564 c 1,7,-1
 405 585 l 1,8,-1
 569 585 l 1,9,-1
 569 564 l 1,10,11
 527 564 527 564 512 551 c 1,12,-1
 332 252 l 1,13,-1
 332 41 l 1,14,15
 341 21 341 21 395 21 c 1,16,-1
 395 0 l 1,17,-1
 177 0 l 1,18,-1
 177 21 l 1,19,20
 231 21 231 21 240 41 c 1,21,-1
 240 220 l 1,22,-1
 55 544 l 1,23,24
 41 564 41 564 -9 564 c 1,25,-1
 -9 585 l 1,26,-1
 210 585 l 1,0,-1
EndSplineSet
EndChar

StartChar: Z
Encoding: 90 90 61
Width: 500
GlyphClass: 2
Flags: W
AnchorPoint: "Anchor-5" 257 0 basechar 0
AnchorPoint: "Anchor-3" 257 0 basechar 0
AnchorPoint: "Anchor-2" 235 294 basechar 0
AnchorPoint: "Anchor-0" 247 620 basechar 0
LayerCount: 2
Fore
SplineSet
449 0 m 1,0,-1
 17 0 l 1,1,-1
 335 555 l 1,2,-1
 92 555 l 1,3,4
 72 546 72 546 72 492 c 1,5,-1
 51 492 l 1,6,-1
 51 585 l 1,7,-1
 454 585 l 1,8,-1
 136 30 l 1,9,-1
 408 30 l 1,10,11
 439 43 439 43 454 96 c 1,12,-1
 475 96 l 1,13,-1
 449 0 l 1,0,-1
EndSplineSet
EndChar

StartChar: bracketleft
Encoding: 91 91 62
Width: 288
GlyphClass: 2
Flags: W
LayerCount: 2
Fore
SplineSet
154 579 m 1,0,-1
 154 -120 l 1,1,-1
 270 -120 l 1,2,-1
 270 -156 l 1,3,-1
 74 -156 l 1,4,-1
 74 615 l 1,5,-1
 270 615 l 1,6,-1
 270 579 l 1,7,-1
 154 579 l 1,0,-1
EndSplineSet
EndChar

StartChar: backslash
Encoding: 92 92 63
Width: 458
GlyphClass: 2
Flags: W
LayerCount: 2
Fore
SplineSet
438 -10 m 1,0,-1
 409 -28 l 1,1,-1
 20 594 l 1,2,-1
 49 612 l 1,3,-1
 438 -10 l 1,0,-1
EndSplineSet
EndChar

StartChar: bracketright
Encoding: 93 93 64
Width: 288
GlyphClass: 2
Flags: W
LayerCount: 2
Fore
SplineSet
134 -120 m 1,0,-1
 134 579 l 1,1,-1
 18 579 l 1,2,-1
 18 615 l 1,3,-1
 214 615 l 1,4,-1
 214 -156 l 1,5,-1
 18 -156 l 1,6,-1
 18 -120 l 1,7,-1
 134 -120 l 1,0,-1
EndSplineSet
EndChar

StartChar: asciicircum
Encoding: 94 94 65
Width: 456
GlyphClass: 2
Flags: W
LayerCount: 2
Fore
SplineSet
241 540 m 1,0,-1
 406 344 l 1,1,-1
 372 316 l 1,2,-1
 228 488 l 1,3,-1
 84 316 l 1,4,-1
 50 344 l 1,5,-1
 214 540 l 1,6,-1
 241 540 l 1,0,-1
EndSplineSet
EndChar

StartChar: underscore
Encoding: 95 95 66
Width: 448
GlyphClass: 2
Flags: W
LayerCount: 2
Fore
SplineSet
42 -50 m 1,0,-1
 406 -50 l 1,1,-1
 406 -94 l 1,2,-1
 42 -94 l 1,3,-1
 42 -50 l 1,0,-1
EndSplineSet
EndChar

StartChar: grave
Encoding: 96 96 67
Width: 300
GlyphClass: 2
Flags: W
LayerCount: 2
Fore
SplineSet
166 662 m 1,0,-1
 240 500 l 1,1,-1
 214 500 l 1,2,-1
 60 662 l 1,3,-1
 166 662 l 1,0,-1
EndSplineSet
EndChar

StartChar: a
Encoding: 97 97 68
Width: 483
GlyphClass: 2
Flags: W
AnchorPoint: "Anchor-5" 237 0 basechar 0
AnchorPoint: "Anchor-4" 412 0 basechar 0
AnchorPoint: "Anchor-3" 198 0 basechar 0
AnchorPoint: "Anchor-2" 218 118 basechar 0
AnchorPoint: "Anchor-0" 222 515 basechar 0
LayerCount: 2
Fore
SplineSet
112 366 m 1,0,1
 126 366 126 366 136.5 356 c 128,-1,2
 147 346 147 346 147 325 c 0,3,4
 147 308 147 308 133.5 299 c 128,-1,5
 120 290 120 290 102 290 c 0,6,7
 83 290 83 290 71 303.5 c 128,-1,8
 59 317 59 317 59 340 c 0,9,10
 59 392 59 392 102 421 c 128,-1,11
 145 450 145 450 224 450 c 0,12,13
 317 450 317 450 360.5 404 c 128,-1,14
 404 358 404 358 404 282 c 2,15,-1
 404 84 l 2,16,17
 404 52 404 52 414.5 37 c 128,-1,18
 425 22 425 22 440 22 c 0,19,20
 453 22 453 22 463.5 29 c 128,-1,21
 474 36 474 36 474 46 c 1,22,-1
 492 46 l 1,23,24
 492 18 492 18 471.5 5 c 128,-1,25
 451 -8 451 -8 400 -8 c 0,26,27
 350 -8 350 -8 329 33 c 1,28,29
 270 -10 270 -10 182 -10 c 0,30,31
 32 -10 32 -10 32 112 c 0,32,33
 32 138 32 138 50.5 159 c 128,-1,34
 69 180 69 180 104 194 c 128,-1,35
 139 208 139 208 170 216.5 c 128,-1,36
 201 225 201 225 247.5 235.5 c 128,-1,37
 294 246 294 246 314 252 c 1,38,39
 314 336 314 336 292 375 c 128,-1,40
 270 414 270 414 214 414 c 0,41,42
 124 414 124 414 112 366 c 1,0,1
320 58 m 1,43,44
 314 80 314 80 314 112 c 2,45,-1
 314 230 l 1,46,47
 303 226 303 226 276.5 219 c 128,-1,48
 250 212 250 212 233.5 207 c 128,-1,49
 217 202 217 202 194 192 c 128,-1,50
 171 182 171 182 158 172 c 128,-1,51
 145 162 145 162 135 145.5 c 128,-1,52
 125 129 125 129 125 110 c 0,53,54
 125 62 125 62 143.5 43 c 128,-1,55
 162 24 162 24 199 24 c 0,56,57
 265 24 265 24 320 58 c 1,43,44
EndSplineSet
EndChar

StartChar: b
Encoding: 98 98 69
Width: 538
GlyphClass: 2
Flags: W
AnchorPoint: "Anchor-5" 248 0 basechar 0
AnchorPoint: "Anchor-2" 132 510 basechar 0
AnchorPoint: "Anchor-0" 276 515 basechar 0
LayerCount: 2
Fore
SplineSet
68 559 m 1,0,1
 6 564 6 564 5 564 c 1,2,-1
 5 587 l 1,3,4
 24 587 24 587 79.5 608.5 c 128,-1,5
 135 630 135 630 158 630 c 1,6,-1
 158 407 l 1,7,8
 207 454 207 454 295 454 c 0,9,10
 328 454 328 454 360.5 442.5 c 128,-1,11
 393 431 393 431 425.5 406.5 c 128,-1,12
 458 382 458 382 478.5 334 c 128,-1,13
 499 286 499 286 499 222 c 0,14,15
 499 110 499 110 436.5 50 c 128,-1,16
 374 -10 374 -10 273 -10 c 0,17,18
 201 -10 201 -10 154 28 c 1,19,20
 99 -10 99 -10 68 -10 c 1,21,-1
 68 559 l 1,0,1
158 373 m 1,22,-1
 158 59 l 1,23,24
 198 24 198 24 267 24 c 0,25,26
 322 24 322 24 363 76.5 c 128,-1,27
 404 129 404 129 404 222 c 0,28,29
 404 310 404 310 371 365 c 128,-1,30
 338 420 338 420 285 420 c 0,31,32
 201 420 201 420 158 373 c 1,22,-1
EndSplineSet
EndChar

StartChar: c
Encoding: 99 99 70
Width: 479
GlyphClass: 2
Flags: W
AnchorPoint: "Anchor-5" 263 0 basechar 0
AnchorPoint: "Anchor-3" 263 0 basechar 0
AnchorPoint: "Anchor-0" 267 515 basechar 0
LayerCount: 2
Fore
SplineSet
272 420 m 0,0,1
 210 420 210 420 172 373 c 128,-1,2
 134 326 134 326 134 246 c 0,3,4
 134 161 134 161 181.5 94.5 c 128,-1,5
 229 28 229 28 289 28 c 0,6,7
 376 28 376 28 429 94 c 1,8,-1
 453 82 l 1,9,10
 424 34 424 34 377.5 12 c 128,-1,11
 331 -10 331 -10 255 -10 c 0,12,13
 217 -10 217 -10 182 1.5 c 128,-1,14
 147 13 147 13 113 39.5 c 128,-1,15
 79 66 79 66 59 118 c 128,-1,16
 39 170 39 170 39 242 c 0,17,18
 39 329 39 329 100.5 389.5 c 128,-1,19
 162 450 162 450 262 450 c 0,20,21
 341 450 341 450 384 423 c 128,-1,22
 427 396 427 396 427 344 c 0,23,24
 427 321 427 321 415 307.5 c 128,-1,25
 403 294 403 294 384 294 c 0,26,27
 366 294 366 294 352.5 303 c 128,-1,28
 339 312 339 312 339 329 c 0,29,30
 339 350 339 350 349.5 360 c 128,-1,31
 360 370 360 370 374 370 c 1,32,33
 361 420 361 420 272 420 c 0,0,1
EndSplineSet
EndChar

StartChar: d
Encoding: 100 100 71
Width: 537
GlyphClass: 2
Flags: W
AnchorPoint: "Anchor-5" 253 0 basechar 0
AnchorPoint: "Anchor-2" 389 508 basechar 0
AnchorPoint: "Anchor-0" 229 515 basechar 0
LayerCount: 2
Fore
SplineSet
363 430 m 1,0,-1
 363 559 l 1,1,2
 363 559 363 559 300 564 c 1,3,-1
 300 587 l 1,4,5
 319 587 319 587 374.5 608.5 c 128,-1,6
 430 630 430 630 453 630 c 1,7,-1
 453 61 l 1,8,-1
 516 56 l 1,9,-1
 516 33 l 1,10,11
 497 33 497 33 441.5 11.5 c 128,-1,12
 386 -10 386 -10 363 -10 c 1,13,-1
 363 23 l 1,14,15
 315 -10 315 -10 243 -10 c 0,16,17
 210 -10 210 -10 177.5 1.5 c 128,-1,18
 145 13 145 13 112.5 37.5 c 128,-1,19
 80 62 80 62 59.5 110 c 128,-1,20
 39 158 39 158 39 222 c 0,21,22
 39 334 39 334 101.5 394 c 128,-1,23
 164 454 164 454 265 454 c 0,24,25
 322 454 322 454 363 430 c 1,0,-1
363 399 m 1,26,27
 327 420 327 420 271 420 c 0,28,29
 216 420 216 420 175 367 c 128,-1,30
 134 314 134 314 134 222 c 0,31,32
 134 161 134 161 169.5 92.5 c 128,-1,33
 205 24 205 24 253 24 c 0,34,35
 319 24 319 24 363 56 c 1,36,-1
 363 399 l 1,26,27
EndSplineSet
EndChar

StartChar: e
Encoding: 101 101 72
Width: 493
GlyphClass: 2
Flags: W
AnchorPoint: "Anchor-5" 261 0 basechar 0
AnchorPoint: "Anchor-4" 298 0 basechar 0
AnchorPoint: "Anchor-3" 261 0 basechar 0
AnchorPoint: "Anchor-2" 249 338 basechar 0
AnchorPoint: "Anchor-0" 244 515 basechar 0
LayerCount: 2
Fore
SplineSet
134 241 m 1,0,1
 135 157 135 157 182.5 92.5 c 128,-1,2
 230 28 230 28 289 28 c 0,3,4
 376 28 376 28 429 94 c 1,5,-1
 453 82 l 1,6,7
 424 34 424 34 377.5 12 c 128,-1,8
 331 -10 331 -10 255 -10 c 0,9,10
 217 -10 217 -10 182 1.5 c 128,-1,11
 147 13 147 13 113 39.5 c 128,-1,12
 79 66 79 66 59 118 c 128,-1,13
 39 170 39 170 39 242 c 0,14,15
 39 330 39 330 93.5 390 c 128,-1,16
 148 450 148 450 245 450 c 0,17,18
 351 450 351 450 403 390.5 c 128,-1,19
 455 331 455 331 455 241 c 1,20,-1
 134 241 l 1,0,1
135 272 m 1,21,-1
 357 272 l 1,22,23
 351 344 351 344 326.5 382 c 128,-1,24
 302 420 302 420 241 420 c 0,25,26
 206 420 206 420 173.5 379 c 128,-1,27
 141 338 141 338 135 272 c 1,21,-1
EndSplineSet
EndChar

StartChar: f
Encoding: 102 102 73
Width: 271
GlyphClass: 2
Flags: W
AnchorPoint: "Anchor-0" 213 655 basechar 0
LayerCount: 2
Fore
SplineSet
332 571 m 0,0,1
 332 554 332 554 320.5 544 c 128,-1,2
 309 534 309 534 291 534 c 0,3,4
 274 534 274 534 265.5 544.5 c 128,-1,5
 257 555 257 555 255.5 567 c 128,-1,6
 254 579 254 579 246.5 589.5 c 128,-1,7
 239 600 239 600 223 600 c 0,8,9
 204 600 204 600 191.5 571 c 128,-1,10
 179 542 179 542 179 488 c 2,11,-1
 179 440 l 1,12,-1
 241 440 l 1,13,-1
 241 410 l 1,14,-1
 179 410 l 1,15,-1
 179 41 l 1,16,17
 188 21 188 21 242 21 c 1,18,-1
 242 0 l 1,19,-1
 26 0 l 1,20,-1
 26 21 l 1,21,22
 80 21 80 21 89 41 c 1,23,-1
 89 410 l 1,24,-1
 39 410 l 1,25,-1
 39 440 l 1,26,-1
 89 440 l 1,27,-1
 89 474 l 2,28,29
 89 556 89 556 123 593 c 128,-1,30
 157 630 157 630 213 630 c 0,31,32
 272 630 272 630 302 612 c 128,-1,33
 332 594 332 594 332 571 c 0,0,1
EndSplineSet
EndChar

StartChar: g
Encoding: 103 103 74
Width: 520
GlyphClass: 2
Flags: W
AnchorPoint: "Anchor-5" 240 0 basechar 0
AnchorPoint: "Anchor-2" 410 228 basechar 0
AnchorPoint: "Anchor-0" 270 515 basechar 0
LayerCount: 2
Fore
SplineSet
452 450 m 1,0,-1
 452 29 l 2,1,2
 452 -74 452 -74 402.5 -137 c 128,-1,3
 353 -200 353 -200 258 -200 c 0,4,5
 173 -200 173 -200 121.5 -171 c 128,-1,6
 70 -142 70 -142 70 -110 c 0,7,8
 70 -87 70 -87 82 -73.5 c 128,-1,9
 94 -60 94 -60 113 -60 c 0,10,11
 131 -60 131 -60 144.5 -69 c 128,-1,12
 158 -78 158 -78 158 -95 c 0,13,14
 158 -127 158 -127 133 -137 c 1,15,16
 160 -164 160 -164 248 -164 c 0,17,18
 351 -164 351 -164 361 20 c 1,19,20
 315 -10 315 -10 243 -10 c 0,21,22
 210 -10 210 -10 177.5 0.5 c 128,-1,23
 145 11 145 11 112.5 35 c 128,-1,24
 80 59 80 59 59.5 106.5 c 128,-1,25
 39 154 39 154 39 218 c 0,26,27
 39 330 39 330 101.5 390 c 128,-1,28
 164 450 164 450 265 450 c 0,29,30
 328 450 328 450 375 418 c 1,31,32
 426 450 426 450 452 450 c 1,0,-1
362 53 m 1,33,-1
 362 65 l 1,34,-1
 362 395 l 1,35,36
 326 416 326 416 271 416 c 128,-1,37
 216 416 216 416 175 363.5 c 128,-1,38
 134 311 134 311 134 218 c 0,39,40
 134 130 134 130 167 77 c 128,-1,41
 200 24 200 24 253 24 c 0,42,43
 319 24 319 24 362 53 c 1,33,-1
EndSplineSet
EndChar

StartChar: h
Encoding: 104 104 75
Width: 550
GlyphClass: 2
Flags: W
AnchorPoint: "Anchor-5" 270 0 basechar 0
AnchorPoint: "Anchor-3" 416 0 basechar 0
AnchorPoint: "Anchor-2" 159 516 basechar 0
AnchorPoint: "Anchor-0" 127 655 basechar 0
LayerCount: 2
Fore
SplineSet
21 0 m 1,0,-1
 21 21 l 1,1,2
 75 21 75 21 84 41 c 1,3,-1
 84 559 l 1,4,5
 22 564 22 564 21 564 c 1,6,-1
 21 587 l 1,7,8
 40 587 40 587 95.5 608.5 c 128,-1,9
 151 630 151 630 174 630 c 1,10,-1
 174 404 l 1,11,12
 228 450 228 450 293 450 c 0,13,14
 388 450 388 450 428.5 419 c 128,-1,15
 469 388 469 388 469 312 c 2,16,-1
 469 41 l 1,17,18
 478 21 478 21 532 21 c 1,19,-1
 532 0 l 1,20,-1
 316 0 l 1,21,-1
 316 21 l 1,22,23
 370 21 370 21 379 41 c 1,24,-1
 379 319 l 2,25,26
 379 416 379 416 287 416 c 0,27,28
 224 416 224 416 174 372 c 1,29,-1
 174 41 l 1,30,31
 183 21 183 21 237 21 c 1,32,-1
 237 0 l 1,33,-1
 21 0 l 1,0,-1
EndSplineSet
EndChar

StartChar: i
Encoding: 105 105 76
Width: 268
GlyphClass: 2
Flags: W
AnchorPoint: "Anchor-5" 134 0 basechar 0
AnchorPoint: "Anchor-4" 176 0 basechar 0
AnchorPoint: "Anchor-3" 134 0 basechar 0
AnchorPoint: "Anchor-2" 140 260 basechar 0
AnchorPoint: "Anchor-0" 136 620 basechar 0
LayerCount: 2
Fore
SplineSet
31 0 m 1,0,-1
 31 21 l 1,1,2
 85 21 85 21 94 41 c 1,3,-1
 94 379 l 1,4,5
 32 384 32 384 31 384 c 1,6,-1
 31 407 l 1,7,8
 50 407 50 407 105.5 428.5 c 128,-1,9
 161 450 161 450 184 450 c 1,10,-1
 184 41 l 1,11,12
 193 21 193 21 247 21 c 1,13,-1
 247 0 l 1,14,-1
 31 0 l 1,0,-1
136 514 m 0,15,16
 114 514 114 514 97.5 530.5 c 128,-1,17
 81 547 81 547 81 573 c 0,18,19
 81 596 81 596 95.5 613 c 128,-1,20
 110 630 110 630 133 630 c 0,21,22
 155 630 155 630 172 613 c 128,-1,23
 189 596 189 596 189 570 c 0,24,25
 189 547 189 547 174 530.5 c 128,-1,26
 159 514 159 514 136 514 c 0,15,16
EndSplineSet
EndChar

StartChar: j
Encoding: 106 106 77
Width: 243
GlyphClass: 2
Flags: W
AnchorPoint: "Anchor-0" 125 620 basechar 0
LayerCount: 2
Fore
SplineSet
127 514 m 0,0,1
 105 514 105 514 88.5 530.5 c 128,-1,2
 72 547 72 547 72 573 c 0,3,4
 72 596 72 596 86.5 613 c 128,-1,5
 101 630 101 630 124 630 c 0,6,7
 146 630 146 630 163 613 c 128,-1,8
 180 596 180 596 180 570 c 0,9,10
 180 547 180 547 165 530.5 c 128,-1,11
 150 514 150 514 127 514 c 0,0,1
85 379 m 1,12,-1
 22 384 l 1,13,-1
 22 407 l 1,14,15
 41 407 41 407 96.5 428.5 c 128,-1,16
 152 450 152 450 175 450 c 1,17,-1
 175 -44 l 2,18,19
 175 -125 175 -125 136.5 -162.5 c 128,-1,20
 98 -200 98 -200 41 -200 c 0,21,22
 -89 -200 -89 -200 -89 -113 c 0,23,24
 -89 -95 -89 -95 -75.5 -84 c 128,-1,25
 -62 -73 -62 -73 -46 -73 c 128,-1,26
 -30 -73 -30 -73 -18.5 -84 c 128,-1,27
 -7 -95 -7 -95 -7 -112 c 0,28,29
 -7 -126 -7 -126 -17 -136 c 1,30,31
 -17 -153 -17 -153 -3 -161.5 c 128,-1,32
 11 -170 11 -170 31 -170 c 128,-1,33
 51 -170 51 -170 68 -140.5 c 128,-1,34
 85 -111 85 -111 85 -58 c 2,35,-1
 85 379 l 1,12,-1
EndSplineSet
EndChar

StartChar: k
Encoding: 107 107 78
Width: 501
GlyphClass: 2
Flags: W
AnchorPoint: "Anchor-5" 266 0 basechar 0
AnchorPoint: "Anchor-3" 124 0 basechar 0
AnchorPoint: "Anchor-2" 126 260 basechar 0
AnchorPoint: "Anchor-0" 127 655 basechar 0
LayerCount: 2
Fore
SplineSet
21 0 m 1,0,-1
 21 21 l 1,1,2
 75 21 75 21 84 41 c 1,3,-1
 84 559 l 1,4,5
 22 564 22 564 21 564 c 1,6,-1
 21 587 l 1,7,8
 40 587 40 587 95.5 608.5 c 128,-1,9
 151 630 151 630 174 630 c 1,10,-1
 174 41 l 1,11,12
 183 21 183 21 237 21 c 1,13,-1
 237 0 l 1,14,-1
 21 0 l 1,0,-1
310 0 m 1,15,-1
 310 21 l 1,16,17
 334 21 334 21 348 24 c 1,18,-1
 181 254 l 1,19,-1
 358 413 l 1,20,21
 343 419 343 419 309 419 c 1,22,-1
 309 440 l 1,23,-1
 466 440 l 1,24,-1
 466 419 l 1,25,26
 429 419 429 419 412 406 c 1,27,-1
 270 279 l 1,28,-1
 442 40 l 2,29,30
 456 21 456 21 505 21 c 1,31,-1
 505 0 l 1,32,-1
 310 0 l 1,15,-1
EndSplineSet
EndChar

StartChar: l
Encoding: 108 108 79
Width: 258
GlyphClass: 2
Flags: W
AnchorPoint: "Anchor-5" 126 0 basechar 0
AnchorPoint: "Anchor-3" 126 0 basechar 0
AnchorPoint: "Anchor-2" 127 341 basechar 0
AnchorPoint: "Anchor-0" 127 655 basechar 0
LayerCount: 2
Fore
SplineSet
21 0 m 1,0,-1
 21 21 l 1,1,2
 75 21 75 21 84 41 c 1,3,-1
 84 559 l 1,4,5
 22 564 22 564 21 564 c 1,6,-1
 21 587 l 1,7,8
 40 587 40 587 95.5 608.5 c 128,-1,9
 151 630 151 630 174 630 c 1,10,-1
 174 41 l 1,11,12
 183 21 183 21 237 21 c 1,13,-1
 237 0 l 1,14,-1
 21 0 l 1,0,-1
EndSplineSet
EndChar

StartChar: m
Encoding: 109 109 80
Width: 823
GlyphClass: 2
Flags: W
AnchorPoint: "Anchor-5" 418 0 basechar 0
AnchorPoint: "Anchor-3" 418 0 basechar 0
AnchorPoint: "Anchor-2" 418 222 basechar 0
AnchorPoint: "Anchor-0" 420 515 basechar 0
LayerCount: 2
Fore
SplineSet
31 0 m 1,0,-1
 31 21 l 1,1,2
 85 21 85 21 94 41 c 1,3,-1
 94 379 l 1,4,5
 32 384 32 384 31 384 c 1,6,-1
 31 407 l 1,7,8
 50 407 50 407 105.5 428.5 c 128,-1,9
 161 450 161 450 184 450 c 1,10,-1
 184 405 l 1,11,12
 237 450 237 450 295 450 c 0,13,14
 415 450 415 450 449 392 c 1,15,16
 505 450 505 450 574 450 c 0,17,18
 742 450 742 450 742 336 c 2,19,-1
 742 41 l 1,20,21
 751 21 751 21 805 21 c 1,22,-1
 805 0 l 1,23,-1
 589 0 l 1,24,-1
 589 21 l 1,25,26
 643 21 643 21 652 41 c 1,27,-1
 652 299 l 2,28,29
 652 364 652 364 633 390 c 128,-1,30
 614 416 614 416 568 416 c 0,31,32
 509 416 509 416 459 368 c 1,33,34
 463 355 463 355 463 336 c 2,35,-1
 463 41 l 1,36,37
 472 21 472 21 526 21 c 1,38,-1
 526 0 l 1,39,-1
 310 0 l 1,40,-1
 310 21 l 1,41,42
 364 21 364 21 373 41 c 1,43,-1
 373 299 l 2,44,45
 373 364 373 364 354 390 c 128,-1,46
 335 416 335 416 289 416 c 0,47,48
 232 416 232 416 184 372 c 1,49,-1
 184 41 l 1,50,51
 193 21 193 21 247 21 c 1,52,-1
 247 0 l 1,53,-1
 31 0 l 1,0,-1
EndSplineSet
EndChar

StartChar: n
Encoding: 110 110 81
Width: 559
GlyphClass: 2
Flags: W
AnchorPoint: "Anchor-5" 284 0 basechar 0
AnchorPoint: "Anchor-3" 433 0 basechar 0
AnchorPoint: "Anchor-2" 284 222 basechar 0
AnchorPoint: "Anchor-0" 288 516 basechar 0
LayerCount: 2
Fore
SplineSet
31 0 m 1,0,-1
 31 21 l 1,1,2
 85 21 85 21 94 41 c 1,3,-1
 94 379 l 1,4,5
 32 384 32 384 31 384 c 1,6,-1
 31 407 l 1,7,8
 50 407 50 407 105.5 428.5 c 128,-1,9
 161 450 161 450 184 450 c 1,10,-1
 184 404 l 1,11,12
 238 450 238 450 303 450 c 0,13,14
 396 450 396 450 437.5 415.5 c 128,-1,15
 479 381 479 381 479 308 c 2,16,-1
 479 41 l 1,17,18
 488 21 488 21 542 21 c 1,19,-1
 542 0 l 1,20,-1
 326 0 l 1,21,-1
 326 21 l 1,22,23
 380 21 380 21 389 41 c 1,24,-1
 389 315 l 2,25,26
 389 416 389 416 297 416 c 0,27,28
 234 416 234 416 184 372 c 1,29,-1
 184 41 l 1,30,31
 193 21 193 21 247 21 c 1,32,-1
 247 0 l 1,33,-1
 31 0 l 1,0,-1
EndSplineSet
EndChar

StartChar: o
Encoding: 111 111 82
Width: 545
GlyphClass: 2
Flags: W
AnchorPoint: "Anchor-5" 280 0 basechar 0
AnchorPoint: "Anchor-4" 280 0 basechar 0
AnchorPoint: "Anchor-3" 280 0 basechar 0
AnchorPoint: "Anchor-2" 272 230 basechar 0
AnchorPoint: "Anchor-1" 428 313 basechar 0
AnchorPoint: "Anchor-0" 274 515 basechar 0
LayerCount: 2
Fore
SplineSet
135 248 m 0,0,1
 135 134 135 134 178.5 77 c 128,-1,2
 222 20 222 20 290 20 c 0,3,4
 344 20 344 20 377 68.5 c 128,-1,5
 410 117 410 117 410 193 c 0,6,7
 410 419 410 419 253 419 c 0,8,9
 200 419 200 419 167.5 368.5 c 128,-1,10
 135 318 135 318 135 248 c 0,0,1
277 -10 m 0,11,12
 165 -10 165 -10 102 55.5 c 128,-1,13
 39 121 39 121 39 228 c 0,14,15
 39 325 39 325 96 387.5 c 128,-1,16
 153 450 153 450 270 450 c 0,17,18
 388 450 388 450 447 387.5 c 128,-1,19
 506 325 506 325 506 216 c 0,20,21
 506 119 506 119 449.5 54.5 c 128,-1,22
 393 -10 393 -10 277 -10 c 0,11,12
EndSplineSet
EndChar

StartChar: p
Encoding: 112 112 83
Width: 538
GlyphClass: 2
Flags: W
AnchorPoint: "Anchor-5" 297 0 basechar 0
AnchorPoint: "Anchor-2" 132 218 basechar 0
AnchorPoint: "Anchor-0" 291 515 basechar 0
LayerCount: 2
Fore
SplineSet
22 -192 m 1,0,-1
 22 -171 l 1,1,2
 76 -171 76 -171 85 -151 c 1,3,-1
 85 379 l 1,4,5
 85 379 85 379 22 384 c 1,6,-1
 22 407 l 1,7,8
 41 407 41 407 96.5 428.5 c 128,-1,9
 152 450 152 450 175 450 c 1,10,-1
 175 417 l 1,11,12
 223 450 223 450 295 450 c 0,13,14
 328 450 328 450 360.5 438.5 c 128,-1,15
 393 427 393 427 425.5 402.5 c 128,-1,16
 458 378 458 378 478.5 330 c 128,-1,17
 499 282 499 282 499 218 c 0,18,19
 499 107 499 107 437 48.5 c 128,-1,20
 375 -10 375 -10 273 -10 c 0,21,22
 215 -10 215 -10 175 12 c 1,23,-1
 175 -151 l 1,24,25
 184 -171 184 -171 238 -171 c 1,26,-1
 238 -192 l 1,27,-1
 22 -192 l 1,0,-1
175 44 m 1,28,29
 213 24 213 24 267 24 c 0,30,31
 322 24 322 24 363 75 c 128,-1,32
 404 126 404 126 404 218 c 0,33,34
 404 279 404 279 368.5 347.5 c 128,-1,35
 333 416 333 416 285 416 c 0,36,37
 216 416 216 416 175 384 c 1,38,-1
 175 44 l 1,28,29
EndSplineSet
EndChar

StartChar: q
Encoding: 113 113 84
Width: 523
GlyphClass: 2
Flags: W
LayerCount: 2
Fore
SplineSet
302 -192 m 1,0,-1
 302 -171 l 1,1,2
 356 -171 356 -171 365 -151 c 1,3,-1
 365 23 l 1,4,5
 317 -10 317 -10 243 -10 c 0,6,7
 210 -10 210 -10 177.5 0.5 c 128,-1,8
 145 11 145 11 112.5 35 c 128,-1,9
 80 59 80 59 59.5 106.5 c 128,-1,10
 39 154 39 154 39 218 c 0,11,12
 39 330 39 330 101.5 390 c 128,-1,13
 164 450 164 450 265 450 c 0,14,15
 332 450 332 450 377 417 c 1,16,17
 429 450 429 450 455 450 c 1,18,-1
 455 -151 l 1,19,20
 464 -171 464 -171 518 -171 c 1,21,-1
 518 -192 l 1,22,-1
 302 -192 l 1,0,-1
365 55 m 1,23,-1
 365 393 l 1,24,25
 329 416 329 416 271 416 c 0,26,27
 216 416 216 416 175 363.5 c 128,-1,28
 134 311 134 311 134 218 c 0,29,30
 134 130 134 130 167 77 c 128,-1,31
 200 24 200 24 253 24 c 0,32,33
 322 24 322 24 365 55 c 1,23,-1
EndSplineSet
EndChar

StartChar: r
Encoding: 114 114 85
Width: 395
GlyphClass: 2
Flags: W
AnchorPoint: "Anchor-5" 141 0 basechar 0
AnchorPoint: "Anchor-0" 243 515 basechar 0
LayerCount: 2
Fore
SplineSet
31 0 m 1,0,-1
 31 21 l 1,1,2
 85 21 85 21 94 41 c 1,3,-1
 94 379 l 1,4,5
 32 384 32 384 31 384 c 1,6,-1
 31 407 l 1,7,8
 50 407 50 407 105.5 428.5 c 128,-1,9
 161 450 161 450 184 450 c 1,10,-1
 184 406 l 1,11,12
 234 450 234 450 283 450 c 0,13,14
 328 450 328 450 358.5 433 c 128,-1,15
 389 416 389 416 389 395 c 0,16,17
 389 359 389 359 349 359 c 0,18,19
 328 359 328 359 311 387.5 c 128,-1,20
 294 416 294 416 272 416 c 0,21,22
 233 416 233 416 184 373 c 1,23,-1
 184 41 l 1,24,25
 193 21 193 21 247 21 c 1,26,-1
 247 0 l 1,27,-1
 31 0 l 1,0,-1
EndSplineSet
EndChar

StartChar: s
Encoding: 115 115 86
Width: 405
GlyphClass: 2
Flags: W
AnchorPoint: "Anchor-5" 176 0 basechar 0
AnchorPoint: "Anchor-3" 176 0 basechar 0
AnchorPoint: "Anchor-2" 215 230 basechar 0
AnchorPoint: "Anchor-0" 203 515 basechar 0
LayerCount: 2
Fore
SplineSet
207 20 m 0,0,1
 235 20 235 20 268.5 38 c 128,-1,2
 302 56 302 56 302 92 c 0,3,4
 302 150 302 150 183 192 c 0,5,6
 154 202 154 202 135.5 211 c 128,-1,7
 117 220 117 220 95 236 c 128,-1,8
 73 252 73 252 62 275 c 128,-1,9
 51 298 51 298 51 329 c 0,10,11
 51 385 51 385 92 417.5 c 128,-1,12
 133 450 133 450 191 450 c 0,13,14
 225 450 225 450 260.5 435 c 128,-1,15
 296 420 296 420 301 420 c 0,16,17
 313 420 313 420 313 440 c 1,18,-1
 336 440 l 1,19,-1
 336 320 l 1,20,-1
 314 320 l 1,21,22
 308 362 308 362 273.5 391 c 128,-1,23
 239 420 239 420 194 420 c 0,24,25
 162 420 162 420 140.5 405 c 128,-1,26
 119 390 119 390 119 364 c 0,27,28
 119 349 119 349 125 336.5 c 128,-1,29
 131 324 131 324 137 316.5 c 128,-1,30
 143 309 143 309 159.5 300 c 128,-1,31
 176 291 176 291 184.5 287.5 c 128,-1,32
 193 284 193 284 215.5 276 c 128,-1,33
 238 268 238 268 246 265 c 0,34,35
 298 245 298 245 335 208.5 c 128,-1,36
 372 172 372 172 372 124 c 0,37,38
 372 63 372 63 323 26.5 c 128,-1,39
 274 -10 274 -10 199 -10 c 0,40,41
 163 -10 163 -10 129 7 c 128,-1,42
 95 24 95 24 91 24 c 0,43,44
 85 24 85 24 77 16 c 128,-1,45
 69 8 69 8 69 0 c 1,46,-1
 45 0 l 1,47,-1
 45 141 l 1,48,-1
 67 141 l 1,49,50
 74 90 74 90 114.5 55 c 128,-1,51
 155 20 155 20 207 20 c 0,0,1
EndSplineSet
EndChar

StartChar: t
Encoding: 116 116 87
Width: 333
GlyphClass: 2
Flags: W
AnchorPoint: "Anchor-5" 184 0 basechar 0
AnchorPoint: "Anchor-3" 184 0 basechar 0
AnchorPoint: "Anchor-0" 158 620 basechar 0
LayerCount: 2
Fore
SplineSet
180 585 m 1,0,-1
 180 440 l 1,1,-1
 266 440 l 1,2,-1
 266 410 l 1,3,-1
 180 410 l 1,4,-1
 180 92 l 2,5,6
 180 61 180 61 191 44.5 c 128,-1,7
 202 28 202 28 232 28 c 0,8,9
 250 28 250 28 268.5 45.5 c 128,-1,10
 287 63 287 63 294 94 c 1,11,-1
 318 82 l 1,12,13
 297 -10 297 -10 198 -10 c 0,14,15
 84 -10 84 -10 84 100 c 2,16,-1
 84 410 l 1,17,-1
 14 410 l 1,18,-1
 14 440 l 1,19,20
 61 440 61 440 99 479 c 128,-1,21
 137 518 137 518 137 585 c 1,22,-1
 180 585 l 1,0,-1
EndSplineSet
EndChar

StartChar: u
Encoding: 117 117 88
Width: 550
GlyphClass: 2
Flags: W
AnchorPoint: "Anchor-5" 275 0 basechar 0
AnchorPoint: "Anchor-4" 388 0 basechar 0
AnchorPoint: "Anchor-3" 263 0 basechar 0
AnchorPoint: "Anchor-2" 270 246 basechar 0
AnchorPoint: "Anchor-1" 461 313 basechar 0
AnchorPoint: "Anchor-0" 271 515 basechar 0
LayerCount: 2
Fore
SplineSet
465 61 m 1,0,1
 465 61 465 61 528 56 c 1,2,-1
 528 33 l 1,3,4
 509 33 509 33 453.5 11.5 c 128,-1,5
 398 -10 398 -10 375 -10 c 1,6,-1
 375 36 l 1,7,8
 321 -10 321 -10 256 -10 c 0,9,10
 163 -10 163 -10 121.5 24.5 c 128,-1,11
 80 59 80 59 80 132 c 2,12,-1
 80 399 l 1,13,14
 71 419 71 419 17 419 c 1,15,-1
 17 440 l 1,16,-1
 170 440 l 1,17,-1
 170 125 l 2,18,19
 170 24 170 24 262 24 c 0,20,21
 325 24 325 24 375 68 c 1,22,-1
 375 399 l 1,23,24
 366 419 366 419 312 419 c 1,25,-1
 312 440 l 1,26,-1
 465 440 l 1,27,-1
 465 61 l 1,0,1
EndSplineSet
EndChar

StartChar: v
Encoding: 118 118 89
Width: 483
GlyphClass: 2
Flags: W
AnchorPoint: "Anchor-5" 240 0 basechar 0
AnchorPoint: "Anchor-0" 262 515 basechar 0
LayerCount: 2
Fore
SplineSet
189 440 m 1,0,-1
 189 419 l 1,1,2
 160 419 160 419 147 415 c 1,3,-1
 266 122 l 1,4,-1
 380 408 l 1,5,6
 366 419 366 419 324 419 c 1,7,-1
 324 440 l 1,8,-1
 488 440 l 1,9,-1
 488 419 l 1,10,11
 433 419 433 419 426 400 c 2,12,-1
 266 0 l 1,13,-1
 217 0 l 1,14,-1
 58 399 l 2,15,16
 49 419 49 419 -5 419 c 1,17,-1
 -5 440 l 1,18,-1
 189 440 l 1,0,-1
EndSplineSet
EndChar

StartChar: w
Encoding: 119 119 90
Width: 760
GlyphClass: 2
Flags: W
AnchorPoint: "Anchor-5" 384 0 basechar 0
AnchorPoint: "Anchor-0" 377 515 basechar 0
LayerCount: 2
Fore
SplineSet
189 440 m 1,0,-1
 189 419 l 1,1,2
 160 419 160 419 147 415 c 1,3,-1
 266 122 l 1,4,-1
 356 347 l 1,5,-1
 335 399 l 2,6,7
 326 419 326 419 272 419 c 1,8,-1
 272 440 l 1,9,-1
 466 440 l 1,10,-1
 466 419 l 1,11,12
 437 419 437 419 424 415 c 1,13,-1
 543 122 l 1,14,-1
 657 408 l 1,15,16
 643 419 643 419 601 419 c 1,17,-1
 601 440 l 1,18,-1
 765 440 l 1,19,-1
 765 419 l 1,20,21
 711 419 711 419 703 400 c 2,22,-1
 543 0 l 1,23,-1
 494 0 l 1,24,-1
 380 286 l 1,25,-1
 266 0 l 1,26,-1
 217 0 l 1,27,-1
 58 399 l 2,28,29
 49 419 49 419 -5 419 c 1,30,-1
 -5 440 l 1,31,-1
 189 440 l 1,0,-1
EndSplineSet
EndChar

StartChar: x
Encoding: 120 120 91
Width: 467
GlyphClass: 2
Flags: W
LayerCount: 2
Fore
SplineSet
438 440 m 1,0,-1
 438 419 l 1,1,2
 386 419 386 419 371 400 c 1,3,-1
 273 254 l 1,4,-1
 406 40 l 2,5,6
 417 21 417 21 468 21 c 1,7,-1
 468 0 l 1,8,-1
 274 0 l 1,9,-1
 274 21 l 1,10,11
 298 21 298 21 312 24 c 1,12,-1
 219 174 l 1,13,-1
 121 28 l 1,14,15
 134 21 134 21 171 21 c 1,16,-1
 171 0 l 1,17,-1
 7 0 l 1,18,-1
 7 21 l 1,19,20
 60 21 60 21 75 42 c 2,21,-1
 192 216 l 1,22,-1
 76 403 l 2,23,24
 66 419 66 419 17 419 c 1,25,-1
 17 440 l 1,26,-1
 211 440 l 1,27,-1
 211 419 l 1,28,29
 187 419 187 419 172 416 c 1,30,-1
 246 296 l 1,31,-1
 324 412 l 1,32,33
 311 419 311 419 274 419 c 1,34,-1
 274 440 l 1,35,-1
 438 440 l 1,0,-1
EndSplineSet
EndChar

StartChar: y
Encoding: 121 121 92
Width: 483
GlyphClass: 2
Flags: W
AnchorPoint: "Anchor-5" 304 0 basechar 0
AnchorPoint: "Anchor-4" 338 0 basechar 0
AnchorPoint: "Anchor-0" 260 515 basechar 0
LayerCount: 2
Fore
SplineSet
189 440 m 1,0,-1
 189 419 l 1,1,2
 160 419 160 419 147 415 c 1,3,-1
 266 122 l 1,4,-1
 380 408 l 1,5,6
 366 419 366 419 324 419 c 1,7,-1
 324 440 l 1,8,-1
 488 440 l 1,9,-1
 488 419 l 1,10,11
 434 419 434 419 426 401 c 2,12,-1
 225 -102 l 2,13,14
 206 -149 206 -149 176.5 -170.5 c 128,-1,15
 147 -192 147 -192 120 -192 c 0,16,17
 95 -192 95 -192 80.5 -179 c 128,-1,18
 66 -166 66 -166 66 -148 c 0,19,20
 66 -133 66 -133 76.5 -121 c 128,-1,21
 87 -109 87 -109 105 -109 c 0,22,23
 116 -109 116 -109 128 -117.5 c 128,-1,24
 140 -126 140 -126 146 -126 c 0,25,26
 167 -126 167 -126 174 -108 c 2,27,-1
 217 0 l 1,28,-1
 58 399 l 2,29,30
 49 419 49 419 -5 419 c 1,31,-1
 -5 440 l 1,32,-1
 189 440 l 1,0,-1
EndSplineSet
EndChar

StartChar: z
Encoding: 122 122 93
Width: 425
GlyphClass: 2
Flags: W
AnchorPoint: "Anchor-5" 210 -1 basechar 0
AnchorPoint: "Anchor-3" 210 -1 basechar 0
AnchorPoint: "Anchor-2" 215 235 basechar 0
AnchorPoint: "Anchor-0" 216 514 basechar 0
LayerCount: 2
Fore
SplineSet
387 0 m 1,0,-1
 17 0 l 1,1,-1
 282 410 l 1,2,-1
 90 410 l 1,3,4
 70 401 70 401 70 347 c 1,5,-1
 49 347 l 1,6,-1
 49 440 l 1,7,-1
 395 440 l 1,8,-1
 130 30 l 1,9,-1
 346 30 l 1,10,11
 366 39 366 39 366 93 c 1,12,-1
 387 93 l 1,13,-1
 387 0 l 1,0,-1
EndSplineSet
EndChar

StartChar: braceleft
Encoding: 123 123 94
Width: 262
GlyphClass: 2
Flags: W
LayerCount: 2
Fore
SplineSet
88 -61 m 0,0,1
 88 -35 88 -35 92.5 49.5 c 128,-1,2
 97 134 97 134 97 150 c 0,3,4
 97 184 97 184 79 196.5 c 128,-1,5
 61 209 61 209 22 209 c 1,6,-1
 22 232 l 1,7,8
 60 232 60 232 78.5 245 c 128,-1,9
 97 258 97 258 97 292 c 0,10,11
 97 308 97 308 92.5 392 c 128,-1,12
 88 476 88 476 88 502 c 0,13,14
 88 594 88 594 234 594 c 1,15,-1
 234 571 l 1,16,17
 195 571 195 571 176 558 c 128,-1,18
 157 545 157 545 157 511 c 0,19,20
 157 495 157 495 162.5 411 c 128,-1,21
 168 327 168 327 168 301 c 0,22,23
 168 242 168 242 108 221 c 1,24,25
 168 200 168 200 168 141 c 0,26,27
 168 115 168 115 162.5 30.5 c 128,-1,28
 157 -54 157 -54 157 -70 c 0,29,30
 157 -104 157 -104 176 -116.5 c 128,-1,31
 195 -129 195 -129 234 -129 c 1,32,-1
 234 -153 l 1,33,34
 88 -153 88 -153 88 -61 c 0,0,1
EndSplineSet
EndChar

StartChar: bar
Encoding: 124 124 95
Width: 188
GlyphClass: 2
Flags: W
LayerCount: 2
Fore
SplineSet
76 650 m 1,0,-1
 112 650 l 1,1,-1
 112 -30 l 1,2,-1
 76 -30 l 1,3,-1
 76 650 l 1,0,-1
EndSplineSet
EndChar

StartChar: braceright
Encoding: 125 125 96
Width: 262
GlyphClass: 2
Flags: W
LayerCount: 2
Fore
SplineSet
174 502 m 0,0,1
 174 476 174 476 169.5 391.5 c 128,-1,2
 165 307 165 307 165 291 c 0,3,4
 165 257 165 257 183 244.5 c 128,-1,5
 201 232 201 232 240 232 c 1,6,-1
 240 209 l 1,7,8
 202 209 202 209 183.5 196 c 128,-1,9
 165 183 165 183 165 149 c 0,10,11
 165 133 165 133 169.5 49 c 128,-1,12
 174 -35 174 -35 174 -61 c 0,13,14
 174 -153 174 -153 28 -153 c 1,15,-1
 28 -130 l 1,16,17
 67 -130 67 -130 86 -117 c 128,-1,18
 105 -104 105 -104 105 -70 c 0,19,20
 105 -54 105 -54 99.5 30 c 128,-1,21
 94 114 94 114 94 140 c 0,22,23
 94 199 94 199 154 220 c 1,24,25
 94 241 94 241 94 300 c 0,26,27
 94 326 94 326 99.5 410.5 c 128,-1,28
 105 495 105 495 105 511 c 0,29,30
 105 545 105 545 86 557.5 c 128,-1,31
 67 570 67 570 28 570 c 1,32,-1
 28 594 l 1,33,34
 174 594 174 594 174 502 c 0,0,1
EndSplineSet
EndChar

StartChar: asciitilde
Encoding: 126 126 97
Width: 545
GlyphClass: 2
Flags: W
LayerCount: 2
Fore
SplineSet
386 208 m 0,0,1
 357 208 357 208 263.5 242.5 c 128,-1,2
 170 277 170 277 152 277 c 0,3,4
 114 277 114 277 100 260 c 128,-1,5
 86 243 86 243 86 208 c 1,6,-1
 60 208 l 1,7,8
 60 340 60 340 162 340 c 0,9,10
 191 340 191 340 285 305.5 c 128,-1,11
 379 271 379 271 397 271 c 0,12,13
 435 271 435 271 449 288 c 128,-1,14
 463 305 463 305 463 340 c 1,15,-1
 489 340 l 1,16,17
 489 208 489 208 386 208 c 0,0,1
EndSplineSet
EndChar

StartChar: exclamdown
Encoding: 161 161 99
Width: 233
GlyphClass: 2
Flags: W
LayerCount: 2
Fore
SplineSet
176 469 m 128,-1,1
 176 445 176 445 159.5 425.5 c 128,-1,2
 143 406 143 406 117 406 c 0,3,4
 94 406 94 406 75 424 c 128,-1,5
 56 442 56 442 56 466 c 128,-1,6
 56 490 56 490 73 510 c 128,-1,7
 90 530 90 530 116 530 c 0,8,9
 139 530 139 530 157.5 511.5 c 128,-1,0
 176 493 176 493 176 469 c 128,-1,1
117 334 m 128,-1,11
 132 334 132 334 140 266 c 0,12,13
 143 247 143 247 154.5 109 c 128,-1,14
 166 -29 166 -29 166 -65 c 0,15,16
 166 -87 166 -87 152.5 -98.5 c 128,-1,17
 139 -110 139 -110 117 -110 c 128,-1,18
 95 -110 95 -110 81.5 -98.5 c 128,-1,19
 68 -87 68 -87 68 -65 c 0,20,21
 68 -29 68 -29 79.5 110 c 128,-1,22
 91 249 91 249 94 266 c 0,23,10
 102 334 102 334 117 334 c 128,-1,11
EndSplineSet
EndChar

StartChar: cent
Encoding: 162 162 100
Width: 473
GlyphClass: 2
Flags: W
LayerCount: 2
Fore
SplineSet
290 573 m 1,0,-1
 326 566 l 1,1,-1
 305 447 l 1,2,3
 419 431 419 431 419 344 c 0,4,5
 419 321 419 321 407 307.5 c 128,-1,6
 395 294 395 294 376 294 c 0,7,8
 358 294 358 294 344.5 303 c 128,-1,9
 331 312 331 312 331 329 c 0,10,11
 331 350 331 350 341.5 360 c 128,-1,12
 352 370 352 370 366 370 c 1,13,14
 355 410 355 410 300 418 c 1,15,-1
 234 40 l 1,16,17
 256 28 256 28 281 28 c 0,18,19
 368 28 368 28 421 94 c 1,20,-1
 445 82 l 1,21,22
 416 34 416 34 369.5 12 c 128,-1,23
 323 -10 323 -10 247 -10 c 0,24,25
 232 -10 232 -10 225 -9 c 1,26,-1
 204 -128 l 1,27,-1
 167 -121 l 1,28,-1
 188 -3 l 1,29,30
 120 14 120 14 75.5 72.5 c 128,-1,31
 31 131 31 131 31 242 c 0,32,33
 31 329 31 329 92.5 389.5 c 128,-1,34
 154 450 154 450 254 450 c 2,35,-1
 268 450 l 1,36,-1
 290 573 l 1,0,-1
200 64 m 1,37,-1
 263 420 l 1,38,39
 202 419 202 419 164 372 c 128,-1,40
 126 325 126 325 126 246 c 0,41,42
 126 193 126 193 146.5 144 c 128,-1,43
 167 95 167 95 200 64 c 1,37,-1
EndSplineSet
EndChar

StartChar: sterling
Encoding: 163 163 101
Width: 533
GlyphClass: 2
Flags: W
LayerCount: 2
Fore
SplineSet
343 72 m 0,0,1
 387 72 387 72 418.5 81 c 128,-1,2
 450 90 450 90 462.5 101 c 128,-1,3
 475 112 475 112 483.5 121 c 128,-1,4
 492 130 492 130 494 130 c 0,5,6
 504 130 504 130 504 118 c 0,7,8
 504 113 504 113 499.5 100.5 c 128,-1,9
 495 88 495 88 482.5 69 c 128,-1,10
 470 50 470 50 453.5 33 c 128,-1,11
 437 16 437 16 408.5 4 c 128,-1,12
 380 -8 380 -8 347 -8 c 0,13,14
 284 -8 284 -8 223 45 c 1,15,16
 186 -10 186 -10 129 -10 c 0,17,18
 80 -10 80 -10 54.5 17 c 128,-1,19
 29 44 29 44 29 82 c 0,20,21
 29 110 29 110 56.5 136 c 128,-1,22
 84 162 84 162 113 162 c 0,23,24
 143 162 143 162 173 147 c 1,25,-1
 173 152 l 2,26,27
 173 182 173 182 165.5 242.5 c 128,-1,28
 158 303 158 303 157 345 c 1,29,-1
 89 345 l 1,30,-1
 89 389 l 1,31,-1
 157 389 l 1,32,33
 161 497 161 497 196.5 546 c 128,-1,34
 232 595 232 595 300 595 c 0,35,36
 366 595 366 595 408 572 c 128,-1,37
 450 549 450 549 450 508 c 0,38,39
 450 490 450 490 436.5 479 c 128,-1,40
 423 468 423 468 407 468 c 128,-1,41
 391 468 391 468 379.5 479 c 128,-1,42
 368 490 368 490 368 507 c 0,43,44
 368 521 368 521 378 531 c 1,45,46
 378 547 378 547 355.5 556 c 128,-1,47
 333 565 333 565 310 565 c 0,48,49
 248 565 248 565 247 389 c 1,50,-1
 353 389 l 1,51,-1
 353 345 l 1,52,-1
 248 345 l 1,53,54
 249 321 249 321 253 267.5 c 128,-1,55
 257 214 257 214 257 178 c 0,56,57
 257 134 257 134 247 100 c 1,58,59
 294 72 294 72 343 72 c 0,0,1
170 96 m 1,60,61
 138 128 138 128 113 128 c 0,62,63
 94 128 94 128 78.5 114 c 128,-1,64
 63 100 63 100 63 81 c 0,65,66
 63 56 63 56 80.5 40 c 128,-1,67
 98 24 98 24 125 24 c 0,68,69
 161 24 161 24 170 96 c 1,60,61
EndSplineSet
EndChar

StartChar: currency
Encoding: 164 164 102
Width: 511
GlyphClass: 2
Flags: W
LayerCount: 2
Fore
SplineSet
113 262 m 128,-1,1
 113 203 113 203 155 161 c 128,-1,2
 197 119 197 119 256 119 c 128,-1,3
 315 119 315 119 357 161 c 128,-1,4
 399 203 399 203 399 262 c 128,-1,5
 399 321 399 321 357 363 c 128,-1,6
 315 405 315 405 256 405 c 128,-1,7
 197 405 197 405 155 363 c 128,-1,0
 113 321 113 321 113 262 c 128,-1,1
107 147 m 1,8,9
 68 199 68 199 68 262 c 0,10,11
 68 327 68 327 109 379 c 1,12,-1
 53 434 l 1,13,-1
 85 466 l 1,14,-1
 140 410 l 1,15,16
 191 450 191 450 256 450 c 0,17,18
 319 450 319 450 371 411 c 1,19,-1
 425 466 l 1,20,-1
 457 434 l 1,21,-1
 403 380 l 1,22,23
 444 330 444 330 444 262 c 0,24,25
 444 197 444 197 404 146 c 1,26,-1
 457 94 l 1,27,-1
 425 62 l 1,28,-1
 373 115 l 1,29,30
 321 74 321 74 256 74 c 0,31,32
 188 74 188 74 138 115 c 1,33,-1
 85 62 l 1,34,-1
 53 94 l 1,35,-1
 107 147 l 1,8,9
EndSplineSet
EndChar

StartChar: yen
Encoding: 165 165 103
Width: 541
GlyphClass: 2
Flags: W
LayerCount: 2
Fore
SplineSet
218 585 m 1,0,-1
 218 564 l 1,1,2
 189 564 189 564 176 560 c 1,3,-1
 295 267 l 1,4,-1
 409 553 l 1,5,6
 395 564 395 564 353 564 c 1,7,-1
 353 585 l 1,8,-1
 517 585 l 1,9,-1
 517 564 l 1,10,11
 462 564 462 564 455 545 c 2,12,-1
 325 220 l 1,13,-1
 404 220 l 1,14,-1
 404 176 l 1,15,-1
 319 176 l 1,16,-1
 319 120 l 1,17,-1
 404 120 l 1,18,-1
 404 76 l 1,19,-1
 319 76 l 1,20,-1
 319 41 l 1,21,22
 328 21 328 21 382 21 c 1,23,-1
 382 0 l 1,24,-1
 164 0 l 1,25,-1
 164 21 l 1,26,27
 218 21 218 21 227 41 c 1,28,-1
 227 76 l 1,29,-1
 140 76 l 1,30,-1
 140 120 l 1,31,-1
 227 120 l 1,32,-1
 227 176 l 1,33,-1
 140 176 l 1,34,-1
 140 220 l 1,35,-1
 216 220 l 1,36,-1
 87 544 l 2,37,38
 78 564 78 564 24 564 c 1,39,-1
 24 585 l 1,40,-1
 218 585 l 1,0,-1
EndSplineSet
EndChar

StartChar: brokenbar
Encoding: 166 166 104
Width: 192
GlyphClass: 2
Flags: W
LayerCount: 2
Fore
SplineSet
78 650 m 1,0,-1
 114 650 l 1,1,-1
 114 362 l 1,2,-1
 78 362 l 1,3,-1
 78 650 l 1,0,-1
78 258 m 1,4,-1
 114 258 l 1,5,-1
 114 -30 l 1,6,-1
 78 -30 l 1,7,-1
 78 258 l 1,4,-1
EndSplineSet
EndChar

StartChar: section
Encoding: 167 167 105
Width: 410
GlyphClass: 2
Flags: W
LayerCount: 2
Fore
SplineSet
310 458 m 0,0,1
 296 458 296 458 285 469 c 128,-1,2
 274 480 274 480 274 494 c 0,3,4
 274 524 274 524 258 550 c 128,-1,5
 242 576 242 576 215 576 c 0,6,7
 142 576 142 576 142 516 c 0,8,9
 142 496 142 496 177.5 455 c 128,-1,10
 213 414 213 414 256 373.5 c 128,-1,11
 299 333 299 333 334.5 283.5 c 128,-1,12
 370 234 370 234 370 198 c 0,13,14
 370 75 370 75 272 42 c 1,15,16
 344 -28 344 -28 344 -84 c 0,17,18
 344 -123 344 -123 298.5 -155.5 c 128,-1,19
 253 -188 253 -188 187 -188 c 0,20,21
 142 -188 142 -188 104 -152.5 c 128,-1,22
 66 -117 66 -117 66 -90 c 0,23,24
 66 -74 66 -74 75 -62 c 128,-1,25
 84 -50 84 -50 100 -50 c 0,26,27
 114 -50 114 -50 125 -61 c 128,-1,28
 136 -72 136 -72 136 -86 c 0,29,30
 136 -116 136 -116 152 -142 c 128,-1,31
 168 -168 168 -168 195 -168 c 0,32,33
 268 -168 268 -168 268 -108 c 0,34,35
 268 -88 268 -88 232.5 -47 c 128,-1,36
 197 -6 197 -6 154 34.5 c 128,-1,37
 111 75 111 75 75.5 124.5 c 128,-1,38
 40 174 40 174 40 210 c 0,39,40
 40 333 40 333 138 366 c 1,41,42
 66 436 66 436 66 492 c 0,43,44
 66 531 66 531 111.5 563.5 c 128,-1,45
 157 596 157 596 223 596 c 0,46,47
 268 596 268 596 306 560.5 c 128,-1,48
 344 525 344 525 344 498 c 0,49,50
 344 482 344 482 335 470 c 128,-1,51
 326 458 326 458 310 458 c 0,0,1
244 69 m 1,52,53
 310 89 310 89 310 140 c 0,54,55
 310 154 310 154 306 168 c 128,-1,56
 302 182 302 182 297.5 193.5 c 128,-1,57
 293 205 293 205 281.5 220 c 128,-1,58
 270 235 270 235 263.5 244 c 128,-1,59
 257 253 257 253 240.5 269 c 128,-1,60
 224 285 224 285 217 291.5 c 128,-1,61
 210 298 210 298 190.5 316 c 128,-1,62
 171 334 171 334 166 339 c 1,63,64
 100 319 100 319 100 268 c 0,65,66
 100 254 100 254 104 240 c 128,-1,67
 108 226 108 226 112.5 214.5 c 128,-1,68
 117 203 117 203 128.5 188 c 128,-1,69
 140 173 140 173 146.5 164 c 128,-1,70
 153 155 153 155 169.5 139 c 128,-1,71
 186 123 186 123 193 116.5 c 128,-1,72
 200 110 200 110 219.5 92 c 128,-1,73
 239 74 239 74 244 69 c 1,52,53
EndSplineSet
EndChar

StartChar: dieresis
Encoding: 168 168 106
Width: 402
GlyphClass: 2
Flags: W
LayerCount: 2
Fore
SplineSet
244 549 m 128,-1,1
 244 569 244 569 258.5 583.5 c 128,-1,2
 273 598 273 598 293 598 c 128,-1,3
 313 598 313 598 327.5 583.5 c 128,-1,4
 342 569 342 569 342 549 c 128,-1,5
 342 529 342 529 327.5 514.5 c 128,-1,6
 313 500 313 500 293 500 c 128,-1,7
 273 500 273 500 258.5 514.5 c 128,-1,0
 244 529 244 529 244 549 c 128,-1,1
60 549 m 128,-1,9
 60 569 60 569 74.5 583.5 c 128,-1,10
 89 598 89 598 109 598 c 128,-1,11
 129 598 129 598 143.5 583.5 c 128,-1,12
 158 569 158 569 158 549 c 128,-1,13
 158 529 158 529 143.5 514.5 c 128,-1,14
 129 500 129 500 109 500 c 128,-1,15
 89 500 89 500 74.5 514.5 c 128,-1,8
 60 529 60 529 60 549 c 128,-1,9
EndSplineSet
EndChar

StartChar: copyright
Encoding: 169 169 107
Width: 641
GlyphClass: 2
Flags: W
LayerCount: 2
Fore
SplineSet
72 268 m 128,-1,1
 72 165 72 165 145 92 c 128,-1,2
 218 19 218 19 321 19 c 128,-1,3
 424 19 424 19 497 92 c 128,-1,4
 570 165 570 165 570 268 c 128,-1,5
 570 371 570 371 497 444 c 128,-1,6
 424 517 424 517 321 517 c 128,-1,7
 218 517 218 517 145 444 c 128,-1,0
 72 371 72 371 72 268 c 128,-1,1
45 268 m 128,-1,9
 45 382 45 382 126 463 c 128,-1,10
 207 544 207 544 321 544 c 128,-1,11
 435 544 435 544 516 463 c 128,-1,12
 597 382 597 382 597 268 c 128,-1,13
 597 154 597 154 516 73 c 128,-1,14
 435 -8 435 -8 321 -8 c 128,-1,15
 207 -8 207 -8 126 73 c 128,-1,8
 45 154 45 154 45 268 c 128,-1,9
333 402 m 0,16,17
 292 402 292 402 265.5 367.5 c 128,-1,18
 239 333 239 333 239 279 c 0,19,20
 239 214 239 214 267.5 178.5 c 128,-1,21
 296 143 296 143 335 143 c 0,22,23
 361 143 361 143 383.5 161 c 128,-1,24
 406 179 406 179 414 199 c 1,25,-1
 435 189 l 1,26,27
 407 116 407 116 325 116 c 0,28,29
 256 116 256 116 216.5 161 c 128,-1,30
 177 206 177 206 177 268 c 0,31,32
 177 341 177 341 223.5 385 c 128,-1,33
 270 429 270 429 333 429 c 0,34,35
 346 429 346 429 358.5 425.5 c 128,-1,36
 371 422 371 422 379 418 c 128,-1,37
 387 414 387 414 388 414 c 128,-1,38
 389 414 389 414 389 424 c 1,39,-1
 411 424 l 1,40,-1
 416 350 l 1,41,-1
 396 350 l 1,42,43
 386 402 386 402 333 402 c 0,16,17
EndSplineSet
EndChar

StartChar: ordfeminine
Encoding: 170 170 108
Width: 363
GlyphClass: 2
Flags: W
LayerCount: 2
Fore
SplineSet
64 155 m 1,0,-1
 304 155 l 1,1,-1
 304 129 l 1,2,-1
 64 129 l 1,3,-1
 64 155 l 1,0,-1
116 412 m 1,4,5
 132 408 132 408 132 387 c 0,6,7
 132 365 132 365 104 365 c 0,8,9
 91 365 91 365 84.5 374 c 128,-1,10
 78 383 78 383 78 395 c 0,11,12
 78 425 78 425 101.5 440 c 128,-1,13
 125 455 125 455 165 455 c 0,14,15
 214 455 214 455 237 430 c 128,-1,16
 260 405 260 405 260 366 c 2,17,-1
 260 267 l 2,18,19
 260 241 260 241 273 241 c 0,20,21
 285 241 285 241 285 253 c 1,22,-1
 304 253 l 1,23,24
 304 232 304 232 292.5 224 c 128,-1,25
 281 216 281 216 253 216 c 0,26,27
 228 216 228 216 216 234 c 1,28,29
 185 215 185 215 144 215 c 0,30,31
 64 215 64 215 64 281 c 0,32,33
 64 296 64 296 73.5 307.5 c 128,-1,34
 83 319 83 319 101.5 326.5 c 128,-1,35
 120 334 120 334 135 338.5 c 128,-1,36
 150 343 150 343 174 348 c 128,-1,37
 198 353 198 353 205 355 c 1,38,39
 204 396 204 396 194.5 411.5 c 128,-1,40
 185 427 185 427 160 427 c 0,41,42
 125 427 125 427 116 412 c 1,4,5
207 256 m 1,43,44
 205 267 205 267 205 281 c 2,45,-1
 205 333 l 1,46,47
 201 332 201 332 192 329.5 c 128,-1,48
 183 327 183 327 178 325.5 c 128,-1,49
 173 324 173 324 165 321.5 c 128,-1,50
 157 319 157 319 152.5 316.5 c 128,-1,51
 148 314 148 314 142 311 c 128,-1,52
 136 308 136 308 133 305 c 128,-1,53
 130 302 130 302 126.5 298 c 128,-1,54
 123 294 123 294 121.5 289.5 c 128,-1,55
 120 285 120 285 120 280 c 0,56,57
 120 257 120 257 128 249.5 c 128,-1,58
 136 242 136 242 152 242 c 0,59,60
 181 242 181 242 207 256 c 1,43,44
EndSplineSet
EndChar

StartChar: guillemotleft
Encoding: 171 171 109
Width: 437
GlyphClass: 2
Flags: W
LayerCount: 2
Fore
SplineSet
52 324 m 2,0,-1
 214 418 l 1,1,-1
 214 392 l 1,2,-1
 127 299 l 1,3,-1
 214 206 l 1,4,-1
 214 180 l 1,5,-1
 52 274 l 2,6,7
 39 281 39 281 39 299 c 128,-1,8
 39 317 39 317 52 324 c 2,0,-1
212 324 m 2,9,-1
 374 418 l 1,10,-1
 374 392 l 1,11,-1
 287 299 l 1,12,-1
 374 206 l 1,13,-1
 374 180 l 1,14,-1
 212 274 l 2,15,16
 199 281 199 281 199 299 c 128,-1,17
 199 317 199 317 212 324 c 2,9,-1
EndSplineSet
EndChar

StartChar: logicalnot
Encoding: 172 172 110
Width: 424
GlyphClass: 2
Flags: W
LayerCount: 2
Fore
SplineSet
315 296 m 1,0,-1
 65 296 l 1,1,-1
 65 340 l 1,2,-1
 357 340 l 1,3,-1
 357 208 l 1,4,-1
 315 208 l 1,5,-1
 315 296 l 1,0,-1
EndSplineSet
EndChar

StartChar: uni00AD
Encoding: 173 173 111
Width: 388
GlyphClass: 2
Flags: W
LayerCount: 2
Fore
SplineSet
62 340 m 1,0,-1
 326 340 l 1,1,-1
 326 296 l 1,2,-1
 62 296 l 1,3,-1
 62 340 l 1,0,-1
EndSplineSet
EndChar

StartChar: registered
Encoding: 174 174 112
Width: 641
GlyphClass: 2
Flags: W
LayerCount: 2
Fore
SplineSet
72 268 m 128,-1,1
 72 165 72 165 145 92 c 128,-1,2
 218 19 218 19 321 19 c 128,-1,3
 424 19 424 19 497 92 c 128,-1,4
 570 165 570 165 570 268 c 128,-1,5
 570 371 570 371 497 444 c 128,-1,6
 424 517 424 517 321 517 c 128,-1,7
 218 517 218 517 145 444 c 128,-1,0
 72 371 72 371 72 268 c 128,-1,1
45 268 m 128,-1,9
 45 382 45 382 126 463 c 128,-1,10
 207 544 207 544 321 544 c 128,-1,11
 435 544 435 544 516 463 c 128,-1,12
 597 382 597 382 597 268 c 128,-1,13
 597 154 597 154 516 73 c 128,-1,14
 435 -8 435 -8 321 -8 c 128,-1,15
 207 -8 207 -8 126 73 c 128,-1,8
 45 154 45 154 45 268 c 128,-1,9
189 122 m 1,16,-1
 189 142 l 1,17,18
 215 142 215 142 220 149 c 1,19,-1
 220 398 l 1,20,21
 217 404 217 404 189 404 c 1,22,-1
 189 424 l 1,23,-1
 307 424 l 2,24,25
 371 424 371 424 404 400.5 c 128,-1,26
 437 377 437 377 437 346 c 0,27,28
 437 286 437 286 374 264 c 1,29,-1
 438 150 l 1,30,31
 441 142 441 142 471 142 c 1,32,-1
 471 122 l 1,33,-1
 445 122 l 2,34,35
 409 122 409 122 397 127 c 128,-1,36
 385 132 385 132 374 151 c 2,37,-1
 315 255 l 1,38,-1
 276 255 l 1,39,-1
 276 149 l 1,40,41
 279 142 279 142 307 142 c 1,42,-1
 307 122 l 1,43,-1
 189 122 l 1,16,-1
276 398 m 1,44,-1
 276 282 l 1,45,-1
 313 282 l 2,46,47
 352 282 352 282 364.5 295.5 c 128,-1,48
 377 309 377 309 377 345 c 0,49,50
 377 371 377 371 362 384.5 c 128,-1,51
 347 398 347 398 307 398 c 2,52,-1
 276 398 l 1,44,-1
EndSplineSet
EndChar

StartChar: macron
Encoding: 175 175 113
Width: 384
GlyphClass: 2
Flags: W
LayerCount: 2
Fore
SplineSet
60 558 m 1,0,-1
 324 558 l 1,1,-1
 324 514 l 1,2,-1
 60 514 l 1,3,-1
 60 558 l 1,0,-1
EndSplineSet
EndChar

StartChar: degree
Encoding: 176 176 114
Width: 312
GlyphClass: 2
Flags: W
LayerCount: 2
Fore
SplineSet
83 516 m 128,-1,1
 83 486 83 486 104.5 465 c 128,-1,2
 126 444 126 444 156 444 c 128,-1,3
 186 444 186 444 207.5 465 c 128,-1,4
 229 486 229 486 229 516 c 128,-1,5
 229 546 229 546 207.5 567.5 c 128,-1,6
 186 589 186 589 156 589 c 128,-1,7
 126 589 126 589 104.5 567.5 c 128,-1,0
 83 546 83 546 83 516 c 128,-1,1
42 516 m 128,-1,9
 42 562 42 562 76 596 c 128,-1,10
 110 630 110 630 156 630 c 128,-1,11
 202 630 202 630 236 596 c 128,-1,12
 270 562 270 562 270 516 c 128,-1,13
 270 470 270 470 236.5 436.5 c 128,-1,14
 203 403 203 403 156 403 c 128,-1,15
 109 403 109 403 75.5 436.5 c 128,-1,8
 42 470 42 470 42 516 c 128,-1,9
EndSplineSet
EndChar

StartChar: plusminus
Encoding: 177 177 115
Width: 416
GlyphClass: 2
Flags: W
LayerCount: 2
Fore
SplineSet
65 178 m 1,0,-1
 351 178 l 1,1,-1
 351 134 l 1,2,-1
 65 134 l 1,3,-1
 65 178 l 1,0,-1
230 348 m 1,4,-1
 230 247 l 1,5,-1
 186 247 l 1,6,-1
 186 348 l 1,7,-1
 65 348 l 1,8,-1
 65 392 l 1,9,-1
 186 392 l 1,10,-1
 186 493 l 1,11,-1
 230 493 l 1,12,-1
 230 392 l 1,13,-1
 351 392 l 1,14,-1
 351 348 l 1,15,-1
 230 348 l 1,4,-1
EndSplineSet
EndChar

StartChar: uni00B2
Encoding: 178 178 116
Width: 360
GlyphClass: 2
Flags: W
LayerCount: 2
Fore
SplineSet
263 336 m 1,0,1
 289 346 289 346 301 379 c 1,2,-1
 323 379 l 1,3,-1
 295 280 l 1,4,-1
 36 280 l 1,5,-1
 36 285 l 2,6,7
 36 297 36 297 66 326.5 c 128,-1,8
 96 356 96 356 132.5 388 c 128,-1,9
 169 420 169 420 199 465 c 128,-1,10
 229 510 229 510 229 548 c 0,11,12
 229 575 229 575 212.5 592.5 c 128,-1,13
 196 610 196 610 166 610 c 0,14,15
 131 610 131 610 108.5 600 c 128,-1,16
 86 590 86 590 79 578 c 128,-1,17
 72 566 72 566 65.5 556 c 128,-1,18
 59 546 59 546 53 546 c 0,19,20
 43 546 43 546 43 557 c 0,21,22
 43 583 43 583 77.5 621.5 c 128,-1,23
 112 660 112 660 174 660 c 0,24,25
 241 660 241 660 272.5 632.5 c 128,-1,26
 304 605 304 605 304 557 c 0,27,28
 304 522 304 522 266.5 475.5 c 128,-1,29
 229 429 229 429 181.5 386 c 128,-1,30
 134 343 134 343 129 336 c 1,31,-1
 263 336 l 1,0,1
EndSplineSet
EndChar

StartChar: uni00B3
Encoding: 179 179 117
Width: 354
GlyphClass: 2
Flags: W
LayerCount: 2
Fore
SplineSet
152 460 m 0,0,1
 145 460 145 460 139.5 464 c 128,-1,2
 134 468 134 468 134 473 c 0,3,4
 134 482 134 482 142 482 c 1,5,6
 195 498 195 498 209 512 c 0,7,8
 226 528 226 528 226 554 c 128,-1,9
 226 580 226 580 208 595 c 128,-1,10
 190 610 190 610 158 610 c 0,11,12
 129 610 129 610 111 601.5 c 128,-1,13
 93 593 93 593 87.5 583.5 c 128,-1,14
 82 574 82 574 76.5 565.5 c 128,-1,15
 71 557 71 557 65 557 c 0,16,17
 55 557 55 557 55 569 c 0,18,19
 55 593 55 593 84.5 626.5 c 128,-1,20
 114 660 114 660 166 660 c 0,21,22
 293 660 293 660 293 563 c 0,23,24
 293 520 293 520 244 491 c 1,25,26
 274 479 274 479 292.5 455 c 128,-1,27
 311 431 311 431 311 402 c 0,28,29
 311 344 311 344 279.5 310 c 128,-1,30
 248 276 248 276 168 276 c 0,31,32
 131 276 131 276 99 288 c 128,-1,33
 67 300 67 300 52 313.5 c 128,-1,34
 37 327 37 327 37 336 c 0,35,36
 37 359 37 359 43 368 c 128,-1,37
 49 377 49 377 65 377 c 0,38,39
 76 377 76 377 83.5 366 c 128,-1,40
 91 355 91 355 96 341.5 c 128,-1,41
 101 328 101 328 118 317 c 128,-1,42
 135 306 135 306 164 306 c 0,43,44
 246 306 246 306 246 388 c 0,45,46
 246 416 246 416 230.5 440 c 128,-1,47
 215 464 215 464 185 464 c 0,48,49
 177 464 177 464 167.5 462 c 128,-1,50
 158 460 158 460 152 460 c 0,0,1
EndSplineSet
EndChar

StartChar: acute
Encoding: 180 180 118
Width: 300
GlyphClass: 2
Flags: W
LayerCount: 2
Fore
SplineSet
134 662 m 1,0,-1
 240 662 l 1,1,-1
 86 500 l 1,2,-1
 60 500 l 1,3,-1
 134 662 l 1,0,-1
EndSplineSet
EndChar

StartChar: uni00B5
Encoding: 181 181 119
Width: 580
GlyphClass: 2
Flags: W
LayerCount: 2
Fore
SplineSet
468 440 m 1,0,-1
 468 83 l 2,1,2
 468 51 468 51 478.5 35.5 c 128,-1,3
 489 20 489 20 504 20 c 0,4,5
 517 20 517 20 527.5 27.5 c 128,-1,6
 538 35 538 35 538 45 c 1,7,-1
 556 45 l 1,8,9
 556 16 556 16 535 3 c 128,-1,10
 514 -10 514 -10 464 -10 c 0,11,12
 398 -10 398 -10 383 61 c 1,13,14
 325 -10 325 -10 245 -10 c 0,15,16
 160 -10 160 -10 119 24 c 1,17,-1
 119 -33 l 2,18,19
 119 -62 119 -62 129.5 -80 c 128,-1,20
 140 -98 140 -98 152 -104.5 c 128,-1,21
 164 -111 164 -111 174.5 -123.5 c 128,-1,22
 185 -136 185 -136 185 -155 c 0,23,24
 185 -177 185 -177 170 -188.5 c 128,-1,25
 155 -200 155 -200 135 -200 c 0,26,27
 114 -200 114 -200 95.5 -184.5 c 128,-1,28
 77 -169 77 -169 77 -134 c 2,29,-1
 77 440 l 1,30,-1
 167 440 l 1,31,-1
 167 125 l 2,32,33
 167 24 167 24 259 24 c 0,34,35
 322 24 322 24 378 96 c 1,36,-1
 378 111 l 1,37,-1
 378 440 l 1,38,-1
 468 440 l 1,0,-1
EndSplineSet
EndChar

StartChar: paragraph
Encoding: 182 182 120
Width: 532
GlyphClass: 2
Flags: W
LayerCount: 2
Fore
SplineSet
127 0 m 1,0,-1
 127 21 l 1,1,2
 181 21 181 21 190 41 c 1,3,-1
 190 268 l 1,4,5
 114 275 114 275 72 318 c 128,-1,6
 30 361 30 361 30 426 c 0,7,8
 30 453 30 453 41.5 479.5 c 128,-1,9
 53 506 53 506 77 530.5 c 128,-1,10
 101 555 101 555 145.5 570 c 128,-1,11
 190 585 190 585 248 585 c 2,12,-1
 488 585 l 1,13,-1
 488 564 l 1,14,15
 434 564 434 564 425 544 c 1,16,-1
 425 41 l 1,17,18
 434 21 434 21 488 21 c 1,19,-1
 488 0 l 1,20,-1
 333 0 l 1,21,-1
 333 551 l 1,22,-1
 282 551 l 1,23,-1
 282 0 l 1,24,-1
 127 0 l 1,0,-1
EndSplineSet
EndChar

StartChar: periodcentered
Encoding: 183 183 121
Width: 228
GlyphClass: 2
Flags: W
LayerCount: 2
Fore
SplineSet
54 301 m 128,-1,1
 54 325 54 325 70.5 344.5 c 128,-1,2
 87 364 87 364 113 364 c 0,3,4
 136 364 136 364 155 346 c 128,-1,5
 174 328 174 328 174 304 c 128,-1,6
 174 280 174 280 157 260 c 128,-1,7
 140 240 140 240 114 240 c 0,8,9
 91 240 91 240 72.5 258.5 c 128,-1,0
 54 277 54 277 54 301 c 128,-1,1
EndSplineSet
EndChar

StartChar: cedilla
Encoding: 184 184 122
Width: 304
GlyphClass: 2
Flags: W
LayerCount: 2
Fore
SplineSet
124 12 m 1,0,-1
 162 12 l 1,1,-1
 144 -55 l 1,2,3
 176 -55 176 -55 210 -71.5 c 128,-1,4
 244 -88 244 -88 244 -122 c 0,5,6
 244 -199 244 -199 134 -199 c 0,7,8
 101 -199 101 -199 60 -192 c 1,9,-1
 60 -175 l 1,10,11
 78 -177 78 -177 85 -177 c 0,12,13
 123 -177 123 -177 140 -162.5 c 128,-1,14
 157 -148 157 -148 157 -130 c 0,15,16
 157 -86 157 -86 96 -86 c 1,17,-1
 124 12 l 1,0,-1
EndSplineSet
EndChar

StartChar: uni00B9
Encoding: 185 185 123
Width: 242
GlyphClass: 2
Flags: W
LayerCount: 2
Fore
SplineSet
40 508 m 1,0,1
 43 514 43 514 57.5 539.5 c 128,-1,2
 72 565 72 565 81 580 c 128,-1,3
 90 595 90 595 103 615 c 128,-1,4
 116 635 116 635 125.5 645 c 128,-1,5
 135 655 135 655 141 655 c 2,6,-1
 159 655 l 1,7,-1
 159 313 l 1,8,9
 164 303 164 303 202 303 c 1,10,-1
 202 280 l 1,11,-1
 46 280 l 1,12,-1
 46 303 l 1,13,14
 82 303 82 303 88 313 c 1,15,-1
 88 530 l 1,16,17
 81 526 81 526 57 499 c 1,18,-1
 40 508 l 1,0,1
EndSplineSet
EndChar

StartChar: ordmasculine
Encoding: 186 186 124
Width: 367
GlyphClass: 2
Flags: W
LayerCount: 2
Fore
SplineSet
62 155 m 1,0,-1
 305 155 l 1,1,-1
 305 129 l 1,2,-1
 62 129 l 1,3,-1
 62 155 l 1,0,-1
120 349 m 0,4,5
 120 292 120 292 140 266 c 128,-1,6
 160 240 160 240 192 240 c 0,7,8
 217 240 217 240 232 262.5 c 128,-1,9
 247 285 247 285 247 321 c 0,10,11
 247 429 247 429 174 429 c 0,12,13
 150 429 150 429 135 405 c 128,-1,14
 120 381 120 381 120 349 c 0,4,5
186 215 m 0,15,16
 127 215 127 215 94.5 249.5 c 128,-1,17
 62 284 62 284 62 339 c 0,18,19
 62 390 62 390 92 422.5 c 128,-1,20
 122 455 122 455 182 455 c 0,21,22
 244 455 244 455 274.5 421.5 c 128,-1,23
 305 388 305 388 305 333 c 0,24,25
 305 282 305 282 275.5 248.5 c 128,-1,26
 246 215 246 215 186 215 c 0,15,16
EndSplineSet
EndChar

StartChar: guillemotright
Encoding: 187 187 125
Width: 437
GlyphClass: 2
Flags: W
LayerCount: 2
Fore
SplineSet
225 274 m 2,0,-1
 63 180 l 1,1,-1
 63 206 l 1,2,-1
 150 299 l 1,3,-1
 63 392 l 1,4,-1
 63 418 l 1,5,-1
 225 324 l 2,6,7
 238 317 238 317 238 299 c 128,-1,8
 238 281 238 281 225 274 c 2,0,-1
385 274 m 2,9,-1
 223 180 l 1,10,-1
 223 206 l 1,11,-1
 310 299 l 1,12,-1
 223 392 l 1,13,-1
 223 418 l 1,14,-1
 385 324 l 2,15,16
 398 317 398 317 398 299 c 128,-1,17
 398 281 398 281 385 274 c 2,9,-1
EndSplineSet
EndChar

StartChar: onequarter
Encoding: 188 188 126
Width: 650
GlyphClass: 2
Flags: W
LayerCount: 2
Fore
SplineSet
104 -10 m 1,0,-1
 493 612 l 1,1,-1
 522 594 l 1,2,-1
 133 -28 l 1,3,-1
 104 -10 l 1,0,-1
566 375 m 1,4,-1
 566 134 l 1,5,-1
 621 134 l 1,6,-1
 621 105 l 1,7,-1
 566 105 l 1,8,-1
 566 33 l 1,9,10
 572 23 572 23 608 23 c 1,11,-1
 608 0 l 1,12,-1
 454 0 l 1,13,-1
 454 23 l 1,14,15
 491 23 491 23 496 33 c 1,16,-1
 496 105 l 1,17,-1
 335 105 l 1,18,-1
 524 375 l 1,19,-1
 566 375 l 1,4,-1
496 134 m 1,20,-1
 496 284 l 1,21,-1
 391 134 l 1,22,-1
 496 134 l 1,20,-1
34 508 m 1,23,24
 37 514 37 514 51.5 539.5 c 128,-1,25
 66 565 66 565 75 580 c 128,-1,26
 84 595 84 595 97 615 c 128,-1,27
 110 635 110 635 119.5 645 c 128,-1,28
 129 655 129 655 135 655 c 2,29,-1
 153 655 l 1,30,-1
 153 313 l 1,31,32
 158 303 158 303 196 303 c 1,33,-1
 196 280 l 1,34,-1
 40 280 l 1,35,-1
 40 303 l 1,36,37
 76 303 76 303 82 313 c 1,38,-1
 82 530 l 1,39,40
 75 526 75 526 51 499 c 1,41,-1
 34 508 l 1,23,24
EndSplineSet
EndChar

StartChar: onehalf
Encoding: 189 189 127
Width: 678
GlyphClass: 2
Flags: W
LayerCount: 2
Fore
SplineSet
82 -10 m 1,0,-1
 471 612 l 1,1,-1
 500 594 l 1,2,-1
 111 -28 l 1,3,-1
 82 -10 l 1,0,-1
589 56 m 1,4,5
 615 66 615 66 627 99 c 1,6,-1
 649 99 l 1,7,-1
 621 0 l 1,8,-1
 362 0 l 1,9,-1
 362 5 l 2,10,11
 362 17 362 17 392 46.5 c 128,-1,12
 422 76 422 76 458.5 108 c 128,-1,13
 495 140 495 140 525 185 c 128,-1,14
 555 230 555 230 555 268 c 0,15,16
 555 295 555 295 538.5 312.5 c 128,-1,17
 522 330 522 330 492 330 c 0,18,19
 457 330 457 330 434.5 320 c 128,-1,20
 412 310 412 310 405 298 c 128,-1,21
 398 286 398 286 391.5 276 c 128,-1,22
 385 266 385 266 379 266 c 0,23,24
 369 266 369 266 369 277 c 0,25,26
 369 303 369 303 403.5 341.5 c 128,-1,27
 438 380 438 380 500 380 c 0,28,29
 567 380 567 380 598.5 352.5 c 128,-1,30
 630 325 630 325 630 277 c 0,31,32
 630 242 630 242 592.5 195.5 c 128,-1,33
 555 149 555 149 507.5 106 c 128,-1,34
 460 63 460 63 455 56 c 1,35,-1
 589 56 l 1,4,5
36 508 m 1,36,37
 39 514 39 514 53.5 539.5 c 128,-1,38
 68 565 68 565 77 580 c 128,-1,39
 86 595 86 595 99 615 c 128,-1,40
 112 635 112 635 121.5 645 c 128,-1,41
 131 655 131 655 137 655 c 2,42,-1
 155 655 l 1,43,-1
 155 313 l 1,44,45
 160 303 160 303 198 303 c 1,46,-1
 198 280 l 1,47,-1
 42 280 l 1,48,-1
 42 303 l 1,49,50
 78 303 78 303 84 313 c 1,51,-1
 84 530 l 1,52,53
 77 526 77 526 53 499 c 1,54,-1
 36 508 l 1,36,37
EndSplineSet
EndChar

StartChar: threequarters
Encoding: 190 190 128
Width: 687
GlyphClass: 2
Flags: W
LayerCount: 2
Fore
SplineSet
150 -10 m 1,0,-1
 539 612 l 1,1,-1
 568 594 l 1,2,-1
 179 -28 l 1,3,-1
 150 -10 l 1,0,-1
602 375 m 1,4,-1
 602 134 l 1,5,-1
 657 134 l 1,6,-1
 657 105 l 1,7,-1
 602 105 l 1,8,-1
 602 33 l 1,9,10
 608 23 608 23 644 23 c 1,11,-1
 644 0 l 1,12,-1
 490 0 l 1,13,-1
 490 23 l 1,14,15
 527 23 527 23 532 33 c 1,16,-1
 532 105 l 1,17,-1
 371 105 l 1,18,-1
 560 375 l 1,19,-1
 602 375 l 1,4,-1
532 134 m 1,20,-1
 532 284 l 1,21,-1
 427 134 l 1,22,-1
 532 134 l 1,20,-1
144 460 m 0,23,24
 137 460 137 460 131.5 464 c 128,-1,25
 126 468 126 468 126 473 c 0,26,27
 126 482 126 482 134 482 c 1,28,29
 187 498 187 498 201 512 c 0,30,31
 218 528 218 528 218 554 c 128,-1,32
 218 580 218 580 200 595 c 128,-1,33
 182 610 182 610 150 610 c 0,34,35
 121 610 121 610 103 601.5 c 128,-1,36
 85 593 85 593 79.5 583.5 c 128,-1,37
 74 574 74 574 68.5 565.5 c 128,-1,38
 63 557 63 557 57 557 c 0,39,40
 47 557 47 557 47 569 c 0,41,42
 47 593 47 593 76.5 626.5 c 128,-1,43
 106 660 106 660 158 660 c 0,44,45
 285 660 285 660 285 563 c 0,46,47
 285 520 285 520 236 491 c 1,48,49
 266 479 266 479 284.5 455 c 128,-1,50
 303 431 303 431 303 402 c 0,51,52
 303 344 303 344 271.5 310 c 128,-1,53
 240 276 240 276 160 276 c 0,54,55
 123 276 123 276 91 288 c 128,-1,56
 59 300 59 300 44 313.5 c 128,-1,57
 29 327 29 327 29 336 c 0,58,59
 29 359 29 359 35 368 c 128,-1,60
 41 377 41 377 57 377 c 0,61,62
 68 377 68 377 75.5 366 c 128,-1,63
 83 355 83 355 88 341.5 c 128,-1,64
 93 328 93 328 110 317 c 128,-1,65
 127 306 127 306 156 306 c 0,66,67
 238 306 238 306 238 388 c 0,68,69
 238 416 238 416 222.5 440 c 128,-1,70
 207 464 207 464 177 464 c 0,71,72
 169 464 169 464 159.5 462 c 128,-1,73
 150 460 150 460 144 460 c 0,23,24
EndSplineSet
EndChar

StartChar: questiondown
Encoding: 191 191 129
Width: 394
GlyphClass: 2
Flags: W
LayerCount: 2
Fore
SplineSet
272 469 m 128,-1,1
 272 445 272 445 255.5 425.5 c 128,-1,2
 239 406 239 406 213 406 c 0,3,4
 190 406 190 406 171 424 c 128,-1,5
 152 442 152 442 152 466 c 128,-1,6
 152 490 152 490 169 510 c 128,-1,7
 186 530 186 530 212 530 c 0,8,9
 235 530 235 530 253.5 511.5 c 128,-1,0
 272 493 272 493 272 469 c 128,-1,1
227 320 m 0,10,11
 227 282 227 282 210.5 245.5 c 128,-1,12
 194 209 194 209 174.5 183.5 c 128,-1,13
 155 158 155 158 138.5 119.5 c 128,-1,14
 122 81 122 81 122 40 c 0,15,16
 122 -23 122 -23 144 -51.5 c 128,-1,17
 166 -80 166 -80 217 -80 c 0,18,19
 255 -80 255 -80 280 -57 c 128,-1,20
 305 -34 305 -34 305 -9 c 0,21,22
 305 3 305 3 297.5 16.5 c 128,-1,23
 290 30 290 30 290 41 c 0,24,25
 290 56 290 56 299.5 65.5 c 128,-1,26
 309 75 309 75 323 75 c 0,27,28
 340 75 340 75 352.5 62.5 c 128,-1,29
 365 50 365 50 365 24 c 0,30,31
 365 -27 365 -27 324 -68.5 c 128,-1,32
 283 -110 283 -110 207 -110 c 0,33,34
 115 -110 115 -110 73.5 -62.5 c 128,-1,35
 32 -15 32 -15 32 45 c 0,36,37
 32 84 32 84 58.5 125.5 c 128,-1,38
 85 167 85 167 116.5 196.5 c 128,-1,39
 148 226 148 226 174.5 260 c 128,-1,40
 201 294 201 294 201 320 c 0,41,42
 201 325 201 325 205.5 329.5 c 128,-1,43
 210 334 210 334 214 334 c 128,-1,44
 218 334 218 334 222.5 329.5 c 128,-1,45
 227 325 227 325 227 320 c 0,10,11
EndSplineSet
EndChar

StartChar: AE
Encoding: 198 198 136
Width: 757
GlyphClass: 2
Flags: W
AnchorPoint: "Anchor-0" 404 620 basechar 0
LayerCount: 2
Fore
SplineSet
142 0 m 1,0,-1
 -22 0 l 1,1,-1
 -22 21 l 1,2,3
 29 21 29 21 41 41 c 2,4,-1
 328 553 l 1,5,6
 316 564 316 564 271 564 c 1,7,-1
 271 585 l 1,8,-1
 695 585 l 1,9,-1
 695 488 l 1,10,-1
 674 488 l 1,11,12
 674 542 674 542 654 551 c 1,13,-1
 447 551 l 1,14,-1
 447 321 l 1,15,-1
 587 321 l 1,16,17
 607 330 607 330 607 384 c 1,18,-1
 628 384 l 1,19,-1
 628 224 l 1,20,-1
 607 224 l 1,21,22
 607 278 607 278 587 287 c 1,23,-1
 447 287 l 1,24,-1
 447 34 l 1,25,-1
 675 34 l 1,26,27
 700 45 700 45 720 97 c 1,28,-1
 740 97 l 1,29,-1
 716 0 l 1,30,-1
 292 0 l 1,31,-1
 292 21 l 1,32,33
 346 21 346 21 355 41 c 1,34,-1
 355 186 l 1,35,-1
 162 186 l 1,36,-1
 80 39 l 1,37,38
 90 21 90 21 142 21 c 1,39,-1
 142 0 l 1,0,-1
181 219 m 1,40,-1
 355 219 l 1,41,-1
 355 530 l 1,42,-1
 181 219 l 1,40,-1
EndSplineSet
EndChar

StartChar: Ccedilla
Encoding: 199 199 137
Width: 564
GlyphClass: 2
Flags: W
LayerCount: 2
Fore
SplineSet
348 561 m 1,0,-1
 347 562 l 1,1,2
 261 562 261 562 204 491 c 128,-1,3
 147 420 147 420 147 307 c 0,4,5
 147 175 147 175 207 100 c 128,-1,6
 267 25 267 25 351 25 c 0,7,8
 401 25 401 25 450 59.5 c 128,-1,9
 499 94 499 94 513 133 c 1,10,-1
 537 121 l 1,11,12
 485 -4 485 -4 343 -9 c 1,13,-1
 331 -54 l 1,14,15
 363 -54 363 -54 397 -70.5 c 128,-1,16
 431 -87 431 -87 431 -121 c 0,17,18
 431 -198 431 -198 321 -198 c 0,19,20
 288 -198 288 -198 247 -191 c 1,21,-1
 247 -174 l 1,22,23
 265 -176 265 -176 272 -176 c 0,24,25
 310 -176 310 -176 327 -161.5 c 128,-1,26
 344 -147 344 -147 344 -129 c 0,27,28
 344 -85 344 -85 283 -85 c 1,29,-1
 305 -8 l 1,30,31
 224 -2 224 -2 163.5 41 c 128,-1,32
 103 84 103 84 73.5 147 c 128,-1,33
 44 210 44 210 44 284 c 0,34,35
 44 424 44 424 133.5 509.5 c 128,-1,36
 223 595 223 595 347 595 c 0,37,38
 376 595 376 595 414 580 c 128,-1,39
 452 565 452 565 458 565 c 0,40,41
 470 565 470 565 470 585 c 1,42,-1
 493 585 l 1,43,-1
 503 458 l 1,44,-1
 481 458 l 1,45,46
 474 503 474 503 441.5 532 c 128,-1,47
 409 561 409 561 348 561 c 1,0,-1
EndSplineSet
EndChar

StartChar: Eth
Encoding: 208 208 146
Width: 607
GlyphClass: 2
Flags: W
LayerCount: 2
Fore
SplineSet
38 -1 m 1,0,-1
 38 20 l 1,1,2
 92 20 92 20 101 40 c 1,3,-1
 101 154 l 2,4,5
 101 291 101 291 177 369 c 128,-1,6
 253 447 253 447 426 457 c 1,7,8
 399 506 399 506 356.5 530.5 c 128,-1,9
 314 555 314 555 268 555 c 2,10,-1
 193 555 l 1,11,-1
 193 470 l 1,12,-1
 153 470 l 1,13,-1
 153 555 l 1,14,-1
 55 555 l 1,15,16
 35 546 35 546 35 492 c 1,17,-1
 14 492 l 1,18,-1
 14 585 l 1,19,-1
 153 585 l 1,20,-1
 153 655 l 1,21,-1
 193 655 l 1,22,-1
 193 585 l 1,23,-1
 268 585 l 2,24,25
 401 585 401 585 482 504 c 128,-1,26
 563 423 563 423 563 293 c 128,-1,27
 563 163 563 163 484 81 c 128,-1,28
 405 -1 405 -1 280 -1 c 2,29,-1
 38 -1 l 1,0,-1
440 427 m 1,30,31
 311 419 311 419 252 354.5 c 128,-1,32
 193 290 193 290 193 192 c 2,33,-1
 193 33 l 1,34,-1
 280 33 l 2,35,36
 312 33 312 33 342.5 47.5 c 128,-1,37
 373 62 373 62 401 91 c 128,-1,38
 429 120 429 120 446 172 c 128,-1,39
 463 224 463 224 463 292 c 0,40,41
 463 368 463 368 440 427 c 1,30,31
EndSplineSet
EndChar

StartChar: multiply
Encoding: 215 215 153
Width: 420
GlyphClass: 2
Flags: W
LayerCount: 2
Fore
SplineSet
241 318 m 1,0,-1
 369 190 l 1,1,-1
 338 159 l 1,2,-1
 210 287 l 1,3,-1
 82 159 l 1,4,-1
 51 190 l 1,5,-1
 179 318 l 1,6,-1
 51 446 l 1,7,-1
 82 477 l 1,8,-1
 210 349 l 1,9,-1
 338 477 l 1,10,-1
 369 446 l 1,11,-1
 241 318 l 1,0,-1
EndSplineSet
EndChar

StartChar: Oslash
Encoding: 216 216 154
Width: 641
GlyphClass: 2
Flags: W
AnchorPoint: "Anchor-5" 322 0 basechar 0
AnchorPoint: "Anchor-4" 351 0 basechar 0
AnchorPoint: "Anchor-3" 322 0 basechar 0
AnchorPoint: "Anchor-0" 321 620 basechar 0
LayerCount: 2
Fore
SplineSet
432 501 m 1,0,1
 384 561 384 561 317 561 c 0,2,3
 272 561 272 561 237.5 537 c 128,-1,4
 203 513 203 513 183.5 473.5 c 128,-1,5
 164 434 164 434 154 390 c 128,-1,6
 144 346 144 346 144 300 c 0,7,8
 144 191 144 191 189 113 c 1,9,-1
 432 501 l 1,0,1
453 470 m 1,10,-1
 210 82 l 1,11,12
 256 24 256 24 325 24 c 0,13,14
 384 24 384 24 424.5 66 c 128,-1,15
 465 108 465 108 481.5 164.5 c 128,-1,16
 498 221 498 221 498 284 c 0,17,18
 498 392 498 392 453 470 c 1,10,-1
44 292 m 0,19,20
 44 417 44 417 122 506 c 128,-1,21
 200 595 200 595 321 595 c 0,22,23
 400 595 400 595 465 554 c 1,24,-1
 501 612 l 1,25,-1
 530 594 l 1,26,-1
 492 533 l 1,27,28
 542 491 542 491 570 428 c 128,-1,29
 598 365 598 365 598 292 c 0,30,31
 598 167 598 167 519.5 78.5 c 128,-1,32
 441 -10 441 -10 321 -10 c 0,33,34
 241 -10 241 -10 178 30 c 1,35,-1
 141 -28 l 1,36,-1
 112 -10 l 1,37,-1
 150 51 l 1,38,39
 100 93 100 93 72 156 c 128,-1,40
 44 219 44 219 44 292 c 0,19,20
EndSplineSet
EndChar

StartChar: Thorn
Encoding: 222 222 160
Width: 522
GlyphClass: 2
Flags: W
LayerCount: 2
Fore
SplineSet
42 0 m 1,0,-1
 42 21 l 1,1,2
 96 21 96 21 105 41 c 1,3,-1
 105 544 l 1,4,5
 96 564 96 564 42 564 c 1,6,-1
 42 585 l 1,7,-1
 260 585 l 1,8,-1
 260 564 l 1,9,10
 206 564 206 564 197 544 c 1,11,-1
 197 460 l 1,12,-1
 249 460 l 2,13,14
 376 460 376 460 438.5 417 c 128,-1,15
 501 374 501 374 501 308 c 0,16,17
 501 233 501 233 441 187 c 128,-1,18
 381 141 381 141 261 141 c 2,19,-1
 197 141 l 1,20,-1
 197 41 l 1,21,22
 206 21 206 21 260 21 c 1,23,-1
 260 0 l 1,24,-1
 42 0 l 1,0,-1
197 426 m 1,25,-1
 197 175 l 1,26,-1
 261 175 l 2,27,28
 338 175 338 175 369.5 205.5 c 128,-1,29
 401 236 401 236 401 307 c 0,30,31
 401 366 401 366 368 396 c 128,-1,32
 335 426 335 426 249 426 c 2,33,-1
 197 426 l 1,25,-1
EndSplineSet
EndChar

StartChar: germandbls
Encoding: 223 223 161
Width: 514
GlyphClass: 2
Flags: W
LayerCount: 2
Fore
SplineSet
237 368 m 0,0,1
 264 378 264 378 290.5 419.5 c 128,-1,2
 317 461 317 461 317 499 c 0,3,4
 317 530 317 530 298.5 565 c 128,-1,5
 280 600 280 600 244 600 c 0,6,7
 217 600 217 600 195.5 570.5 c 128,-1,8
 174 541 174 541 174 488 c 2,9,-1
 174 0 l 1,10,-1
 21 0 l 1,11,-1
 21 21 l 1,12,13
 75 21 75 21 84 41 c 1,14,-1
 84 474 l 2,15,16
 84 555 84 555 127.5 592.5 c 128,-1,17
 171 630 171 630 230 630 c 0,18,19
 323 630 323 630 360 596.5 c 128,-1,20
 397 563 397 563 397 500 c 0,21,22
 397 458 397 458 369.5 418.5 c 128,-1,23
 342 379 342 379 300 359 c 1,24,25
 374 346 374 346 429.5 295.5 c 128,-1,26
 485 245 485 245 485 190 c 0,27,28
 485 98 485 98 442.5 44 c 128,-1,29
 400 -10 400 -10 323 -10 c 0,30,31
 263 -10 263 -10 233 19.5 c 128,-1,32
 203 49 203 49 203 72 c 0,33,34
 203 102 203 102 210.5 114 c 128,-1,35
 218 126 218 126 239 126 c 0,36,37
 251 126 251 126 256.5 109.5 c 128,-1,38
 262 93 262 93 263.5 73 c 128,-1,39
 265 53 265 53 278 36.5 c 128,-1,40
 291 20 291 20 317 20 c 0,41,42
 350 20 350 20 376 62.5 c 128,-1,43
 402 105 402 105 402 170 c 0,44,45
 402 232 402 232 352 288 c 128,-1,46
 302 344 302 344 239 344 c 2,47,-1
 237 344 l 2,48,49
 221 344 221 344 221 354 c 0,50,51
 221 363 221 363 237 368 c 0,0,1
EndSplineSet
EndChar

StartChar: ae
Encoding: 230 230 168
Width: 708
GlyphClass: 2
Flags: W
AnchorPoint: "Anchor-5" 340 0 basechar 0
AnchorPoint: "Anchor-0" 347 515 basechar 0
LayerCount: 2
Fore
SplineSet
298 247 m 1,0,1
 298 336 298 336 280 375 c 128,-1,2
 262 414 262 414 214 414 c 0,3,4
 124 414 124 414 112 366 c 1,5,6
 126 366 126 366 136.5 356 c 128,-1,7
 147 346 147 346 147 325 c 0,8,9
 147 308 147 308 133.5 299 c 128,-1,10
 120 290 120 290 102 290 c 0,11,12
 83 290 83 290 71 303.5 c 128,-1,13
 59 317 59 317 59 340 c 0,14,15
 59 392 59 392 102 421 c 128,-1,16
 145 450 145 450 224 450 c 0,17,18
 313 450 313 450 355 395 c 1,19,20
 404 450 404 450 482 450 c 0,21,22
 579 450 579 450 624.5 391 c 128,-1,23
 670 332 670 332 670 241 c 1,24,-1
 392 241 l 1,25,-1
 392 220 l 2,26,27
 392 28 392 28 526 28 c 0,28,29
 563 28 563 28 588.5 42.5 c 128,-1,30
 614 57 614 57 644 94 c 1,31,-1
 668 82 l 1,32,33
 638 33 638 33 599.5 11.5 c 128,-1,34
 561 -10 561 -10 492 -10 c 0,35,36
 398 -10 398 -10 348 46 c 1,37,38
 279 -10 279 -10 182 -10 c 0,39,40
 32 -10 32 -10 32 112 c 0,41,42
 32 133 32 133 45.5 151 c 128,-1,43
 59 169 59 169 77.5 180.5 c 128,-1,44
 96 192 96 192 127.5 203 c 128,-1,45
 159 214 159 214 182.5 219.5 c 128,-1,46
 206 225 206 225 243.5 233.5 c 128,-1,47
 281 242 281 242 298 247 c 1,0,1
298 226 m 1,48,49
 294 225 294 225 274 219.5 c 128,-1,50
 254 214 254 214 247 212 c 128,-1,51
 240 210 240 210 222 204 c 128,-1,52
 204 198 204 198 196 194 c 128,-1,53
 188 190 188 190 174 183 c 128,-1,54
 160 176 160 176 153.5 169 c 128,-1,55
 147 162 147 162 139 153 c 128,-1,56
 131 144 131 144 128 133 c 128,-1,57
 125 122 125 122 125 110 c 0,58,59
 125 62 125 62 143.5 43 c 128,-1,60
 162 24 162 24 199 24 c 0,61,62
 229 24 229 24 268.5 36 c 128,-1,63
 308 48 308 48 334 65 c 1,64,65
 298 123 298 123 298 216 c 2,66,-1
 298 226 l 1,48,49
395 272 m 1,67,-1
 572 272 l 1,68,69
 566 347 566 347 547.5 383.5 c 128,-1,70
 529 420 529 420 477 420 c 0,71,72
 451 420 451 420 427 380 c 128,-1,73
 403 340 403 340 395 272 c 1,67,-1
EndSplineSet
EndChar

StartChar: ccedilla
Encoding: 231 231 169
Width: 479
GlyphClass: 2
Flags: W
LayerCount: 2
Fore
SplineSet
272 420 m 0,0,1
 210 420 210 420 172 373 c 128,-1,2
 134 326 134 326 134 246 c 0,3,4
 134 161 134 161 181.5 94.5 c 128,-1,5
 229 28 229 28 289 28 c 0,6,7
 376 28 376 28 429 94 c 1,8,-1
 453 82 l 1,9,10
 400 -4 400 -4 279 -9 c 1,11,-1
 267 -55 l 1,12,13
 299 -55 299 -55 333 -71.5 c 128,-1,14
 367 -88 367 -88 367 -122 c 0,15,16
 367 -199 367 -199 257 -199 c 0,17,18
 224 -199 224 -199 183 -192 c 1,19,-1
 183 -175 l 1,20,21
 201 -177 201 -177 208 -177 c 0,22,23
 246 -177 246 -177 263 -162.5 c 128,-1,24
 280 -148 280 -148 280 -130 c 0,25,26
 280 -86 280 -86 219 -86 c 1,27,-1
 241 -10 l 1,28,29
 204 -8 204 -8 171 5 c 128,-1,30
 138 18 138 18 107 45 c 128,-1,31
 76 72 76 72 57.5 123 c 128,-1,32
 39 174 39 174 39 242 c 0,33,34
 39 329 39 329 100.5 389.5 c 128,-1,35
 162 450 162 450 262 450 c 0,36,37
 341 450 341 450 384 423 c 128,-1,38
 427 396 427 396 427 344 c 0,39,40
 427 321 427 321 415 307.5 c 128,-1,41
 403 294 403 294 384 294 c 0,42,43
 366 294 366 294 352.5 303 c 128,-1,44
 339 312 339 312 339 329 c 0,45,46
 339 350 339 350 349.5 360 c 128,-1,47
 360 370 360 370 374 370 c 1,48,49
 361 420 361 420 272 420 c 0,0,1
EndSplineSet
EndChar

StartChar: eth
Encoding: 240 240 178
Width: 527
GlyphClass: 2
Flags: W
LayerCount: 2
Fore
SplineSet
267 -10 m 0,0,1
 156 -10 156 -10 97.5 54.5 c 128,-1,2
 39 119 39 119 39 228 c 0,3,4
 39 326 39 326 91.5 388 c 128,-1,5
 144 450 144 450 260 450 c 0,6,7
 296 450 296 450 326 444 c 1,8,9
 297 490 297 490 255 532 c 1,10,-1
 171 484 l 1,11,-1
 154 513 l 1,12,-1
 229 556 l 1,13,14
 209 573 209 573 189.5 587 c 128,-1,15
 170 601 170 601 160 606 c 2,16,-1
 150 612 l 1,17,-1
 161 630 l 1,18,19
 207 613 207 613 265 577 c 1,20,-1
 353 628 l 1,21,-1
 370 599 l 1,22,-1
 297 556 l 1,23,24
 486 420 486 420 486 216 c 0,25,26
 486 117 486 117 434 53.5 c 128,-1,27
 382 -10 382 -10 267 -10 c 0,0,1
135 248 m 0,28,29
 135 133 135 133 174 76.5 c 128,-1,30
 213 20 213 20 280 20 c 0,31,32
 333 20 333 20 361.5 67.5 c 128,-1,33
 390 115 390 115 390 193 c 0,34,35
 390 311 390 311 354.5 365 c 128,-1,36
 319 419 319 419 243 419 c 0,37,38
 191 419 191 419 163 369.5 c 128,-1,39
 135 320 135 320 135 248 c 0,28,29
EndSplineSet
EndChar

StartChar: divide
Encoding: 247 247 185
Width: 482
GlyphClass: 2
Flags: W
LayerCount: 2
Fore
SplineSet
184 457 m 128,-1,1
 184 480 184 480 199.5 498.5 c 128,-1,2
 215 517 215 517 240 517 c 0,3,4
 262 517 262 517 280 500 c 128,-1,5
 298 483 298 483 298 460 c 128,-1,6
 298 437 298 437 282 418 c 128,-1,7
 266 399 266 399 241 399 c 0,8,9
 220 399 220 399 202 416.5 c 128,-1,0
 184 434 184 434 184 457 c 128,-1,1
184 177 m 128,-1,11
 184 200 184 200 199.5 218.5 c 128,-1,12
 215 237 215 237 240 237 c 0,13,14
 262 237 262 237 280 220 c 128,-1,15
 298 203 298 203 298 180 c 128,-1,16
 298 157 298 157 282 138 c 128,-1,17
 266 119 266 119 241 119 c 0,18,19
 220 119 220 119 202 136.5 c 128,-1,10
 184 154 184 154 184 177 c 128,-1,11
44 340 m 1,20,-1
 438 340 l 1,21,-1
 438 296 l 1,22,-1
 44 296 l 1,23,-1
 44 340 l 1,20,-1
EndSplineSet
EndChar

StartChar: oslash
Encoding: 248 248 186
Width: 545
GlyphClass: 2
Flags: W
AnchorPoint: "Anchor-5" 280 0 basechar 0
AnchorPoint: "Anchor-4" 280 0 basechar 0
AnchorPoint: "Anchor-3" 280 0 basechar 0
AnchorPoint: "Anchor-0" 274 515 basechar 0
LayerCount: 2
Fore
SplineSet
360 377 m 1,0,1
 322 419 322 419 253 419 c 0,2,3
 200 419 200 419 167.5 368.5 c 128,-1,4
 135 318 135 318 135 248 c 0,5,6
 135 156 135 156 165 99 c 1,7,-1
 360 377 l 1,0,1
380 348 m 1,8,-1
 185 69 l 1,9,10
 227 20 227 20 290 20 c 0,11,12
 344 20 344 20 377 68.5 c 128,-1,13
 410 117 410 117 410 193 c 0,14,15
 410 294 410 294 380 348 c 1,8,-1
422 408 m 1,16,17
 506 349 506 349 506 216 c 0,18,19
 506 119 506 119 449.5 54.5 c 128,-1,20
 393 -10 393 -10 277 -10 c 0,21,22
 203 -10 203 -10 150 19 c 1,23,-1
 112 -35 l 1,24,-1
 85 -15 l 1,25,-1
 122 37 l 1,26,27
 39 102 39 102 39 228 c 0,28,29
 39 325 39 325 96 387.5 c 128,-1,30
 153 450 153 450 270 450 c 0,31,32
 341 450 341 450 393 425 c 1,33,-1
 428 475 l 1,34,-1
 455 455 l 1,35,-1
 422 408 l 1,16,17
EndSplineSet
EndChar

StartChar: thorn
Encoding: 254 254 192
Width: 519
GlyphClass: 2
Flags: W
LayerCount: 2
Fore
SplineSet
5 -192 m 1,0,-1
 5 -171 l 1,1,2
 59 -171 59 -171 68 -151 c 1,3,-1
 68 559 l 1,4,5
 6 564 6 564 5 564 c 1,6,-1
 5 587 l 1,7,8
 24 587 24 587 79.5 608.5 c 128,-1,9
 135 630 135 630 158 630 c 1,10,-1
 158 390 l 1,11,12
 214 450 214 450 296 450 c 0,13,14
 384 450 384 450 432 395 c 128,-1,15
 480 340 480 340 480 267 c 0,16,17
 480 125 480 125 396 56.5 c 128,-1,18
 312 -12 312 -12 158 -12 c 1,19,-1
 158 -151 l 1,20,21
 167 -171 167 -171 221 -171 c 1,22,-1
 221 -192 l 1,23,-1
 5 -192 l 1,0,-1
158 354 m 1,24,-1
 158 17 l 1,25,26
 385 21 385 21 385 242 c 0,27,28
 385 321 385 321 357.5 368.5 c 128,-1,29
 330 416 330 416 286 416 c 0,30,31
 208 416 208 416 158 354 c 1,24,-1
EndSplineSet
EndChar

StartChar: Amacron
Encoding: 256 256 194
Width: 546
GlyphClass: 2
Flags: W
LayerCount: 2
Fore
SplineSet
138 678 m 1,0,-1
 402 678 l 1,1,-1
 402 634 l 1,2,-1
 138 634 l 1,3,-1
 138 678 l 1,0,-1
336 0 m 1,4,-1
 336 21 l 1,5,6
 382 21 382 21 394 33 c 1,7,-1
 338 186 l 1,8,-1
 146 186 l 1,9,-1
 94 39 l 1,10,11
 104 21 104 21 156 21 c 1,12,-1
 156 0 l 1,13,-1
 -8 0 l 1,14,-1
 -8 21 l 1,15,16
 48 21 48 21 55 42 c 2,17,-1
 249 585 l 1,18,-1
 297 585 l 1,19,-1
 491 42 l 2,20,21
 498 21 498 21 555 21 c 1,22,-1
 555 0 l 1,23,-1
 336 0 l 1,4,-1
241 452 m 1,24,-1
 158 219 l 1,25,-1
 326 219 l 1,26,-1
 241 452 l 1,24,-1
EndSplineSet
EndChar

StartChar: amacron
Encoding: 257 257 195
Width: 483
GlyphClass: 2
Flags: W
LayerCount: 2
Fore
SplineSet
84 573 m 1,0,-1
 348 573 l 1,1,-1
 348 529 l 1,2,-1
 84 529 l 1,3,-1
 84 573 l 1,0,-1
112 366 m 1,4,5
 126 366 126 366 136.5 356 c 128,-1,6
 147 346 147 346 147 325 c 0,7,8
 147 308 147 308 133.5 299 c 128,-1,9
 120 290 120 290 102 290 c 0,10,11
 83 290 83 290 71 303.5 c 128,-1,12
 59 317 59 317 59 340 c 0,13,14
 59 392 59 392 102 421 c 128,-1,15
 145 450 145 450 224 450 c 0,16,17
 317 450 317 450 360.5 404 c 128,-1,18
 404 358 404 358 404 282 c 2,19,-1
 404 84 l 2,20,21
 404 52 404 52 414.5 37 c 128,-1,22
 425 22 425 22 440 22 c 0,23,24
 453 22 453 22 463.5 29 c 128,-1,25
 474 36 474 36 474 46 c 1,26,-1
 492 46 l 1,27,28
 492 18 492 18 471.5 5 c 128,-1,29
 451 -8 451 -8 400 -8 c 0,30,31
 350 -8 350 -8 329 33 c 1,32,33
 270 -10 270 -10 182 -10 c 0,34,35
 32 -10 32 -10 32 112 c 0,36,37
 32 138 32 138 50.5 159 c 128,-1,38
 69 180 69 180 104 194 c 128,-1,39
 139 208 139 208 170 216.5 c 128,-1,40
 201 225 201 225 247.5 235.5 c 128,-1,41
 294 246 294 246 314 252 c 1,42,43
 314 336 314 336 292 375 c 128,-1,44
 270 414 270 414 214 414 c 0,45,46
 124 414 124 414 112 366 c 1,4,5
320 58 m 1,47,48
 314 80 314 80 314 112 c 2,49,-1
 314 230 l 1,50,51
 303 226 303 226 276.5 219 c 128,-1,52
 250 212 250 212 233.5 207 c 128,-1,53
 217 202 217 202 194 192 c 128,-1,54
 171 182 171 182 158 172 c 128,-1,55
 145 162 145 162 135 145.5 c 128,-1,56
 125 129 125 129 125 110 c 0,57,58
 125 62 125 62 143.5 43 c 128,-1,59
 162 24 162 24 199 24 c 0,60,61
 265 24 265 24 320 58 c 1,47,48
EndSplineSet
EndChar

StartChar: Abreve
Encoding: 258 258 196
Width: 546
GlyphClass: 2
Flags: W
LayerCount: 2
Fore
SplineSet
276 630 m 0,0,1
 215 630 215 630 182.5 670.5 c 128,-1,2
 150 711 150 711 150 754 c 1,3,-1
 178 754 l 1,4,5
 178 734 178 734 203.5 718 c 128,-1,6
 229 702 229 702 276 702 c 128,-1,7
 323 702 323 702 348.5 717.5 c 128,-1,8
 374 733 374 733 374 754 c 1,9,-1
 402 754 l 1,10,11
 402 710 402 710 370 670 c 128,-1,12
 338 630 338 630 276 630 c 0,0,1
336 0 m 1,13,-1
 336 21 l 1,14,15
 382 21 382 21 394 33 c 1,16,-1
 338 186 l 1,17,-1
 146 186 l 1,18,-1
 94 39 l 1,19,20
 104 21 104 21 156 21 c 1,21,-1
 156 0 l 1,22,-1
 -8 0 l 1,23,-1
 -8 21 l 1,24,25
 48 21 48 21 55 42 c 2,26,-1
 249 585 l 1,27,-1
 297 585 l 1,28,-1
 491 42 l 2,29,30
 498 21 498 21 555 21 c 1,31,-1
 555 0 l 1,32,-1
 336 0 l 1,13,-1
241 452 m 1,33,-1
 158 219 l 1,34,-1
 326 219 l 1,35,-1
 241 452 l 1,33,-1
EndSplineSet
EndChar

StartChar: abreve
Encoding: 259 259 197
Width: 483
GlyphClass: 2
Flags: W
LayerCount: 2
Fore
SplineSet
222 525 m 0,0,1
 161 525 161 525 128.5 565.5 c 128,-1,2
 96 606 96 606 96 649 c 1,3,-1
 124 649 l 1,4,5
 124 629 124 629 149.5 613 c 128,-1,6
 175 597 175 597 222 597 c 128,-1,7
 269 597 269 597 294.5 612.5 c 128,-1,8
 320 628 320 628 320 649 c 1,9,-1
 348 649 l 1,10,11
 348 605 348 605 316 565 c 128,-1,12
 284 525 284 525 222 525 c 0,0,1
112 366 m 1,13,14
 126 366 126 366 136.5 356 c 128,-1,15
 147 346 147 346 147 325 c 0,16,17
 147 308 147 308 133.5 299 c 128,-1,18
 120 290 120 290 102 290 c 0,19,20
 83 290 83 290 71 303.5 c 128,-1,21
 59 317 59 317 59 340 c 0,22,23
 59 392 59 392 102 421 c 128,-1,24
 145 450 145 450 224 450 c 0,25,26
 317 450 317 450 360.5 404 c 128,-1,27
 404 358 404 358 404 282 c 2,28,-1
 404 84 l 2,29,30
 404 52 404 52 414.5 37 c 128,-1,31
 425 22 425 22 440 22 c 0,32,33
 453 22 453 22 463.5 29 c 128,-1,34
 474 36 474 36 474 46 c 1,35,-1
 492 46 l 1,36,37
 492 18 492 18 471.5 5 c 128,-1,38
 451 -8 451 -8 400 -8 c 0,39,40
 350 -8 350 -8 329 33 c 1,41,42
 270 -10 270 -10 182 -10 c 0,43,44
 32 -10 32 -10 32 112 c 0,45,46
 32 138 32 138 50.5 159 c 128,-1,47
 69 180 69 180 104 194 c 128,-1,48
 139 208 139 208 170 216.5 c 128,-1,49
 201 225 201 225 247.5 235.5 c 128,-1,50
 294 246 294 246 314 252 c 1,51,52
 314 336 314 336 292 375 c 128,-1,53
 270 414 270 414 214 414 c 0,54,55
 124 414 124 414 112 366 c 1,13,14
320 58 m 1,56,57
 314 80 314 80 314 112 c 2,58,-1
 314 230 l 1,59,60
 303 226 303 226 276.5 219 c 128,-1,61
 250 212 250 212 233.5 207 c 128,-1,62
 217 202 217 202 194 192 c 128,-1,63
 171 182 171 182 158 172 c 128,-1,64
 145 162 145 162 135 145.5 c 128,-1,65
 125 129 125 129 125 110 c 0,66,67
 125 62 125 62 143.5 43 c 128,-1,68
 162 24 162 24 199 24 c 0,69,70
 265 24 265 24 320 58 c 1,56,57
EndSplineSet
EndChar

StartChar: Aogonek
Encoding: 260 260 198
Width: 546
GlyphClass: 2
Flags: W
LayerCount: 2
Fore
SplineSet
241 452 m 1,0,-1
 158 219 l 1,1,-1
 326 219 l 1,2,-1
 241 452 l 1,0,-1
336 0 m 1,3,-1
 336 21 l 1,4,5
 382 21 382 21 394 33 c 1,6,-1
 338 186 l 1,7,-1
 146 186 l 1,8,-1
 94 39 l 1,9,10
 104 21 104 21 156 21 c 1,11,-1
 156 0 l 1,12,-1
 -8 0 l 1,13,-1
 -8 21 l 1,14,15
 48 21 48 21 55 42 c 2,16,-1
 249 585 l 1,17,-1
 297 585 l 1,18,-1
 491 42 l 2,19,20
 498 21 498 21 555 21 c 1,21,-1
 555 0 l 1,22,-1
 502 0 l 1,23,24
 475 -34 475 -34 475 -59 c 0,25,26
 475 -108 475 -108 502 -137 c 128,-1,27
 529 -166 529 -166 563 -166 c 0,28,29
 569 -166 569 -166 577 -162 c 128,-1,30
 585 -158 585 -158 590 -154 c 2,31,-1
 594 -150 l 1,32,-1
 605 -168 l 1,33,34
 603 -172 603 -172 598 -177 c 128,-1,35
 593 -182 593 -182 572.5 -191 c 128,-1,36
 552 -200 552 -200 526 -200 c 0,37,38
 477 -200 477 -200 451.5 -174.5 c 128,-1,39
 426 -149 426 -149 426 -103 c 0,40,41
 426 -45 426 -45 474 0 c 1,42,-1
 336 0 l 1,3,-1
EndSplineSet
EndChar

StartChar: aogonek
Encoding: 261 261 199
Width: 482
GlyphClass: 2
Flags: W
LayerCount: 2
Fore
SplineSet
320 58 m 1,0,1
 314 80 314 80 314 112 c 2,2,-1
 314 230 l 1,3,4
 303 226 303 226 276.5 219 c 128,-1,5
 250 212 250 212 233.5 207 c 128,-1,6
 217 202 217 202 194 192 c 128,-1,7
 171 182 171 182 158 172 c 128,-1,8
 145 162 145 162 135 145.5 c 128,-1,9
 125 129 125 129 125 110 c 0,10,11
 125 62 125 62 143.5 43 c 128,-1,12
 162 24 162 24 199 24 c 0,13,14
 265 24 265 24 320 58 c 1,0,1
112 366 m 1,15,-1
 111 366 l 2,16,17
 125 366 125 366 135.5 356 c 128,-1,18
 146 346 146 346 146 325 c 0,19,20
 146 308 146 308 132.5 299 c 128,-1,21
 119 290 119 290 101 290 c 0,22,23
 82 290 82 290 70 303.5 c 128,-1,24
 58 317 58 317 58 340 c 0,25,26
 58 392 58 392 101 421 c 128,-1,27
 144 450 144 450 223 450 c 0,28,29
 316 450 316 450 359.5 404 c 128,-1,30
 403 358 403 358 403 282 c 2,31,-1
 403 84 l 2,32,33
 403 52 403 52 413.5 37 c 128,-1,34
 424 22 424 22 439 22 c 0,35,36
 452 22 452 22 462.5 29 c 128,-1,37
 473 36 473 36 473 46 c 1,38,-1
 491 46 l 1,39,40
 491 20 491 20 474 7 c 128,-1,41
 457 -6 457 -6 417 -8 c 1,42,43
 396 -37 396 -37 396 -59 c 0,44,45
 396 -108 396 -108 423 -137 c 128,-1,46
 450 -166 450 -166 484 -166 c 0,47,48
 490 -166 490 -166 498 -162 c 128,-1,49
 506 -158 506 -158 510 -154 c 2,50,-1
 515 -150 l 1,51,-1
 526 -168 l 1,52,53
 524 -172 524 -172 519 -177 c 128,-1,54
 514 -182 514 -182 493.5 -191 c 128,-1,55
 473 -200 473 -200 447 -200 c 0,56,57
 398 -200 398 -200 372.5 -174.5 c 128,-1,58
 347 -149 347 -149 347 -103 c 0,59,60
 347 -50 347 -50 388 -7 c 1,61,62
 347 -4 347 -4 329 33 c 1,63,64
 270 -10 270 -10 182 -10 c 0,65,66
 32 -10 32 -10 32 112 c 0,67,68
 32 138 32 138 50.5 159 c 128,-1,69
 69 180 69 180 104 194 c 128,-1,70
 139 208 139 208 170 216.5 c 128,-1,71
 201 225 201 225 247.5 235.5 c 128,-1,72
 294 246 294 246 314 252 c 1,73,74
 314 336 314 336 292 375 c 128,-1,75
 270 414 270 414 214 414 c 0,76,77
 124 414 124 414 112 366 c 1,15,-1
EndSplineSet
EndChar

StartChar: Cacute
Encoding: 262 262 200
Width: 562
GlyphClass: 2
Flags: W
LayerCount: 2
Fore
SplineSet
405 782 m 1,0,-1
 511 782 l 1,1,-1
 357 620 l 1,2,-1
 331 620 l 1,3,-1
 405 782 l 1,0,-1
346 561 m 0,4,5
 260 561 260 561 203 490 c 128,-1,6
 146 419 146 419 146 306 c 0,7,8
 146 174 146 174 206 99 c 128,-1,9
 266 24 266 24 350 24 c 0,10,11
 400 24 400 24 449 58.5 c 128,-1,12
 498 93 498 93 512 132 c 1,13,-1
 536 120 l 1,14,15
 513 65 513 65 463.5 27.5 c 128,-1,16
 414 -10 414 -10 330 -10 c 0,17,18
 197 -10 197 -10 119.5 76.5 c 128,-1,19
 42 163 42 163 42 284 c 0,20,21
 42 424 42 424 131.5 509.5 c 128,-1,22
 221 595 221 595 345 595 c 0,23,24
 374 595 374 595 412 580 c 128,-1,25
 450 565 450 565 456 565 c 0,26,27
 468 565 468 565 468 585 c 1,28,-1
 491 585 l 1,29,-1
 501 458 l 1,30,-1
 479 458 l 1,31,32
 472 503 472 503 439.5 532 c 128,-1,33
 407 561 407 561 346 561 c 0,4,5
EndSplineSet
EndChar

StartChar: cacute
Encoding: 263 263 201
Width: 479
GlyphClass: 2
Flags: W
LayerCount: 2
Fore
SplineSet
328 677 m 1,0,-1
 434 677 l 1,1,-1
 280 515 l 1,2,-1
 254 515 l 1,3,-1
 328 677 l 1,0,-1
272 420 m 0,4,5
 210 420 210 420 172 373 c 128,-1,6
 134 326 134 326 134 246 c 0,7,8
 134 161 134 161 181.5 94.5 c 128,-1,9
 229 28 229 28 289 28 c 0,10,11
 376 28 376 28 429 94 c 1,12,-1
 453 82 l 1,13,14
 424 34 424 34 377.5 12 c 128,-1,15
 331 -10 331 -10 255 -10 c 0,16,17
 217 -10 217 -10 182 1.5 c 128,-1,18
 147 13 147 13 113 39.5 c 128,-1,19
 79 66 79 66 59 118 c 128,-1,20
 39 170 39 170 39 242 c 0,21,22
 39 329 39 329 100.5 389.5 c 128,-1,23
 162 450 162 450 262 450 c 0,24,25
 341 450 341 450 384 423 c 128,-1,26
 427 396 427 396 427 344 c 0,27,28
 427 321 427 321 415 307.5 c 128,-1,29
 403 294 403 294 384 294 c 0,30,31
 366 294 366 294 352.5 303 c 128,-1,32
 339 312 339 312 339 329 c 0,33,34
 339 350 339 350 349.5 360 c 128,-1,35
 360 370 360 370 374 370 c 1,36,37
 361 420 361 420 272 420 c 0,4,5
EndSplineSet
EndChar

StartChar: Ccircumflex
Encoding: 264 264 202
Width: 562
GlyphClass: 2
Flags: W
LayerCount: 2
Fore
SplineSet
369 782 m 1,0,-1
 463 620 l 1,1,-1
 437 620 l 1,2,-1
 344 707 l 1,3,-1
 251 620 l 1,4,-1
 225 620 l 1,5,-1
 319 782 l 1,6,-1
 369 782 l 1,0,-1
346 561 m 0,7,8
 260 561 260 561 203 490 c 128,-1,9
 146 419 146 419 146 306 c 0,10,11
 146 174 146 174 206 99 c 128,-1,12
 266 24 266 24 350 24 c 0,13,14
 400 24 400 24 449 58.5 c 128,-1,15
 498 93 498 93 512 132 c 1,16,-1
 536 120 l 1,17,18
 513 65 513 65 463.5 27.5 c 128,-1,19
 414 -10 414 -10 330 -10 c 0,20,21
 197 -10 197 -10 119.5 76.5 c 128,-1,22
 42 163 42 163 42 284 c 0,23,24
 42 424 42 424 131.5 509.5 c 128,-1,25
 221 595 221 595 345 595 c 0,26,27
 374 595 374 595 412 580 c 128,-1,28
 450 565 450 565 456 565 c 0,29,30
 468 565 468 565 468 585 c 1,31,-1
 491 585 l 1,32,-1
 501 458 l 1,33,-1
 479 458 l 1,34,35
 472 503 472 503 439.5 532 c 128,-1,36
 407 561 407 561 346 561 c 0,7,8
EndSplineSet
EndChar

StartChar: ccircumflex
Encoding: 265 265 203
Width: 479
GlyphClass: 2
Flags: W
LayerCount: 2
Fore
SplineSet
292 677 m 1,0,-1
 386 515 l 1,1,-1
 360 515 l 1,2,-1
 267 602 l 1,3,-1
 174 515 l 1,4,-1
 148 515 l 1,5,-1
 242 677 l 1,6,-1
 292 677 l 1,0,-1
272 420 m 0,7,8
 210 420 210 420 172 373 c 128,-1,9
 134 326 134 326 134 246 c 0,10,11
 134 161 134 161 181.5 94.5 c 128,-1,12
 229 28 229 28 289 28 c 0,13,14
 376 28 376 28 429 94 c 1,15,-1
 453 82 l 1,16,17
 424 34 424 34 377.5 12 c 128,-1,18
 331 -10 331 -10 255 -10 c 0,19,20
 217 -10 217 -10 182 1.5 c 128,-1,21
 147 13 147 13 113 39.5 c 128,-1,22
 79 66 79 66 59 118 c 128,-1,23
 39 170 39 170 39 242 c 0,24,25
 39 329 39 329 100.5 389.5 c 128,-1,26
 162 450 162 450 262 450 c 0,27,28
 341 450 341 450 384 423 c 128,-1,29
 427 396 427 396 427 344 c 0,30,31
 427 321 427 321 415 307.5 c 128,-1,32
 403 294 403 294 384 294 c 0,33,34
 366 294 366 294 352.5 303 c 128,-1,35
 339 312 339 312 339 329 c 0,36,37
 339 350 339 350 349.5 360 c 128,-1,38
 360 370 360 370 374 370 c 1,39,40
 361 420 361 420 272 420 c 0,7,8
EndSplineSet
EndChar

StartChar: Cdotaccent
Encoding: 266 266 204
Width: 562
GlyphClass: 2
Flags: W
LayerCount: 2
Fore
SplineSet
293 672 m 128,-1,1
 293 693 293 693 308 708 c 128,-1,2
 323 723 323 723 344 723 c 128,-1,3
 365 723 365 723 380 708 c 128,-1,4
 395 693 395 693 395 672 c 128,-1,5
 395 651 395 651 380 636 c 128,-1,6
 365 621 365 621 344 621 c 128,-1,7
 323 621 323 621 308 636 c 128,-1,0
 293 651 293 651 293 672 c 128,-1,1
346 561 m 0,8,9
 260 561 260 561 203 490 c 128,-1,10
 146 419 146 419 146 306 c 0,11,12
 146 174 146 174 206 99 c 128,-1,13
 266 24 266 24 350 24 c 0,14,15
 400 24 400 24 449 58.5 c 128,-1,16
 498 93 498 93 512 132 c 1,17,-1
 536 120 l 1,18,19
 513 65 513 65 463.5 27.5 c 128,-1,20
 414 -10 414 -10 330 -10 c 0,21,22
 197 -10 197 -10 119.5 76.5 c 128,-1,23
 42 163 42 163 42 284 c 0,24,25
 42 424 42 424 131.5 509.5 c 128,-1,26
 221 595 221 595 345 595 c 0,27,28
 374 595 374 595 412 580 c 128,-1,29
 450 565 450 565 456 565 c 0,30,31
 468 565 468 565 468 585 c 1,32,-1
 491 585 l 1,33,-1
 501 458 l 1,34,-1
 479 458 l 1,35,36
 472 503 472 503 439.5 532 c 128,-1,37
 407 561 407 561 346 561 c 0,8,9
EndSplineSet
EndChar

StartChar: cdotaccent
Encoding: 267 267 205
Width: 479
GlyphClass: 2
Flags: W
LayerCount: 2
Fore
SplineSet
216 567 m 128,-1,1
 216 588 216 588 231 603 c 128,-1,2
 246 618 246 618 267 618 c 128,-1,3
 288 618 288 618 303 603 c 128,-1,4
 318 588 318 588 318 567 c 128,-1,5
 318 546 318 546 303 531 c 128,-1,6
 288 516 288 516 267 516 c 128,-1,7
 246 516 246 516 231 531 c 128,-1,0
 216 546 216 546 216 567 c 128,-1,1
272 420 m 0,8,9
 210 420 210 420 172 373 c 128,-1,10
 134 326 134 326 134 246 c 0,11,12
 134 161 134 161 181.5 94.5 c 128,-1,13
 229 28 229 28 289 28 c 0,14,15
 376 28 376 28 429 94 c 1,16,-1
 453 82 l 1,17,18
 424 34 424 34 377.5 12 c 128,-1,19
 331 -10 331 -10 255 -10 c 0,20,21
 217 -10 217 -10 182 1.5 c 128,-1,22
 147 13 147 13 113 39.5 c 128,-1,23
 79 66 79 66 59 118 c 128,-1,24
 39 170 39 170 39 242 c 0,25,26
 39 329 39 329 100.5 389.5 c 128,-1,27
 162 450 162 450 262 450 c 0,28,29
 341 450 341 450 384 423 c 128,-1,30
 427 396 427 396 427 344 c 0,31,32
 427 321 427 321 415 307.5 c 128,-1,33
 403 294 403 294 384 294 c 0,34,35
 366 294 366 294 352.5 303 c 128,-1,36
 339 312 339 312 339 329 c 0,37,38
 339 350 339 350 349.5 360 c 128,-1,39
 360 370 360 370 374 370 c 1,40,41
 361 420 361 420 272 420 c 0,8,9
EndSplineSet
EndChar

StartChar: Ccaron
Encoding: 268 268 206
Width: 562
GlyphClass: 2
Flags: W
LayerCount: 2
Fore
SplineSet
320 620 m 1,0,-1
 226 782 l 1,1,-1
 252 782 l 1,2,-1
 345 695 l 1,3,-1
 438 782 l 1,4,-1
 464 782 l 1,5,-1
 370 620 l 1,6,-1
 320 620 l 1,0,-1
346 561 m 0,7,8
 260 561 260 561 203 490 c 128,-1,9
 146 419 146 419 146 306 c 0,10,11
 146 174 146 174 206 99 c 128,-1,12
 266 24 266 24 350 24 c 0,13,14
 400 24 400 24 449 58.5 c 128,-1,15
 498 93 498 93 512 132 c 1,16,-1
 536 120 l 1,17,18
 513 65 513 65 463.5 27.5 c 128,-1,19
 414 -10 414 -10 330 -10 c 0,20,21
 197 -10 197 -10 119.5 76.5 c 128,-1,22
 42 163 42 163 42 284 c 0,23,24
 42 424 42 424 131.5 509.5 c 128,-1,25
 221 595 221 595 345 595 c 0,26,27
 374 595 374 595 412 580 c 128,-1,28
 450 565 450 565 456 565 c 0,29,30
 468 565 468 565 468 585 c 1,31,-1
 491 585 l 1,32,-1
 501 458 l 1,33,-1
 479 458 l 1,34,35
 472 503 472 503 439.5 532 c 128,-1,36
 407 561 407 561 346 561 c 0,7,8
EndSplineSet
EndChar

StartChar: ccaron
Encoding: 269 269 207
Width: 479
GlyphClass: 2
Flags: W
LayerCount: 2
Fore
SplineSet
243 515 m 1,0,-1
 149 677 l 1,1,-1
 175 677 l 1,2,-1
 268 590 l 1,3,-1
 361 677 l 1,4,-1
 387 677 l 1,5,-1
 293 515 l 1,6,-1
 243 515 l 1,0,-1
272 420 m 0,7,8
 210 420 210 420 172 373 c 128,-1,9
 134 326 134 326 134 246 c 0,10,11
 134 161 134 161 181.5 94.5 c 128,-1,12
 229 28 229 28 289 28 c 0,13,14
 376 28 376 28 429 94 c 1,15,-1
 453 82 l 1,16,17
 424 34 424 34 377.5 12 c 128,-1,18
 331 -10 331 -10 255 -10 c 0,19,20
 217 -10 217 -10 182 1.5 c 128,-1,21
 147 13 147 13 113 39.5 c 128,-1,22
 79 66 79 66 59 118 c 128,-1,23
 39 170 39 170 39 242 c 0,24,25
 39 329 39 329 100.5 389.5 c 128,-1,26
 162 450 162 450 262 450 c 0,27,28
 341 450 341 450 384 423 c 128,-1,29
 427 396 427 396 427 344 c 0,30,31
 427 321 427 321 415 307.5 c 128,-1,32
 403 294 403 294 384 294 c 0,33,34
 366 294 366 294 352.5 303 c 128,-1,35
 339 312 339 312 339 329 c 0,36,37
 339 350 339 350 349.5 360 c 128,-1,38
 360 370 360 370 374 370 c 1,39,40
 361 420 361 420 272 420 c 0,7,8
EndSplineSet
EndChar

StartChar: Dcaron
Encoding: 270 270 208
Width: 611
GlyphClass: 2
Flags: W
LayerCount: 2
Fore
SplineSet
244 620 m 1,0,-1
 150 782 l 1,1,-1
 176 782 l 1,2,-1
 269 695 l 1,3,-1
 362 782 l 1,4,-1
 388 782 l 1,5,-1
 294 620 l 1,6,-1
 244 620 l 1,0,-1
42 0 m 1,7,-1
 42 21 l 1,8,9
 96 21 96 21 105 41 c 1,10,-1
 105 544 l 1,11,12
 96 564 96 564 42 564 c 1,13,-1
 42 585 l 1,14,-1
 272 585 l 2,15,16
 405 585 405 585 486 504.5 c 128,-1,17
 567 424 567 424 567 294 c 128,-1,18
 567 164 567 164 488 82 c 128,-1,19
 409 0 409 0 284 0 c 2,20,-1
 42 0 l 1,7,-1
197 556 m 1,21,-1
 197 34 l 1,22,-1
 284 34 l 2,23,24
 316 34 316 34 346.5 48.5 c 128,-1,25
 377 63 377 63 405 92 c 128,-1,26
 433 121 433 121 450 173 c 128,-1,27
 467 225 467 225 467 293 c 0,28,29
 467 423 467 423 408.5 489.5 c 128,-1,30
 350 556 350 556 272 556 c 2,31,-1
 197 556 l 1,21,-1
EndSplineSet
EndChar

StartChar: dcaron
Encoding: 271 271 209
Width: 567
GlyphClass: 2
Flags: W
LayerCount: 2
Fore
SplineSet
547 543 m 0,0,1
 496 543 496 543 496 587 c 0,2,3
 496 605 496 605 506.5 615.5 c 128,-1,4
 517 626 517 626 526 628 c 128,-1,5
 535 630 535 630 542 630 c 0,6,7
 580 630 580 630 607 606.5 c 128,-1,8
 634 583 634 583 634 543 c 0,9,10
 634 459 634 459 510 420 c 1,11,-1
 510 448 l 1,12,13
 535 451 535 451 561.5 475.5 c 128,-1,14
 588 500 588 500 588 531 c 0,15,16
 588 549 588 549 586 552.5 c 128,-1,17
 584 556 584 556 578 556 c 0,18,19
 575 556 575 556 566.5 549.5 c 128,-1,20
 558 543 558 543 547 543 c 0,0,1
363 430 m 1,21,-1
 363 559 l 1,22,-1
 300 564 l 1,23,-1
 300 587 l 1,24,25
 319 587 319 587 374.5 608.5 c 128,-1,26
 430 630 430 630 453 630 c 1,27,-1
 453 61 l 1,28,-1
 516 56 l 1,29,-1
 516 33 l 1,30,31
 497 33 497 33 441.5 11.5 c 128,-1,32
 386 -10 386 -10 363 -10 c 1,33,-1
 363 23 l 1,34,35
 315 -10 315 -10 243 -10 c 0,36,37
 210 -10 210 -10 177.5 1.5 c 128,-1,38
 145 13 145 13 112.5 37.5 c 128,-1,39
 80 62 80 62 59.5 110 c 128,-1,40
 39 158 39 158 39 222 c 0,41,42
 39 334 39 334 101.5 394 c 128,-1,43
 164 454 164 454 265 454 c 0,44,45
 322 454 322 454 363 430 c 1,21,-1
363 399 m 1,46,47
 327 420 327 420 271 420 c 0,48,49
 216 420 216 420 175 367 c 128,-1,50
 134 314 134 314 134 222 c 0,51,52
 134 161 134 161 169.5 92.5 c 128,-1,53
 205 24 205 24 253 24 c 0,54,55
 319 24 319 24 363 56 c 1,56,-1
 363 399 l 1,46,47
EndSplineSet
EndChar

StartChar: Dcroat
Encoding: 272 272 210
Width: 611
GlyphClass: 2
Flags: W
LayerCount: 2
Fore
SplineSet
197 275 m 1,0,-1
 197 34 l 1,1,-1
 284 34 l 2,2,3
 316 34 316 34 346.5 48.5 c 128,-1,4
 377 63 377 63 405 92 c 128,-1,5
 433 121 433 121 450 173 c 128,-1,6
 467 225 467 225 467 293 c 0,7,8
 467 423 467 423 408.5 489.5 c 128,-1,9
 350 556 350 556 272 556 c 2,10,-1
 197 556 l 1,11,-1
 197 309 l 1,12,-1
 299 309 l 1,13,-1
 299 275 l 1,14,-1
 197 275 l 1,0,-1
42 0 m 1,15,-1
 42 21 l 1,16,17
 96 21 96 21 105 41 c 1,18,-1
 105 275 l 1,19,-1
 35 275 l 1,20,-1
 35 309 l 1,21,-1
 105 309 l 1,22,-1
 105 544 l 1,23,24
 96 564 96 564 42 564 c 1,25,-1
 42 585 l 1,26,-1
 272 585 l 2,27,28
 405 585 405 585 486 504.5 c 128,-1,29
 567 424 567 424 567 294 c 128,-1,30
 567 164 567 164 488 82 c 128,-1,31
 409 0 409 0 284 0 c 2,32,-1
 42 0 l 1,15,-1
EndSplineSet
EndChar

StartChar: dcroat
Encoding: 273 273 211
Width: 537
GlyphClass: 2
Flags: W
LayerCount: 2
Fore
SplineSet
363 399 m 1,0,1
 327 420 327 420 271 420 c 0,2,3
 216 420 216 420 175 367 c 128,-1,4
 134 314 134 314 134 222 c 0,5,6
 134 161 134 161 169.5 92.5 c 128,-1,7
 205 24 205 24 253 24 c 0,8,9
 319 24 319 24 363 56 c 1,10,-1
 363 399 l 1,0,1
453 491 m 1,11,-1
 453 61 l 1,12,-1
 516 56 l 1,13,-1
 516 33 l 1,14,15
 497 33 497 33 441.5 11.5 c 128,-1,16
 386 -10 386 -10 363 -10 c 1,17,-1
 363 23 l 1,18,19
 315 -10 315 -10 243 -10 c 0,20,21
 210 -10 210 -10 177.5 1.5 c 128,-1,22
 145 13 145 13 112.5 37.5 c 128,-1,23
 80 62 80 62 59.5 110 c 128,-1,24
 39 158 39 158 39 222 c 0,25,26
 39 334 39 334 101.5 394 c 128,-1,27
 164 454 164 454 265 454 c 0,28,29
 322 454 322 454 363 430 c 1,30,-1
 363 491 l 1,31,-1
 250 491 l 1,32,-1
 250 525 l 1,33,-1
 363 525 l 1,34,-1
 363 559 l 1,35,-1
 300 564 l 1,36,-1
 300 587 l 1,37,38
 319 587 319 587 374.5 608.5 c 128,-1,39
 430 630 430 630 453 630 c 1,40,-1
 453 525 l 1,41,-1
 514 525 l 1,42,-1
 514 491 l 1,43,-1
 453 491 l 1,11,-1
EndSplineSet
EndChar

StartChar: Emacron
Encoding: 274 274 212
Width: 507
GlyphClass: 2
Flags: W
LayerCount: 2
Fore
SplineSet
130 678 m 1,0,-1
 394 678 l 1,1,-1
 394 634 l 1,2,-1
 130 634 l 1,3,-1
 130 678 l 1,0,-1
42 0 m 1,4,-1
 42 21 l 1,5,6
 96 21 96 21 105 41 c 1,7,-1
 105 544 l 1,8,9
 96 564 96 564 42 564 c 1,10,-1
 42 585 l 1,11,-1
 445 585 l 1,12,-1
 445 488 l 1,13,-1
 424 488 l 1,14,15
 424 542 424 542 404 551 c 1,16,-1
 197 551 l 1,17,-1
 197 321 l 1,18,-1
 337 321 l 1,19,20
 357 330 357 330 357 384 c 1,21,-1
 378 384 l 1,22,-1
 378 224 l 1,23,-1
 357 224 l 1,24,25
 357 278 357 278 337 287 c 1,26,-1
 197 287 l 1,27,-1
 197 34 l 1,28,-1
 425 34 l 1,29,30
 450 45 450 45 470 97 c 1,31,-1
 490 97 l 1,32,-1
 466 0 l 1,33,-1
 42 0 l 1,4,-1
EndSplineSet
EndChar

StartChar: emacron
Encoding: 275 275 213
Width: 493
GlyphClass: 2
Flags: W
LayerCount: 2
Fore
SplineSet
120 573 m 1,0,-1
 384 573 l 1,1,-1
 384 529 l 1,2,-1
 120 529 l 1,3,-1
 120 573 l 1,0,-1
134 241 m 1,4,5
 135 157 135 157 182.5 92.5 c 128,-1,6
 230 28 230 28 289 28 c 0,7,8
 376 28 376 28 429 94 c 1,9,-1
 453 82 l 1,10,11
 424 34 424 34 377.5 12 c 128,-1,12
 331 -10 331 -10 255 -10 c 0,13,14
 217 -10 217 -10 182 1.5 c 128,-1,15
 147 13 147 13 113 39.5 c 128,-1,16
 79 66 79 66 59 118 c 128,-1,17
 39 170 39 170 39 242 c 0,18,19
 39 330 39 330 93.5 390 c 128,-1,20
 148 450 148 450 245 450 c 0,21,22
 351 450 351 450 403 390.5 c 128,-1,23
 455 331 455 331 455 241 c 1,24,-1
 134 241 l 1,4,5
135 272 m 1,25,-1
 357 272 l 1,26,27
 351 344 351 344 326.5 382 c 128,-1,28
 302 420 302 420 241 420 c 0,29,30
 206 420 206 420 173.5 379 c 128,-1,31
 141 338 141 338 135 272 c 1,25,-1
EndSplineSet
EndChar

StartChar: Ebreve
Encoding: 276 276 214
Width: 507
GlyphClass: 2
Flags: W
LayerCount: 2
Fore
SplineSet
268 630 m 0,0,1
 207 630 207 630 174.5 670.5 c 128,-1,2
 142 711 142 711 142 754 c 1,3,-1
 170 754 l 1,4,5
 170 734 170 734 195.5 718 c 128,-1,6
 221 702 221 702 268 702 c 128,-1,7
 315 702 315 702 340.5 717.5 c 128,-1,8
 366 733 366 733 366 754 c 1,9,-1
 394 754 l 1,10,11
 394 710 394 710 362 670 c 128,-1,12
 330 630 330 630 268 630 c 0,0,1
42 0 m 1,13,-1
 42 21 l 1,14,15
 96 21 96 21 105 41 c 1,16,-1
 105 544 l 1,17,18
 96 564 96 564 42 564 c 1,19,-1
 42 585 l 1,20,-1
 445 585 l 1,21,-1
 445 488 l 1,22,-1
 424 488 l 1,23,24
 424 542 424 542 404 551 c 1,25,-1
 197 551 l 1,26,-1
 197 321 l 1,27,-1
 337 321 l 1,28,29
 357 330 357 330 357 384 c 1,30,-1
 378 384 l 1,31,-1
 378 224 l 1,32,-1
 357 224 l 1,33,34
 357 278 357 278 337 287 c 1,35,-1
 197 287 l 1,36,-1
 197 34 l 1,37,-1
 425 34 l 1,38,39
 450 45 450 45 470 97 c 1,40,-1
 490 97 l 1,41,-1
 466 0 l 1,42,-1
 42 0 l 1,13,-1
EndSplineSet
EndChar

StartChar: ebreve
Encoding: 277 277 215
Width: 493
GlyphClass: 2
Flags: W
LayerCount: 2
Fore
SplineSet
244 525 m 0,0,1
 183 525 183 525 150.5 565.5 c 128,-1,2
 118 606 118 606 118 649 c 1,3,-1
 146 649 l 1,4,5
 146 629 146 629 171.5 613 c 128,-1,6
 197 597 197 597 244 597 c 128,-1,7
 291 597 291 597 316.5 612.5 c 128,-1,8
 342 628 342 628 342 649 c 1,9,-1
 370 649 l 1,10,11
 370 605 370 605 338 565 c 128,-1,12
 306 525 306 525 244 525 c 0,0,1
134 241 m 1,13,14
 135 157 135 157 182.5 92.5 c 128,-1,15
 230 28 230 28 289 28 c 0,16,17
 376 28 376 28 429 94 c 1,18,-1
 453 82 l 1,19,20
 424 34 424 34 377.5 12 c 128,-1,21
 331 -10 331 -10 255 -10 c 0,22,23
 217 -10 217 -10 182 1.5 c 128,-1,24
 147 13 147 13 113 39.5 c 128,-1,25
 79 66 79 66 59 118 c 128,-1,26
 39 170 39 170 39 242 c 0,27,28
 39 330 39 330 93.5 390 c 128,-1,29
 148 450 148 450 245 450 c 0,30,31
 351 450 351 450 403 390.5 c 128,-1,32
 455 331 455 331 455 241 c 1,33,-1
 134 241 l 1,13,14
135 272 m 1,34,-1
 357 272 l 1,35,36
 351 344 351 344 326.5 382 c 128,-1,37
 302 420 302 420 241 420 c 0,38,39
 206 420 206 420 173.5 379 c 128,-1,40
 141 338 141 338 135 272 c 1,34,-1
EndSplineSet
EndChar

StartChar: Edotaccent
Encoding: 278 278 216
Width: 507
GlyphClass: 2
Flags: W
LayerCount: 2
Fore
SplineSet
217 672 m 128,-1,1
 217 693 217 693 232 708 c 128,-1,2
 247 723 247 723 268 723 c 128,-1,3
 289 723 289 723 304 708 c 128,-1,4
 319 693 319 693 319 672 c 128,-1,5
 319 651 319 651 304 636 c 128,-1,6
 289 621 289 621 268 621 c 128,-1,7
 247 621 247 621 232 636 c 128,-1,0
 217 651 217 651 217 672 c 128,-1,1
42 0 m 1,8,-1
 42 21 l 1,9,10
 96 21 96 21 105 41 c 1,11,-1
 105 544 l 1,12,13
 96 564 96 564 42 564 c 1,14,-1
 42 585 l 1,15,-1
 445 585 l 1,16,-1
 445 488 l 1,17,-1
 424 488 l 1,18,19
 424 542 424 542 404 551 c 1,20,-1
 197 551 l 1,21,-1
 197 321 l 1,22,-1
 337 321 l 1,23,24
 357 330 357 330 357 384 c 1,25,-1
 378 384 l 1,26,-1
 378 224 l 1,27,-1
 357 224 l 1,28,29
 357 278 357 278 337 287 c 1,30,-1
 197 287 l 1,31,-1
 197 34 l 1,32,-1
 425 34 l 1,33,34
 450 45 450 45 470 97 c 1,35,-1
 490 97 l 1,36,-1
 466 0 l 1,37,-1
 42 0 l 1,8,-1
EndSplineSet
EndChar

StartChar: edotaccent
Encoding: 279 279 217
Width: 493
GlyphClass: 2
Flags: W
LayerCount: 2
Fore
SplineSet
193 567 m 128,-1,1
 193 588 193 588 208 603 c 128,-1,2
 223 618 223 618 244 618 c 128,-1,3
 265 618 265 618 280 603 c 128,-1,4
 295 588 295 588 295 567 c 128,-1,5
 295 546 295 546 280 531 c 128,-1,6
 265 516 265 516 244 516 c 128,-1,7
 223 516 223 516 208 531 c 128,-1,0
 193 546 193 546 193 567 c 128,-1,1
134 241 m 1,8,9
 135 157 135 157 182.5 92.5 c 128,-1,10
 230 28 230 28 289 28 c 0,11,12
 376 28 376 28 429 94 c 1,13,-1
 453 82 l 1,14,15
 424 34 424 34 377.5 12 c 128,-1,16
 331 -10 331 -10 255 -10 c 0,17,18
 217 -10 217 -10 182 1.5 c 128,-1,19
 147 13 147 13 113 39.5 c 128,-1,20
 79 66 79 66 59 118 c 128,-1,21
 39 170 39 170 39 242 c 0,22,23
 39 330 39 330 93.5 390 c 128,-1,24
 148 450 148 450 245 450 c 0,25,26
 351 450 351 450 403 390.5 c 128,-1,27
 455 331 455 331 455 241 c 1,28,-1
 134 241 l 1,8,9
135 272 m 1,29,-1
 357 272 l 1,30,31
 351 344 351 344 326.5 382 c 128,-1,32
 302 420 302 420 241 420 c 0,33,34
 206 420 206 420 173.5 379 c 128,-1,35
 141 338 141 338 135 272 c 1,29,-1
EndSplineSet
EndChar

StartChar: Eogonek
Encoding: 280 280 218
Width: 507
GlyphClass: 2
Flags: W
LayerCount: 2
Fore
SplineSet
42 0 m 1,0,-1
 42 21 l 1,1,2
 96 21 96 21 105 41 c 1,3,-1
 105 544 l 1,4,5
 96 564 96 564 42 564 c 1,6,-1
 42 585 l 1,7,-1
 445 585 l 1,8,-1
 445 488 l 1,9,-1
 424 488 l 1,10,11
 424 542 424 542 404 551 c 1,12,-1
 197 551 l 1,13,-1
 197 321 l 1,14,-1
 337 321 l 1,15,16
 357 330 357 330 357 384 c 1,17,-1
 378 384 l 1,18,-1
 378 224 l 1,19,-1
 357 224 l 1,20,21
 357 278 357 278 337 287 c 1,22,-1
 197 287 l 1,23,-1
 197 34 l 1,24,-1
 425 34 l 1,25,26
 450 45 450 45 470 97 c 1,27,-1
 490 97 l 1,28,-1
 466 0 l 1,29,-1
 418 0 l 1,30,31
 391 -34 391 -34 391 -59 c 0,32,33
 391 -108 391 -108 418 -137 c 128,-1,34
 445 -166 445 -166 479 -166 c 0,35,36
 485 -166 485 -166 493 -162 c 128,-1,37
 501 -158 501 -158 506 -154 c 2,38,-1
 510 -150 l 1,39,-1
 521 -168 l 1,40,41
 519 -172 519 -172 514 -177 c 128,-1,42
 509 -182 509 -182 488.5 -191 c 128,-1,43
 468 -200 468 -200 442 -200 c 0,44,45
 393 -200 393 -200 367.5 -174.5 c 128,-1,46
 342 -149 342 -149 342 -103 c 0,47,48
 342 -45 342 -45 390 0 c 1,49,-1
 42 0 l 1,0,-1
EndSplineSet
EndChar

StartChar: eogonek
Encoding: 281 281 219
Width: 494
GlyphClass: 2
Flags: W
LayerCount: 2
Fore
SplineSet
136 272 m 1,0,-1
 358 272 l 1,1,2
 352 344 352 344 327.5 382 c 128,-1,3
 303 420 303 420 242 420 c 0,4,5
 207 420 207 420 174.5 379 c 128,-1,6
 142 338 142 338 136 272 c 1,0,-1
135 241 m 1,7,-1
 134 240 l 1,8,9
 135 156 135 156 182.5 91.5 c 128,-1,10
 230 27 230 27 289 27 c 0,11,12
 376 27 376 27 429 93 c 1,13,-1
 453 81 l 1,14,15
 407 5 407 5 305 -8 c 1,16,17
 284 -37 284 -37 284 -59 c 0,18,19
 284 -108 284 -108 311 -137 c 128,-1,20
 338 -166 338 -166 372 -166 c 0,21,22
 378 -166 378 -166 386 -162 c 128,-1,23
 394 -158 394 -158 398 -154 c 2,24,-1
 403 -150 l 1,25,-1
 414 -168 l 1,26,27
 412 -172 412 -172 407 -177 c 128,-1,28
 402 -182 402 -182 381.5 -191 c 128,-1,29
 361 -200 361 -200 335 -200 c 0,30,31
 286 -200 286 -200 260.5 -174.5 c 128,-1,32
 235 -149 235 -149 235 -103 c 0,33,34
 235 -51 235 -51 274 -10 c 1,35,-1
 256 -10 l 2,36,37
 218 -10 218 -10 183 1.5 c 128,-1,38
 148 13 148 13 114 39.5 c 128,-1,39
 80 66 80 66 60 118 c 128,-1,40
 40 170 40 170 40 242 c 0,41,42
 40 330 40 330 94.5 390 c 128,-1,43
 149 450 149 450 246 450 c 0,44,45
 352 450 352 450 404 390.5 c 128,-1,46
 456 331 456 331 456 241 c 1,47,-1
 135 241 l 1,7,-1
EndSplineSet
EndChar

StartChar: Ecaron
Encoding: 282 282 220
Width: 507
GlyphClass: 2
Flags: W
LayerCount: 2
Fore
SplineSet
244 620 m 1,0,-1
 150 782 l 1,1,-1
 176 782 l 1,2,-1
 269 695 l 1,3,-1
 362 782 l 1,4,-1
 388 782 l 1,5,-1
 294 620 l 1,6,-1
 244 620 l 1,0,-1
42 0 m 1,7,-1
 42 21 l 1,8,9
 96 21 96 21 105 41 c 1,10,-1
 105 544 l 1,11,12
 96 564 96 564 42 564 c 1,13,-1
 42 585 l 1,14,-1
 445 585 l 1,15,-1
 445 488 l 1,16,-1
 424 488 l 1,17,18
 424 542 424 542 404 551 c 1,19,-1
 197 551 l 1,20,-1
 197 321 l 1,21,-1
 337 321 l 1,22,23
 357 330 357 330 357 384 c 1,24,-1
 378 384 l 1,25,-1
 378 224 l 1,26,-1
 357 224 l 1,27,28
 357 278 357 278 337 287 c 1,29,-1
 197 287 l 1,30,-1
 197 34 l 1,31,-1
 425 34 l 1,32,33
 450 45 450 45 470 97 c 1,34,-1
 490 97 l 1,35,-1
 466 0 l 1,36,-1
 42 0 l 1,7,-1
EndSplineSet
EndChar

StartChar: ecaron
Encoding: 283 283 221
Width: 493
GlyphClass: 2
Flags: W
LayerCount: 2
Fore
SplineSet
220 515 m 1,0,-1
 126 677 l 1,1,-1
 152 677 l 1,2,-1
 245 590 l 1,3,-1
 338 677 l 1,4,-1
 364 677 l 1,5,-1
 270 515 l 1,6,-1
 220 515 l 1,0,-1
134 241 m 1,7,8
 135 157 135 157 182.5 92.5 c 128,-1,9
 230 28 230 28 289 28 c 0,10,11
 376 28 376 28 429 94 c 1,12,-1
 453 82 l 1,13,14
 424 34 424 34 377.5 12 c 128,-1,15
 331 -10 331 -10 255 -10 c 0,16,17
 217 -10 217 -10 182 1.5 c 128,-1,18
 147 13 147 13 113 39.5 c 128,-1,19
 79 66 79 66 59 118 c 128,-1,20
 39 170 39 170 39 242 c 0,21,22
 39 330 39 330 93.5 390 c 128,-1,23
 148 450 148 450 245 450 c 0,24,25
 351 450 351 450 403 390.5 c 128,-1,26
 455 331 455 331 455 241 c 1,27,-1
 134 241 l 1,7,8
135 272 m 1,28,-1
 357 272 l 1,29,30
 351 344 351 344 326.5 382 c 128,-1,31
 302 420 302 420 241 420 c 0,32,33
 206 420 206 420 173.5 379 c 128,-1,34
 141 338 141 338 135 272 c 1,28,-1
EndSplineSet
EndChar

StartChar: Gcircumflex
Encoding: 284 284 222
Width: 617
GlyphClass: 2
Flags: W
LayerCount: 2
Fore
SplineSet
367 782 m 1,0,-1
 461 620 l 1,1,-1
 435 620 l 1,2,-1
 342 707 l 1,3,-1
 249 620 l 1,4,-1
 223 620 l 1,5,-1
 317 782 l 1,6,-1
 367 782 l 1,0,-1
354 561 m 0,7,8
 268 561 268 561 206 480.5 c 128,-1,9
 144 400 144 400 144 286 c 0,10,11
 144 217 144 217 162 164 c 128,-1,12
 180 111 180 111 210 81.5 c 128,-1,13
 240 52 240 52 273 38 c 128,-1,14
 306 24 306 24 340 24 c 0,15,16
 396 24 396 24 446 43 c 1,17,-1
 446 248 l 1,18,19
 437 268 437 268 383 268 c 1,20,-1
 383 289 l 1,21,-1
 601 289 l 1,22,-1
 601 268 l 1,23,24
 547 268 547 268 538 248 c 1,25,-1
 538 80 l 1,26,27
 521 48 521 48 469.5 19 c 128,-1,28
 418 -10 418 -10 338 -10 c 0,29,30
 204 -10 204 -10 122 77 c 128,-1,31
 40 164 40 164 40 284 c 0,32,33
 40 423 40 423 134 509 c 128,-1,34
 228 595 228 595 353 595 c 0,35,36
 382 595 382 595 425 580 c 128,-1,37
 468 565 468 565 474 565 c 0,38,39
 486 565 486 565 486 585 c 1,40,-1
 509 585 l 1,41,-1
 519 458 l 1,42,-1
 497 458 l 1,43,44
 491 502 491 502 453 531.5 c 128,-1,45
 415 561 415 561 354 561 c 0,7,8
EndSplineSet
EndChar

StartChar: gcircumflex
Encoding: 285 285 223
Width: 520
GlyphClass: 2
Flags: W
LayerCount: 2
Fore
SplineSet
295 677 m 1,0,-1
 389 515 l 1,1,-1
 363 515 l 1,2,-1
 270 602 l 1,3,-1
 177 515 l 1,4,-1
 151 515 l 1,5,-1
 245 677 l 1,6,-1
 295 677 l 1,0,-1
452 450 m 1,7,-1
 452 29 l 2,8,9
 452 -74 452 -74 402.5 -137 c 128,-1,10
 353 -200 353 -200 258 -200 c 0,11,12
 173 -200 173 -200 121.5 -171 c 128,-1,13
 70 -142 70 -142 70 -110 c 0,14,15
 70 -87 70 -87 82 -73.5 c 128,-1,16
 94 -60 94 -60 113 -60 c 0,17,18
 131 -60 131 -60 144.5 -69 c 128,-1,19
 158 -78 158 -78 158 -95 c 0,20,21
 158 -127 158 -127 133 -137 c 1,22,23
 160 -164 160 -164 248 -164 c 0,24,25
 351 -164 351 -164 361 20 c 1,26,27
 315 -10 315 -10 243 -10 c 0,28,29
 210 -10 210 -10 177.5 0.5 c 128,-1,30
 145 11 145 11 112.5 35 c 128,-1,31
 80 59 80 59 59.5 106.5 c 128,-1,32
 39 154 39 154 39 218 c 0,33,34
 39 330 39 330 101.5 390 c 128,-1,35
 164 450 164 450 265 450 c 0,36,37
 328 450 328 450 375 418 c 1,38,39
 426 450 426 450 452 450 c 1,7,-1
362 53 m 1,40,-1
 362 65 l 1,41,-1
 362 395 l 1,42,43
 326 416 326 416 271 416 c 128,-1,44
 216 416 216 416 175 363.5 c 128,-1,45
 134 311 134 311 134 218 c 0,46,47
 134 130 134 130 167 77 c 128,-1,48
 200 24 200 24 253 24 c 0,49,50
 319 24 319 24 362 53 c 1,40,-1
EndSplineSet
EndChar

StartChar: Gbreve
Encoding: 286 286 224
Width: 617
GlyphClass: 2
Flags: W
LayerCount: 2
Fore
SplineSet
342 630 m 0,0,1
 281 630 281 630 248.5 670.5 c 128,-1,2
 216 711 216 711 216 754 c 1,3,-1
 244 754 l 1,4,5
 244 734 244 734 269.5 718 c 128,-1,6
 295 702 295 702 342 702 c 128,-1,7
 389 702 389 702 414.5 717.5 c 128,-1,8
 440 733 440 733 440 754 c 1,9,-1
 468 754 l 1,10,11
 468 710 468 710 436 670 c 128,-1,12
 404 630 404 630 342 630 c 0,0,1
354 561 m 0,13,14
 268 561 268 561 206 480.5 c 128,-1,15
 144 400 144 400 144 286 c 0,16,17
 144 217 144 217 162 164 c 128,-1,18
 180 111 180 111 210 81.5 c 128,-1,19
 240 52 240 52 273 38 c 128,-1,20
 306 24 306 24 340 24 c 0,21,22
 396 24 396 24 446 43 c 1,23,-1
 446 248 l 1,24,25
 437 268 437 268 383 268 c 1,26,-1
 383 289 l 1,27,-1
 601 289 l 1,28,-1
 601 268 l 1,29,30
 547 268 547 268 538 248 c 1,31,-1
 538 80 l 1,32,33
 521 48 521 48 469.5 19 c 128,-1,34
 418 -10 418 -10 338 -10 c 0,35,36
 204 -10 204 -10 122 77 c 128,-1,37
 40 164 40 164 40 284 c 0,38,39
 40 423 40 423 134 509 c 128,-1,40
 228 595 228 595 353 595 c 0,41,42
 382 595 382 595 425 580 c 128,-1,43
 468 565 468 565 474 565 c 0,44,45
 486 565 486 565 486 585 c 1,46,-1
 509 585 l 1,47,-1
 519 458 l 1,48,-1
 497 458 l 1,49,50
 491 502 491 502 453 531.5 c 128,-1,51
 415 561 415 561 354 561 c 0,13,14
EndSplineSet
EndChar

StartChar: gbreve
Encoding: 287 287 225
Width: 520
GlyphClass: 2
Flags: W
LayerCount: 2
Fore
SplineSet
270 525 m 0,0,1
 209 525 209 525 176.5 565.5 c 128,-1,2
 144 606 144 606 144 649 c 1,3,-1
 172 649 l 1,4,5
 172 629 172 629 197.5 613 c 128,-1,6
 223 597 223 597 270 597 c 128,-1,7
 317 597 317 597 342.5 612.5 c 128,-1,8
 368 628 368 628 368 649 c 1,9,-1
 396 649 l 1,10,11
 396 605 396 605 364 565 c 128,-1,12
 332 525 332 525 270 525 c 0,0,1
452 450 m 1,13,-1
 452 29 l 2,14,15
 452 -74 452 -74 402.5 -137 c 128,-1,16
 353 -200 353 -200 258 -200 c 0,17,18
 173 -200 173 -200 121.5 -171 c 128,-1,19
 70 -142 70 -142 70 -110 c 0,20,21
 70 -87 70 -87 82 -73.5 c 128,-1,22
 94 -60 94 -60 113 -60 c 0,23,24
 131 -60 131 -60 144.5 -69 c 128,-1,25
 158 -78 158 -78 158 -95 c 0,26,27
 158 -127 158 -127 133 -137 c 1,28,29
 160 -164 160 -164 248 -164 c 0,30,31
 351 -164 351 -164 361 20 c 1,32,33
 315 -10 315 -10 243 -10 c 0,34,35
 210 -10 210 -10 177.5 0.5 c 128,-1,36
 145 11 145 11 112.5 35 c 128,-1,37
 80 59 80 59 59.5 106.5 c 128,-1,38
 39 154 39 154 39 218 c 0,39,40
 39 330 39 330 101.5 390 c 128,-1,41
 164 450 164 450 265 450 c 0,42,43
 328 450 328 450 375 418 c 1,44,45
 426 450 426 450 452 450 c 1,13,-1
362 53 m 1,46,-1
 362 65 l 1,47,-1
 362 395 l 1,48,49
 326 416 326 416 271 416 c 128,-1,50
 216 416 216 416 175 363.5 c 128,-1,51
 134 311 134 311 134 218 c 0,52,53
 134 130 134 130 167 77 c 128,-1,54
 200 24 200 24 253 24 c 0,55,56
 319 24 319 24 362 53 c 1,46,-1
EndSplineSet
EndChar

StartChar: Gdotaccent
Encoding: 288 288 226
Width: 617
GlyphClass: 2
Flags: W
LayerCount: 2
Fore
SplineSet
291 672 m 128,-1,1
 291 693 291 693 306 708 c 128,-1,2
 321 723 321 723 342 723 c 128,-1,3
 363 723 363 723 378 708 c 128,-1,4
 393 693 393 693 393 672 c 128,-1,5
 393 651 393 651 378 636 c 128,-1,6
 363 621 363 621 342 621 c 128,-1,7
 321 621 321 621 306 636 c 128,-1,0
 291 651 291 651 291 672 c 128,-1,1
354 561 m 0,8,9
 268 561 268 561 206 480.5 c 128,-1,10
 144 400 144 400 144 286 c 0,11,12
 144 217 144 217 162 164 c 128,-1,13
 180 111 180 111 210 81.5 c 128,-1,14
 240 52 240 52 273 38 c 128,-1,15
 306 24 306 24 340 24 c 0,16,17
 396 24 396 24 446 43 c 1,18,-1
 446 248 l 1,19,20
 437 268 437 268 383 268 c 1,21,-1
 383 289 l 1,22,-1
 601 289 l 1,23,-1
 601 268 l 1,24,25
 547 268 547 268 538 248 c 1,26,-1
 538 80 l 1,27,28
 521 48 521 48 469.5 19 c 128,-1,29
 418 -10 418 -10 338 -10 c 0,30,31
 204 -10 204 -10 122 77 c 128,-1,32
 40 164 40 164 40 284 c 0,33,34
 40 423 40 423 134 509 c 128,-1,35
 228 595 228 595 353 595 c 0,36,37
 382 595 382 595 425 580 c 128,-1,38
 468 565 468 565 474 565 c 0,39,40
 486 565 486 565 486 585 c 1,41,-1
 509 585 l 1,42,-1
 519 458 l 1,43,-1
 497 458 l 1,44,45
 491 502 491 502 453 531.5 c 128,-1,46
 415 561 415 561 354 561 c 0,8,9
EndSplineSet
EndChar

StartChar: gdotaccent
Encoding: 289 289 227
Width: 520
GlyphClass: 2
Flags: W
LayerCount: 2
Fore
SplineSet
219 567 m 128,-1,1
 219 588 219 588 234 603 c 128,-1,2
 249 618 249 618 270 618 c 128,-1,3
 291 618 291 618 306 603 c 128,-1,4
 321 588 321 588 321 567 c 128,-1,5
 321 546 321 546 306 531 c 128,-1,6
 291 516 291 516 270 516 c 128,-1,7
 249 516 249 516 234 531 c 128,-1,0
 219 546 219 546 219 567 c 128,-1,1
452 450 m 1,8,-1
 452 29 l 2,9,10
 452 -74 452 -74 402.5 -137 c 128,-1,11
 353 -200 353 -200 258 -200 c 0,12,13
 173 -200 173 -200 121.5 -171 c 128,-1,14
 70 -142 70 -142 70 -110 c 0,15,16
 70 -87 70 -87 82 -73.5 c 128,-1,17
 94 -60 94 -60 113 -60 c 0,18,19
 131 -60 131 -60 144.5 -69 c 128,-1,20
 158 -78 158 -78 158 -95 c 0,21,22
 158 -127 158 -127 133 -137 c 1,23,24
 160 -164 160 -164 248 -164 c 0,25,26
 351 -164 351 -164 361 20 c 1,27,28
 315 -10 315 -10 243 -10 c 0,29,30
 210 -10 210 -10 177.5 0.5 c 128,-1,31
 145 11 145 11 112.5 35 c 128,-1,32
 80 59 80 59 59.5 106.5 c 128,-1,33
 39 154 39 154 39 218 c 0,34,35
 39 330 39 330 101.5 390 c 128,-1,36
 164 450 164 450 265 450 c 0,37,38
 328 450 328 450 375 418 c 1,39,40
 426 450 426 450 452 450 c 1,8,-1
362 53 m 1,41,-1
 362 65 l 1,42,-1
 362 395 l 1,43,44
 326 416 326 416 271 416 c 128,-1,45
 216 416 216 416 175 363.5 c 128,-1,46
 134 311 134 311 134 218 c 0,47,48
 134 130 134 130 167 77 c 128,-1,49
 200 24 200 24 253 24 c 0,50,51
 319 24 319 24 362 53 c 1,41,-1
EndSplineSet
EndChar

StartChar: Gcommaaccent
Encoding: 290 290 228
Width: 617
GlyphClass: 2
Flags: W
LayerCount: 2
Fore
SplineSet
327 -125 m 0,0,1
 276 -125 276 -125 276 -81 c 0,2,3
 276 -63 276 -63 286.5 -52.5 c 128,-1,4
 297 -42 297 -42 306 -40 c 128,-1,5
 315 -38 315 -38 322 -38 c 0,6,7
 360 -38 360 -38 387 -61.5 c 128,-1,8
 414 -85 414 -85 414 -125 c 0,9,10
 414 -209 414 -209 290 -248 c 1,11,-1
 290 -220 l 1,12,13
 315 -217 315 -217 341.5 -192.5 c 128,-1,14
 368 -168 368 -168 368 -137 c 0,15,16
 368 -119 368 -119 366 -115.5 c 128,-1,17
 364 -112 364 -112 358 -112 c 0,18,19
 355 -112 355 -112 346.5 -118.5 c 128,-1,20
 338 -125 338 -125 327 -125 c 0,0,1
354 561 m 0,21,22
 268 561 268 561 206 480.5 c 128,-1,23
 144 400 144 400 144 286 c 0,24,25
 144 217 144 217 162 164 c 128,-1,26
 180 111 180 111 210 81.5 c 128,-1,27
 240 52 240 52 273 38 c 128,-1,28
 306 24 306 24 340 24 c 0,29,30
 396 24 396 24 446 43 c 1,31,-1
 446 248 l 1,32,33
 437 268 437 268 383 268 c 1,34,-1
 383 289 l 1,35,-1
 601 289 l 1,36,-1
 601 268 l 1,37,38
 547 268 547 268 538 248 c 1,39,-1
 538 80 l 1,40,41
 521 48 521 48 469.5 19 c 128,-1,42
 418 -10 418 -10 338 -10 c 0,43,44
 204 -10 204 -10 122 77 c 128,-1,45
 40 164 40 164 40 284 c 0,46,47
 40 423 40 423 134 509 c 128,-1,48
 228 595 228 595 353 595 c 0,49,50
 382 595 382 595 425 580 c 128,-1,51
 468 565 468 565 474 565 c 0,52,53
 486 565 486 565 486 585 c 1,54,-1
 509 585 l 1,55,-1
 519 458 l 1,56,-1
 497 458 l 1,57,58
 491 502 491 502 453 531.5 c 128,-1,59
 415 561 415 561 354 561 c 0,21,22
EndSplineSet
EndChar

StartChar: gcommaaccent
Encoding: 291 291 229
Width: 520
GlyphClass: 2
Flags: W
LayerCount: 2
Fore
SplineSet
265 603 m 0,0,1
 316 603 316 603 316 559 c 0,2,3
 316 541 316 541 305.5 530.5 c 128,-1,4
 295 520 295 520 286 518 c 128,-1,5
 277 516 277 516 270 516 c 0,6,7
 232 516 232 516 205 539.5 c 128,-1,8
 178 563 178 563 178 603 c 0,9,10
 178 687 178 687 302 726 c 1,11,-1
 302 698 l 1,12,13
 277 695 277 695 250.5 670.5 c 128,-1,14
 224 646 224 646 224 615 c 0,15,16
 224 597 224 597 226 593.5 c 128,-1,17
 228 590 228 590 234 590 c 0,18,19
 237 590 237 590 245.5 596.5 c 128,-1,20
 254 603 254 603 265 603 c 0,0,1
452 450 m 1,21,-1
 452 29 l 2,22,23
 452 -74 452 -74 402.5 -137 c 128,-1,24
 353 -200 353 -200 258 -200 c 0,25,26
 173 -200 173 -200 121.5 -171 c 128,-1,27
 70 -142 70 -142 70 -110 c 0,28,29
 70 -87 70 -87 82 -73.5 c 128,-1,30
 94 -60 94 -60 113 -60 c 0,31,32
 131 -60 131 -60 144.5 -69 c 128,-1,33
 158 -78 158 -78 158 -95 c 0,34,35
 158 -127 158 -127 133 -137 c 1,36,37
 160 -164 160 -164 248 -164 c 0,38,39
 351 -164 351 -164 361 20 c 1,40,41
 315 -10 315 -10 243 -10 c 0,42,43
 210 -10 210 -10 177.5 0.5 c 128,-1,44
 145 11 145 11 112.5 35 c 128,-1,45
 80 59 80 59 59.5 106.5 c 128,-1,46
 39 154 39 154 39 218 c 0,47,48
 39 330 39 330 101.5 390 c 128,-1,49
 164 450 164 450 265 450 c 0,50,51
 328 450 328 450 375 418 c 1,52,53
 426 450 426 450 452 450 c 1,21,-1
362 53 m 1,54,-1
 362 65 l 1,55,-1
 362 395 l 1,56,57
 326 416 326 416 271 416 c 128,-1,58
 216 416 216 416 175 363.5 c 128,-1,59
 134 311 134 311 134 218 c 0,60,61
 134 130 134 130 167 77 c 128,-1,62
 200 24 200 24 253 24 c 0,63,64
 319 24 319 24 362 53 c 1,54,-1
EndSplineSet
EndChar

StartChar: Hcircumflex
Encoding: 292 292 230
Width: 650
GlyphClass: 2
Flags: W
LayerCount: 2
Fore
SplineSet
351 782 m 1,0,-1
 445 620 l 1,1,-1
 419 620 l 1,2,-1
 326 707 l 1,3,-1
 233 620 l 1,4,-1
 207 620 l 1,5,-1
 301 782 l 1,6,-1
 351 782 l 1,0,-1
42 0 m 1,7,-1
 42 21 l 1,8,9
 96 21 96 21 105 41 c 1,10,-1
 105 544 l 1,11,12
 96 564 96 564 42 564 c 1,13,-1
 42 585 l 1,14,-1
 260 585 l 1,15,-1
 260 564 l 1,16,17
 206 564 206 564 197 544 c 1,18,-1
 197 321 l 1,19,-1
 453 321 l 1,20,-1
 453 544 l 1,21,22
 444 564 444 564 390 564 c 1,23,-1
 390 585 l 1,24,-1
 608 585 l 1,25,-1
 608 564 l 1,26,27
 554 564 554 564 545 544 c 1,28,-1
 545 41 l 1,29,30
 554 21 554 21 608 21 c 1,31,-1
 608 0 l 1,32,-1
 390 0 l 1,33,-1
 390 21 l 1,34,35
 444 21 444 21 453 41 c 1,36,-1
 453 287 l 1,37,-1
 197 287 l 1,38,-1
 197 41 l 1,39,40
 206 21 206 21 260 21 c 1,41,-1
 260 0 l 1,42,-1
 42 0 l 1,7,-1
EndSplineSet
EndChar

StartChar: hcircumflex
Encoding: 293 293 231
Width: 550
GlyphClass: 2
Flags: W
LayerCount: 2
Fore
SplineSet
156 817 m 1,0,-1
 250 655 l 1,1,-1
 224 655 l 1,2,-1
 131 742 l 1,3,-1
 38 655 l 1,4,-1
 12 655 l 1,5,-1
 106 817 l 1,6,-1
 156 817 l 1,0,-1
21 0 m 1,7,-1
 21 21 l 1,8,9
 75 21 75 21 84 41 c 1,10,-1
 84 559 l 1,11,12
 22 564 22 564 21 564 c 1,13,-1
 21 587 l 1,14,15
 40 587 40 587 95.5 608.5 c 128,-1,16
 151 630 151 630 174 630 c 1,17,-1
 174 404 l 1,18,19
 228 450 228 450 293 450 c 0,20,21
 388 450 388 450 428.5 419 c 128,-1,22
 469 388 469 388 469 312 c 2,23,-1
 469 41 l 1,24,25
 478 21 478 21 532 21 c 1,26,-1
 532 0 l 1,27,-1
 316 0 l 1,28,-1
 316 21 l 1,29,30
 370 21 370 21 379 41 c 1,31,-1
 379 319 l 2,32,33
 379 416 379 416 287 416 c 0,34,35
 224 416 224 416 174 372 c 1,36,-1
 174 41 l 1,37,38
 183 21 183 21 237 21 c 1,39,-1
 237 0 l 1,40,-1
 21 0 l 1,7,-1
EndSplineSet
EndChar

StartChar: Hbar
Encoding: 294 294 232
Width: 650
GlyphClass: 2
Flags: W
LayerCount: 2
Fore
SplineSet
42 0 m 1,0,-1
 42 21 l 1,1,2
 96 21 96 21 105 41 c 1,3,-1
 105 403 l 1,4,-1
 70 403 l 1,5,-1
 70 437 l 1,6,-1
 105 437 l 1,7,-1
 105 544 l 1,8,9
 96 564 96 564 42 564 c 1,10,-1
 42 585 l 1,11,-1
 260 585 l 1,12,-1
 260 564 l 1,13,14
 206 564 206 564 197 544 c 1,15,-1
 197 437 l 1,16,-1
 453 437 l 1,17,-1
 453 544 l 1,18,19
 444 564 444 564 390 564 c 1,20,-1
 390 585 l 1,21,-1
 608 585 l 1,22,-1
 608 564 l 1,23,24
 554 564 554 564 545 544 c 1,25,-1
 545 437 l 1,26,-1
 578 437 l 1,27,-1
 578 403 l 1,28,-1
 545 403 l 1,29,-1
 545 41 l 1,30,31
 554 21 554 21 608 21 c 1,32,-1
 608 0 l 1,33,-1
 390 0 l 1,34,-1
 390 21 l 1,35,36
 444 21 444 21 453 41 c 1,37,-1
 453 287 l 1,38,-1
 197 287 l 1,39,-1
 197 41 l 1,40,41
 206 21 206 21 260 21 c 1,42,-1
 260 0 l 1,43,-1
 42 0 l 1,0,-1
453 403 m 1,44,-1
 197 403 l 1,45,-1
 197 321 l 1,46,-1
 453 321 l 1,47,-1
 453 403 l 1,44,-1
EndSplineSet
EndChar

StartChar: hbar
Encoding: 295 295 233
Width: 550
GlyphClass: 2
Flags: W
LayerCount: 2
Fore
SplineSet
21 0 m 1,0,-1
 21 21 l 1,1,2
 75 21 75 21 84 41 c 1,3,-1
 84 499 l 1,4,-1
 24 499 l 1,5,-1
 24 533 l 1,6,-1
 84 533 l 1,7,-1
 84 559 l 1,8,9
 22 564 22 564 21 564 c 1,10,-1
 21 587 l 1,11,12
 40 587 40 587 95.5 608.5 c 128,-1,13
 151 630 151 630 174 630 c 1,14,-1
 174 533 l 1,15,-1
 288 533 l 1,16,-1
 288 499 l 1,17,-1
 174 499 l 1,18,-1
 174 404 l 1,19,20
 228 450 228 450 293 450 c 0,21,22
 388 450 388 450 428.5 419 c 128,-1,23
 469 388 469 388 469 312 c 2,24,-1
 469 41 l 1,25,26
 478 21 478 21 532 21 c 1,27,-1
 532 0 l 1,28,-1
 316 0 l 1,29,-1
 316 21 l 1,30,31
 370 21 370 21 379 41 c 1,32,-1
 379 319 l 2,33,34
 379 416 379 416 287 416 c 0,35,36
 224 416 224 416 174 372 c 1,37,-1
 174 41 l 1,38,39
 183 21 183 21 237 21 c 1,40,-1
 237 0 l 1,41,-1
 21 0 l 1,0,-1
EndSplineSet
EndChar

StartChar: Itilde
Encoding: 296 296 234
Width: 302
GlyphClass: 2
Flags: W
LayerCount: 2
Fore
SplineSet
224 620 m 0,0,1
 202 620 202 620 142.5 649.5 c 128,-1,2
 83 679 83 679 69 679 c 0,3,4
 41 679 41 679 30 664.5 c 128,-1,5
 19 650 19 650 19 620 c 1,6,-1
 0 620 l 1,7,8
 0 732 0 732 76 732 c 0,9,10
 98 732 98 732 158 702.5 c 128,-1,11
 218 673 218 673 232 673 c 0,12,13
 260 673 260 673 271 687.5 c 128,-1,14
 282 702 282 702 282 732 c 1,15,-1
 301 732 l 1,16,17
 301 620 301 620 224 620 c 0,0,1
42 0 m 1,18,-1
 42 21 l 1,19,20
 96 21 96 21 105 41 c 1,21,-1
 105 544 l 1,22,23
 96 564 96 564 42 564 c 1,24,-1
 42 585 l 1,25,-1
 260 585 l 1,26,-1
 260 564 l 1,27,28
 206 564 206 564 197 544 c 1,29,-1
 197 41 l 1,30,31
 206 21 206 21 260 21 c 1,32,-1
 260 0 l 1,33,-1
 42 0 l 1,18,-1
EndSplineSet
EndChar

StartChar: itilde
Encoding: 297 297 235
Width: 268
GlyphClass: 2
Flags: W
LayerCount: 2
Fore
SplineSet
216 515 m 0,0,1
 194 515 194 515 134.5 544.5 c 128,-1,2
 75 574 75 574 61 574 c 0,3,4
 33 574 33 574 22 559.5 c 128,-1,5
 11 545 11 545 11 515 c 1,6,-1
 -8 515 l 1,7,8
 -8 627 -8 627 68 627 c 0,9,10
 90 627 90 627 150 597.5 c 128,-1,11
 210 568 210 568 224 568 c 0,12,13
 252 568 252 568 263 582.5 c 128,-1,14
 274 597 274 597 274 627 c 1,15,-1
 293 627 l 1,16,17
 293 515 293 515 216 515 c 0,0,1
31 0 m 1,18,-1
 31 21 l 1,19,20
 85 21 85 21 94 41 c 1,21,-1
 94 379 l 1,22,23
 32 384 32 384 31 384 c 1,24,-1
 31 407 l 1,25,26
 50 407 50 407 105.5 428.5 c 128,-1,27
 161 450 161 450 184 450 c 1,28,-1
 184 41 l 1,29,30
 193 21 193 21 247 21 c 1,31,-1
 247 0 l 1,32,-1
 31 0 l 1,18,-1
EndSplineSet
EndChar

StartChar: Imacron
Encoding: 298 298 236
Width: 302
GlyphClass: 2
Flags: W
LayerCount: 2
Fore
SplineSet
18 678 m 1,0,-1
 282 678 l 1,1,-1
 282 634 l 1,2,-1
 18 634 l 1,3,-1
 18 678 l 1,0,-1
42 0 m 1,4,-1
 42 21 l 1,5,6
 96 21 96 21 105 41 c 1,7,-1
 105 544 l 1,8,9
 96 564 96 564 42 564 c 1,10,-1
 42 585 l 1,11,-1
 260 585 l 1,12,-1
 260 564 l 1,13,14
 206 564 206 564 197 544 c 1,15,-1
 197 41 l 1,16,17
 206 21 206 21 260 21 c 1,18,-1
 260 0 l 1,19,-1
 42 0 l 1,4,-1
EndSplineSet
EndChar

StartChar: imacron
Encoding: 299 299 237
Width: 268
GlyphClass: 2
Flags: W
LayerCount: 2
Fore
SplineSet
3 573 m 1,0,-1
 267 573 l 1,1,-1
 267 529 l 1,2,-1
 3 529 l 1,3,-1
 3 573 l 1,0,-1
31 0 m 1,4,-1
 31 21 l 1,5,6
 85 21 85 21 94 41 c 1,7,-1
 94 379 l 1,8,9
 32 384 32 384 31 384 c 1,10,-1
 31 407 l 1,11,12
 50 407 50 407 105.5 428.5 c 128,-1,13
 161 450 161 450 184 450 c 1,14,-1
 184 41 l 1,15,16
 193 21 193 21 247 21 c 1,17,-1
 247 0 l 1,18,-1
 31 0 l 1,4,-1
EndSplineSet
EndChar

StartChar: Ibreve
Encoding: 300 300 238
Width: 302
GlyphClass: 2
Flags: W
LayerCount: 2
Fore
SplineSet
149 630 m 0,0,1
 88 630 88 630 55.5 670.5 c 128,-1,2
 23 711 23 711 23 754 c 1,3,-1
 51 754 l 1,4,5
 51 734 51 734 76.5 718 c 128,-1,6
 102 702 102 702 149 702 c 128,-1,7
 196 702 196 702 221.5 717.5 c 128,-1,8
 247 733 247 733 247 754 c 1,9,-1
 275 754 l 1,10,11
 275 710 275 710 243 670 c 128,-1,12
 211 630 211 630 149 630 c 0,0,1
42 0 m 1,13,-1
 42 21 l 1,14,15
 96 21 96 21 105 41 c 1,16,-1
 105 544 l 1,17,18
 96 564 96 564 42 564 c 1,19,-1
 42 585 l 1,20,-1
 260 585 l 1,21,-1
 260 564 l 1,22,23
 206 564 206 564 197 544 c 1,24,-1
 197 41 l 1,25,26
 206 21 206 21 260 21 c 1,27,-1
 260 0 l 1,28,-1
 42 0 l 1,13,-1
EndSplineSet
EndChar

StartChar: ibreve
Encoding: 301 301 239
Width: 268
GlyphClass: 2
Flags: W
LayerCount: 2
Fore
SplineSet
141 525 m 0,0,1
 80 525 80 525 47.5 565.5 c 128,-1,2
 15 606 15 606 15 649 c 1,3,-1
 43 649 l 1,4,5
 43 629 43 629 68.5 613 c 128,-1,6
 94 597 94 597 141 597 c 128,-1,7
 188 597 188 597 213.5 612.5 c 128,-1,8
 239 628 239 628 239 649 c 1,9,-1
 267 649 l 1,10,11
 267 605 267 605 235 565 c 128,-1,12
 203 525 203 525 141 525 c 0,0,1
31 0 m 1,13,-1
 31 21 l 1,14,15
 85 21 85 21 94 41 c 1,16,-1
 94 379 l 1,17,18
 32 384 32 384 31 384 c 1,19,-1
 31 407 l 1,20,21
 50 407 50 407 105.5 428.5 c 128,-1,22
 161 450 161 450 184 450 c 1,23,-1
 184 41 l 1,24,25
 193 21 193 21 247 21 c 1,26,-1
 247 0 l 1,27,-1
 31 0 l 1,13,-1
EndSplineSet
EndChar

StartChar: Iogonek
Encoding: 302 302 240
Width: 302
GlyphClass: 2
Flags: W
LayerCount: 2
Fore
SplineSet
42 0 m 1,0,-1
 42 21 l 1,1,2
 96 21 96 21 105 41 c 1,3,-1
 105 544 l 1,4,5
 96 564 96 564 42 564 c 1,6,-1
 42 585 l 1,7,-1
 260 585 l 1,8,-1
 260 564 l 1,9,10
 206 564 206 564 197 544 c 1,11,-1
 197 41 l 1,12,13
 206 21 206 21 260 21 c 1,14,-1
 260 0 l 1,15,-1
 213 0 l 1,16,17
 186 -34 186 -34 186 -59 c 0,18,19
 186 -108 186 -108 213 -137 c 128,-1,20
 240 -166 240 -166 274 -166 c 0,21,22
 280 -166 280 -166 288 -162 c 128,-1,23
 296 -158 296 -158 300 -154 c 2,24,-1
 305 -150 l 1,25,-1
 316 -168 l 1,26,27
 314 -172 314 -172 309 -177 c 128,-1,28
 304 -182 304 -182 283.5 -191 c 128,-1,29
 263 -200 263 -200 237 -200 c 0,30,31
 188 -200 188 -200 162.5 -174.5 c 128,-1,32
 137 -149 137 -149 137 -103 c 0,33,34
 137 -45 137 -45 185 0 c 1,35,-1
 42 0 l 1,0,-1
EndSplineSet
EndChar

StartChar: iogonek
Encoding: 303 303 241
Width: 268
GlyphClass: 2
Flags: W
LayerCount: 2
Fore
SplineSet
136 514 m 0,0,1
 114 514 114 514 97.5 530.5 c 128,-1,2
 81 547 81 547 81 573 c 0,3,4
 81 596 81 596 95.5 613 c 128,-1,5
 110 630 110 630 133 630 c 0,6,7
 155 630 155 630 172 613 c 128,-1,8
 189 596 189 596 189 570 c 0,9,10
 189 547 189 547 174 530.5 c 128,-1,11
 159 514 159 514 136 514 c 0,0,1
31 0 m 1,12,-1
 31 21 l 1,13,14
 85 21 85 21 94 41 c 1,15,-1
 94 379 l 1,16,17
 32 384 32 384 31 384 c 1,18,-1
 31 407 l 1,19,20
 50 407 50 407 105.5 428.5 c 128,-1,21
 161 450 161 450 184 450 c 1,22,-1
 184 41 l 1,23,24
 193 21 193 21 247 21 c 1,25,-1
 247 0 l 1,26,-1
 188 0 l 1,27,28
 161 -34 161 -34 161 -59 c 0,29,30
 161 -108 161 -108 188 -137 c 128,-1,31
 215 -166 215 -166 249 -166 c 0,32,33
 255 -166 255 -166 263 -162 c 128,-1,34
 271 -158 271 -158 276 -154 c 2,35,-1
 280 -150 l 1,36,-1
 291 -168 l 1,37,38
 289 -172 289 -172 284 -177 c 128,-1,39
 279 -182 279 -182 258.5 -191 c 128,-1,40
 238 -200 238 -200 212 -200 c 0,41,42
 163 -200 163 -200 137.5 -174.5 c 128,-1,43
 112 -149 112 -149 112 -103 c 0,44,45
 112 -45 112 -45 160 0 c 1,46,-1
 31 0 l 1,12,-1
EndSplineSet
EndChar

StartChar: Idotaccent
Encoding: 304 304 242
Width: 302
GlyphClass: 2
Flags: W
LayerCount: 2
Fore
SplineSet
98 672 m 128,-1,1
 98 693 98 693 113 708 c 128,-1,2
 128 723 128 723 149 723 c 128,-1,3
 170 723 170 723 185 708 c 128,-1,4
 200 693 200 693 200 672 c 128,-1,5
 200 651 200 651 185 636 c 128,-1,6
 170 621 170 621 149 621 c 128,-1,7
 128 621 128 621 113 636 c 128,-1,0
 98 651 98 651 98 672 c 128,-1,1
42 0 m 1,8,-1
 42 21 l 1,9,10
 96 21 96 21 105 41 c 1,11,-1
 105 544 l 1,12,13
 96 564 96 564 42 564 c 1,14,-1
 42 585 l 1,15,-1
 260 585 l 1,16,-1
 260 564 l 1,17,18
 206 564 206 564 197 544 c 1,19,-1
 197 41 l 1,20,21
 206 21 206 21 260 21 c 1,22,-1
 260 0 l 1,23,-1
 42 0 l 1,8,-1
EndSplineSet
EndChar

StartChar: dotlessi
Encoding: 305 305 243
Width: 268
GlyphClass: 2
Flags: W
AnchorPoint: "Anchor-5" 134 0 basechar 0
AnchorPoint: "Anchor-4" 176 0 basechar 0
AnchorPoint: "Anchor-3" 134 0 basechar 0
AnchorPoint: "Anchor-2" 140 260 basechar 0
AnchorPoint: "Anchor-0" 141 515 basechar 0
LayerCount: 2
Fore
SplineSet
31 0 m 1,0,-1
 31 21 l 1,1,2
 85 21 85 21 94 41 c 1,3,-1
 94 379 l 1,4,5
 32 384 32 384 31 384 c 1,6,-1
 31 407 l 1,7,8
 50 407 50 407 105.5 428.5 c 128,-1,9
 161 450 161 450 184 450 c 1,10,-1
 184 41 l 1,11,12
 193 21 193 21 247 21 c 1,13,-1
 247 0 l 1,14,-1
 31 0 l 1,0,-1
EndSplineSet
EndChar

StartChar: IJ
Encoding: 306 306 244
Width: 687
GlyphClass: 2
Flags: W
LayerCount: 2
Fore
SplineSet
598 172 m 2,0,1
 598 137 598 137 590 107 c 128,-1,2
 582 77 582 77 564.5 49.5 c 128,-1,3
 547 22 547 22 513 6 c 128,-1,4
 479 -10 479 -10 432 -10 c 0,5,6
 361 -10 361 -10 321.5 18.5 c 128,-1,7
 282 47 282 47 282 80 c 0,8,9
 282 103 282 103 294 116.5 c 128,-1,10
 306 130 306 130 325 130 c 0,11,12
 343 130 343 130 356.5 121 c 128,-1,13
 370 112 370 112 370 95 c 0,14,15
 370 61 370 61 345 53 c 1,16,17
 372 26 372 26 422 26 c 0,18,19
 445 26 445 26 461 34.5 c 128,-1,20
 477 43 477 43 486 56.5 c 128,-1,21
 495 70 495 70 499.5 95.5 c 128,-1,22
 504 121 504 121 505 144.5 c 128,-1,23
 506 168 506 168 506 208 c 2,24,-1
 506 544 l 1,25,26
 497 564 497 564 443 564 c 1,27,-1
 443 585 l 1,28,-1
 661 585 l 1,29,-1
 661 564 l 1,30,31
 607 564 607 564 598 544 c 1,32,-1
 598 172 l 2,0,1
42 0 m 1,33,-1
 42 21 l 1,34,35
 96 21 96 21 105 41 c 1,36,-1
 105 544 l 1,37,38
 96 564 96 564 42 564 c 1,39,-1
 42 585 l 1,40,-1
 260 585 l 1,41,-1
 260 564 l 1,42,43
 206 564 206 564 197 544 c 1,44,-1
 197 41 l 1,45,46
 206 21 206 21 260 21 c 1,47,-1
 260 0 l 1,48,-1
 42 0 l 1,33,-1
EndSplineSet
EndChar

StartChar: ij
Encoding: 307 307 245
Width: 509
GlyphClass: 2
Flags: W
LayerCount: 2
Fore
SplineSet
393 514 m 0,0,1
 371 514 371 514 354.5 530.5 c 128,-1,2
 338 547 338 547 338 573 c 0,3,4
 338 596 338 596 352.5 613 c 128,-1,5
 367 630 367 630 390 630 c 0,6,7
 412 630 412 630 429 613 c 128,-1,8
 446 596 446 596 446 570 c 0,9,10
 446 547 446 547 431 530.5 c 128,-1,11
 416 514 416 514 393 514 c 0,0,1
351 379 m 1,12,-1
 288 384 l 1,13,-1
 288 407 l 1,14,15
 307 407 307 407 362.5 428.5 c 128,-1,16
 418 450 418 450 441 450 c 1,17,-1
 441 -44 l 2,18,19
 441 -125 441 -125 402.5 -162.5 c 128,-1,20
 364 -200 364 -200 307 -200 c 0,21,22
 177 -200 177 -200 177 -113 c 0,23,24
 177 -95 177 -95 190.5 -84 c 128,-1,25
 204 -73 204 -73 220 -73 c 128,-1,26
 236 -73 236 -73 247.5 -84 c 128,-1,27
 259 -95 259 -95 259 -112 c 0,28,29
 259 -126 259 -126 249 -136 c 1,30,31
 249 -153 249 -153 263 -161.5 c 128,-1,32
 277 -170 277 -170 297 -170 c 128,-1,33
 317 -170 317 -170 334 -140.5 c 128,-1,34
 351 -111 351 -111 351 -58 c 2,35,-1
 351 379 l 1,12,-1
31 0 m 1,36,-1
 31 21 l 1,37,38
 85 21 85 21 94 41 c 1,39,-1
 94 379 l 1,40,41
 32 384 32 384 31 384 c 1,42,-1
 31 407 l 1,43,44
 50 407 50 407 105.5 428.5 c 128,-1,45
 161 450 161 450 184 450 c 1,46,-1
 184 41 l 1,47,48
 193 21 193 21 247 21 c 1,49,-1
 247 0 l 1,50,-1
 31 0 l 1,36,-1
136 514 m 0,51,52
 114 514 114 514 97.5 530.5 c 128,-1,53
 81 547 81 547 81 573 c 0,54,55
 81 596 81 596 95.5 613 c 128,-1,56
 110 630 110 630 133 630 c 0,57,58
 155 630 155 630 172 613 c 128,-1,59
 189 596 189 596 189 570 c 0,60,61
 189 547 189 547 174 530.5 c 128,-1,62
 159 514 159 514 136 514 c 0,51,52
EndSplineSet
EndChar

StartChar: Jcircumflex
Encoding: 308 308 246
Width: 412
GlyphClass: 2
Flags: W
LayerCount: 2
Fore
SplineSet
303 782 m 1,0,-1
 397 620 l 1,1,-1
 371 620 l 1,2,-1
 278 707 l 1,3,-1
 185 620 l 1,4,-1
 159 620 l 1,5,-1
 253 782 l 1,6,-1
 303 782 l 1,0,-1
323 172 m 2,7,8
 323 137 323 137 315 107 c 128,-1,9
 307 77 307 77 289.5 49.5 c 128,-1,10
 272 22 272 22 238 6 c 128,-1,11
 204 -10 204 -10 157 -10 c 0,12,13
 86 -10 86 -10 46.5 18.5 c 128,-1,14
 7 47 7 47 7 80 c 0,15,16
 7 103 7 103 19 116.5 c 128,-1,17
 31 130 31 130 50 130 c 0,18,19
 68 130 68 130 81.5 121 c 128,-1,20
 95 112 95 112 95 95 c 0,21,22
 95 61 95 61 70 53 c 1,23,24
 97 26 97 26 147 26 c 0,25,26
 170 26 170 26 186 34.5 c 128,-1,27
 202 43 202 43 211 56.5 c 128,-1,28
 220 70 220 70 224.5 95.5 c 128,-1,29
 229 121 229 121 230 144.5 c 128,-1,30
 231 168 231 168 231 208 c 2,31,-1
 231 544 l 1,32,33
 222 564 222 564 168 564 c 1,34,-1
 168 585 l 1,35,-1
 386 585 l 1,36,-1
 386 564 l 1,37,38
 332 564 332 564 323 544 c 1,39,-1
 323 172 l 2,7,8
EndSplineSet
EndChar

StartChar: jcircumflex
Encoding: 309 309 247
Width: 243
GlyphClass: 2
Flags: W
LayerCount: 2
Fore
SplineSet
152 677 m 1,0,-1
 246 515 l 1,1,-1
 220 515 l 1,2,-1
 127 602 l 1,3,-1
 34 515 l 1,4,-1
 8 515 l 1,5,-1
 102 677 l 1,6,-1
 152 677 l 1,0,-1
85 379 m 1,7,8
 85 379 85 379 22 384 c 1,9,-1
 22 407 l 1,10,11
 41 407 41 407 96.5 428.5 c 128,-1,12
 152 450 152 450 175 450 c 1,13,-1
 175 -44 l 2,14,15
 175 -125 175 -125 136.5 -162.5 c 128,-1,16
 98 -200 98 -200 41 -200 c 0,17,18
 -89 -200 -89 -200 -89 -113 c 0,19,20
 -89 -95 -89 -95 -75.5 -84 c 128,-1,21
 -62 -73 -62 -73 -46 -73 c 128,-1,22
 -30 -73 -30 -73 -18.5 -84 c 128,-1,23
 -7 -95 -7 -95 -7 -112 c 0,24,25
 -7 -126 -7 -126 -17 -136 c 1,26,27
 -17 -153 -17 -153 -3 -161.5 c 128,-1,28
 11 -170 11 -170 31 -170 c 128,-1,29
 51 -170 51 -170 68 -140.5 c 128,-1,30
 85 -111 85 -111 85 -58 c 2,31,-1
 85 379 l 1,7,8
EndSplineSet
EndChar

StartChar: Kcommaaccent
Encoding: 310 310 248
Width: 579
GlyphClass: 2
Flags: W
LayerCount: 2
Fore
SplineSet
315 -125 m 0,0,1
 264 -125 264 -125 264 -81 c 0,2,3
 264 -63 264 -63 274.5 -52.5 c 128,-1,4
 285 -42 285 -42 294 -40 c 128,-1,5
 303 -38 303 -38 310 -38 c 0,6,7
 348 -38 348 -38 375 -61.5 c 128,-1,8
 402 -85 402 -85 402 -125 c 0,9,10
 402 -209 402 -209 278 -248 c 1,11,-1
 278 -220 l 1,12,13
 303 -217 303 -217 329.5 -192.5 c 128,-1,14
 356 -168 356 -168 356 -137 c 0,15,16
 356 -119 356 -119 354 -115.5 c 128,-1,17
 352 -112 352 -112 346 -112 c 0,18,19
 343 -112 343 -112 334.5 -118.5 c 128,-1,20
 326 -125 326 -125 315 -125 c 0,0,1
41 0 m 1,21,-1
 41 21 l 1,22,23
 95 21 95 21 104 41 c 1,24,-1
 104 544 l 1,25,26
 95 564 95 564 41 564 c 1,27,-1
 41 585 l 1,28,-1
 257 585 l 1,29,-1
 257 564 l 1,30,31
 203 564 203 564 194 544 c 1,32,-1
 194 41 l 1,33,34
 203 21 203 21 257 21 c 1,35,-1
 257 0 l 1,36,-1
 41 0 l 1,21,-1
390 0 m 1,37,-1
 390 21 l 1,38,39
 414 21 414 21 427 24 c 1,40,-1
 199 314 l 1,41,-1
 444 557 l 1,42,43
 430 564 430 564 393 564 c 1,44,-1
 393 585 l 1,45,-1
 550 585 l 1,46,-1
 550 564 l 1,47,48
 508 564 508 564 488 541 c 1,49,-1
 287 342 l 1,50,-1
 522 37 l 1,51,52
 538 21 538 21 585 21 c 1,53,-1
 585 0 l 1,54,-1
 390 0 l 1,37,-1
EndSplineSet
EndChar

StartChar: kcommaaccent
Encoding: 311 311 249
Width: 503
GlyphClass: 2
Flags: W
LayerCount: 2
Fore
SplineSet
274 -125 m 0,0,1
 223 -125 223 -125 223 -81 c 0,2,3
 223 -63 223 -63 233.5 -52.5 c 128,-1,4
 244 -42 244 -42 253 -40 c 128,-1,5
 262 -38 262 -38 269 -38 c 0,6,7
 307 -38 307 -38 334 -61.5 c 128,-1,8
 361 -85 361 -85 361 -125 c 0,9,10
 361 -209 361 -209 237 -248 c 1,11,-1
 237 -220 l 1,12,13
 262 -217 262 -217 288.5 -192.5 c 128,-1,14
 315 -168 315 -168 315 -137 c 0,15,16
 315 -119 315 -119 313.5 -115.5 c 128,-1,17
 312 -112 312 -112 305 -112 c 0,18,19
 302 -112 302 -112 293.5 -118.5 c 128,-1,20
 285 -125 285 -125 274 -125 c 0,0,1
21 0 m 1,21,-1
 21 21 l 1,22,23
 75 21 75 21 84 41 c 1,24,-1
 84 559 l 1,25,26
 22 564 22 564 21 564 c 1,27,-1
 21 587 l 1,28,29
 40 587 40 587 95.5 608.5 c 128,-1,30
 151 630 151 630 174 630 c 1,31,-1
 174 41 l 1,32,33
 183 21 183 21 237 21 c 1,34,-1
 237 0 l 1,35,-1
 21 0 l 1,21,-1
310 0 m 1,36,-1
 310 21 l 1,37,38
 334 21 334 21 348 24 c 1,39,-1
 181 254 l 1,40,-1
 358 413 l 1,41,42
 343 419 343 419 309 419 c 1,43,-1
 309 440 l 1,44,-1
 466 440 l 1,45,-1
 466 419 l 1,46,47
 429 419 429 419 412 406 c 1,48,-1
 270 279 l 1,49,-1
 442 40 l 2,50,51
 456 21 456 21 505 21 c 1,52,-1
 505 0 l 1,53,-1
 310 0 l 1,36,-1
EndSplineSet
EndChar

StartChar: Lacute
Encoding: 313 313 250
Width: 495
GlyphClass: 2
Flags: W
LayerCount: 2
Fore
SplineSet
212 782 m 1,0,-1
 318 782 l 1,1,-1
 164 620 l 1,2,-1
 138 620 l 1,3,-1
 212 782 l 1,0,-1
42 0 m 1,4,-1
 42 21 l 1,5,6
 96 21 96 21 105 41 c 1,7,-1
 105 544 l 1,8,9
 96 564 96 564 42 564 c 1,10,-1
 42 585 l 1,11,-1
 260 585 l 1,12,-1
 260 564 l 1,13,14
 206 564 206 564 197 544 c 1,15,-1
 197 34 l 1,16,-1
 425 34 l 1,17,18
 450 45 450 45 470 97 c 1,19,-1
 490 97 l 1,20,-1
 466 0 l 1,21,-1
 42 0 l 1,4,-1
EndSplineSet
EndChar

StartChar: lacute
Encoding: 314 314 251
Width: 258
GlyphClass: 2
Flags: W
LayerCount: 2
Fore
SplineSet
192 817 m 1,0,-1
 298 817 l 1,1,-1
 144 655 l 1,2,-1
 118 655 l 1,3,-1
 192 817 l 1,0,-1
21 0 m 1,4,-1
 21 21 l 1,5,6
 75 21 75 21 84 41 c 1,7,-1
 84 559 l 1,8,9
 22 564 22 564 21 564 c 1,10,-1
 21 587 l 1,11,12
 40 587 40 587 95.5 608.5 c 128,-1,13
 151 630 151 630 174 630 c 1,14,-1
 174 41 l 1,15,16
 183 21 183 21 237 21 c 1,17,-1
 237 0 l 1,18,-1
 21 0 l 1,4,-1
EndSplineSet
EndChar

StartChar: Lcommaaccent
Encoding: 315 315 252
Width: 493
GlyphClass: 2
Flags: W
LayerCount: 2
Fore
SplineSet
269 -125 m 0,0,1
 218 -125 218 -125 218 -81 c 0,2,3
 218 -63 218 -63 228.5 -52.5 c 128,-1,4
 239 -42 239 -42 248 -40 c 128,-1,5
 257 -38 257 -38 264 -38 c 0,6,7
 302 -38 302 -38 329 -61.5 c 128,-1,8
 356 -85 356 -85 356 -125 c 0,9,10
 356 -209 356 -209 232 -248 c 1,11,-1
 232 -220 l 1,12,13
 257 -217 257 -217 283.5 -192.5 c 128,-1,14
 310 -168 310 -168 310 -137 c 0,15,16
 310 -119 310 -119 308 -115.5 c 128,-1,17
 306 -112 306 -112 300 -112 c 0,18,19
 297 -112 297 -112 288.5 -118.5 c 128,-1,20
 280 -125 280 -125 269 -125 c 0,0,1
41 0 m 1,21,-1
 41 21 l 1,22,23
 95 21 95 21 104 41 c 1,24,-1
 104 544 l 1,25,26
 95 564 95 564 41 564 c 1,27,-1
 41 585 l 1,28,-1
 259 585 l 1,29,-1
 259 564 l 1,30,31
 205 564 205 564 196 544 c 1,32,-1
 196 34 l 1,33,-1
 424 34 l 1,34,35
 449 45 449 45 469 97 c 1,36,-1
 489 97 l 1,37,-1
 465 0 l 1,38,-1
 41 0 l 1,21,-1
EndSplineSet
EndChar

StartChar: lcommaaccent
Encoding: 316 316 253
Width: 258
GlyphClass: 2
Flags: W
LayerCount: 2
Fore
SplineSet
134 -125 m 0,0,1
 83 -125 83 -125 83 -81 c 0,2,3
 83 -63 83 -63 93.5 -52.5 c 128,-1,4
 104 -42 104 -42 113 -40 c 128,-1,5
 122 -38 122 -38 129 -38 c 0,6,7
 167 -38 167 -38 194 -61.5 c 128,-1,8
 221 -85 221 -85 221 -125 c 0,9,10
 221 -209 221 -209 97 -248 c 1,11,-1
 97 -220 l 1,12,13
 122 -217 122 -217 148.5 -192.5 c 128,-1,14
 175 -168 175 -168 175 -137 c 0,15,16
 175 -119 175 -119 173.5 -115.5 c 128,-1,17
 172 -112 172 -112 165 -112 c 0,18,19
 162 -112 162 -112 153.5 -118.5 c 128,-1,20
 145 -125 145 -125 134 -125 c 0,0,1
21 0 m 1,21,-1
 21 21 l 1,22,23
 75 21 75 21 84 41 c 1,24,-1
 84 559 l 1,25,26
 22 564 22 564 21 564 c 1,27,-1
 21 587 l 1,28,29
 40 587 40 587 95.5 608.5 c 128,-1,30
 151 630 151 630 174 630 c 1,31,-1
 174 41 l 1,32,33
 183 21 183 21 237 21 c 1,34,-1
 237 0 l 1,35,-1
 21 0 l 1,21,-1
EndSplineSet
EndChar

StartChar: Lcaron
Encoding: 317 317 254
Width: 498
GlyphClass: 2
Flags: W
LayerCount: 2
Fore
SplineSet
347 508 m 0,0,1
 296 508 296 508 296 552 c 0,2,3
 296 570 296 570 306.5 580.5 c 128,-1,4
 317 591 317 591 326 593 c 128,-1,5
 335 595 335 595 342 595 c 0,6,7
 380 595 380 595 407 571.5 c 128,-1,8
 434 548 434 548 434 508 c 0,9,10
 434 424 434 424 310 385 c 1,11,-1
 310 413 l 1,12,13
 335 416 335 416 361.5 440.5 c 128,-1,14
 388 465 388 465 388 496 c 0,15,16
 388 514 388 514 386 517.5 c 128,-1,17
 384 521 384 521 378 521 c 0,18,19
 375 521 375 521 366.5 514.5 c 128,-1,20
 358 508 358 508 347 508 c 0,0,1
42 0 m 1,21,-1
 42 21 l 1,22,23
 96 21 96 21 105 41 c 1,24,-1
 105 544 l 1,25,26
 96 564 96 564 42 564 c 1,27,-1
 42 585 l 1,28,-1
 260 585 l 1,29,-1
 260 564 l 1,30,31
 206 564 206 564 197 544 c 1,32,-1
 197 34 l 1,33,-1
 425 34 l 1,34,35
 450 45 450 45 470 97 c 1,36,-1
 490 97 l 1,37,-1
 466 0 l 1,38,-1
 42 0 l 1,21,-1
EndSplineSet
EndChar

StartChar: lcaron
Encoding: 318 318 255
Width: 287
GlyphClass: 2
Flags: W
LayerCount: 2
Fore
SplineSet
270 543 m 0,0,1
 219 543 219 543 219 587 c 0,2,3
 219 605 219 605 229.5 615.5 c 128,-1,4
 240 626 240 626 249 628 c 128,-1,5
 258 630 258 630 265 630 c 0,6,7
 303 630 303 630 330 606.5 c 128,-1,8
 357 583 357 583 357 543 c 0,9,10
 357 459 357 459 233 420 c 1,11,-1
 233 448 l 1,12,13
 258 451 258 451 284.5 475.5 c 128,-1,14
 311 500 311 500 311 531 c 0,15,16
 311 549 311 549 309.5 552.5 c 128,-1,17
 308 556 308 556 301 556 c 0,18,19
 298 556 298 556 289.5 549.5 c 128,-1,20
 281 543 281 543 270 543 c 0,0,1
21 0 m 1,21,-1
 21 21 l 1,22,23
 75 21 75 21 84 41 c 1,24,-1
 84 559 l 1,25,26
 22 564 22 564 21 564 c 1,27,-1
 21 587 l 1,28,29
 40 587 40 587 95.5 608.5 c 128,-1,30
 151 630 151 630 174 630 c 1,31,-1
 174 41 l 1,32,33
 183 21 183 21 237 21 c 1,34,-1
 237 0 l 1,35,-1
 21 0 l 1,21,-1
EndSplineSet
EndChar

StartChar: Ldot
Encoding: 319 319 256
Width: 496
GlyphClass: 2
Flags: W
LayerCount: 2
Fore
SplineSet
305 308 m 128,-1,1
 305 329 305 329 320 344 c 128,-1,2
 335 359 335 359 356 359 c 128,-1,3
 377 359 377 359 392 344 c 128,-1,4
 407 329 407 329 407 308 c 128,-1,5
 407 287 407 287 392 272 c 128,-1,6
 377 257 377 257 356 257 c 128,-1,7
 335 257 335 257 320 272 c 128,-1,0
 305 287 305 287 305 308 c 128,-1,1
42 0 m 1,8,-1
 42 21 l 1,9,10
 96 21 96 21 105 41 c 1,11,-1
 105 544 l 1,12,13
 96 564 96 564 42 564 c 1,14,-1
 42 585 l 1,15,-1
 260 585 l 1,16,-1
 260 564 l 1,17,18
 206 564 206 564 197 544 c 1,19,-1
 197 34 l 1,20,-1
 425 34 l 1,21,22
 450 45 450 45 470 97 c 1,23,-1
 490 97 l 1,24,-1
 466 0 l 1,25,-1
 42 0 l 1,8,-1
EndSplineSet
EndChar

StartChar: ldot
Encoding: 320 320 257
Width: 284
GlyphClass: 2
Flags: W
LayerCount: 2
Fore
SplineSet
221 308 m 128,-1,1
 221 329 221 329 236 344 c 128,-1,2
 251 359 251 359 272 359 c 128,-1,3
 293 359 293 359 308 344 c 128,-1,4
 323 329 323 329 323 308 c 128,-1,5
 323 287 323 287 308 272 c 128,-1,6
 293 257 293 257 272 257 c 128,-1,7
 251 257 251 257 236 272 c 128,-1,0
 221 287 221 287 221 308 c 128,-1,1
21 0 m 1,8,-1
 21 21 l 1,9,10
 75 21 75 21 84 41 c 1,11,-1
 84 559 l 1,12,13
 22 564 22 564 21 564 c 1,14,-1
 21 587 l 1,15,16
 40 587 40 587 95.5 608.5 c 128,-1,17
 151 630 151 630 174 630 c 1,18,-1
 174 41 l 1,19,20
 183 21 183 21 237 21 c 1,21,-1
 237 0 l 1,22,-1
 21 0 l 1,8,-1
EndSplineSet
EndChar

StartChar: Lslash
Encoding: 321 321 258
Width: 495
GlyphClass: 2
Flags: W
LayerCount: 2
Fore
SplineSet
42 0 m 1,0,-1
 42 21 l 1,1,2
 96 21 96 21 105 41 c 1,3,-1
 105 280 l 1,4,-1
 61 243 l 1,5,-1
 39 269 l 1,6,-1
 105 325 l 1,7,-1
 105 544 l 1,8,9
 96 564 96 564 42 564 c 1,10,-1
 42 585 l 1,11,-1
 260 585 l 1,12,-1
 260 564 l 1,13,14
 206 564 206 564 197 544 c 1,15,-1
 197 402 l 1,16,-1
 241 439 l 1,17,-1
 263 413 l 1,18,-1
 197 357 l 1,19,-1
 197 34 l 1,20,-1
 425 34 l 1,21,22
 450 45 450 45 470 97 c 1,23,-1
 490 97 l 1,24,-1
 466 0 l 1,25,-1
 42 0 l 1,0,-1
EndSplineSet
EndChar

StartChar: lslash
Encoding: 322 322 259
Width: 259
GlyphClass: 2
Flags: W
LayerCount: 2
Fore
SplineSet
22 0 m 1,0,-1
 22 21 l 1,1,2
 76 21 76 21 85 41 c 1,3,-1
 85 281 l 1,4,-1
 40 243 l 1,5,-1
 18 269 l 1,6,-1
 85 325 l 1,7,-1
 85 559 l 1,8,9
 85 559 85 559 22 564 c 1,10,-1
 22 587 l 1,11,12
 41 587 41 587 96.5 608.5 c 128,-1,13
 152 630 152 630 175 630 c 1,14,-1
 175 401 l 1,15,-1
 220 439 l 1,16,-1
 242 413 l 1,17,-1
 175 357 l 1,18,-1
 175 41 l 1,19,20
 184 21 184 21 238 21 c 1,21,-1
 238 0 l 1,22,-1
 22 0 l 1,0,-1
EndSplineSet
EndChar

StartChar: Nacute
Encoding: 323 323 260
Width: 638
GlyphClass: 2
Flags: W
LayerCount: 2
Fore
SplineSet
379 782 m 1,0,-1
 485 782 l 1,1,-1
 331 620 l 1,2,-1
 305 620 l 1,3,-1
 379 782 l 1,0,-1
42 0 m 1,4,-1
 42 21 l 1,5,6
 96 21 96 21 105 41 c 1,7,-1
 105 544 l 1,8,9
 96 564 96 564 42 564 c 1,10,-1
 42 585 l 1,11,-1
 176 585 l 1,12,-1
 507 176 l 1,13,-1
 507 544 l 1,14,15
 498 564 498 564 444 564 c 1,16,-1
 444 585 l 1,17,-1
 604 585 l 1,18,-1
 604 564 l 1,19,20
 550 564 550 564 541 544 c 1,21,-1
 541 0 l 1,22,-1
 532 0 l 1,23,-1
 139 497 l 1,24,-1
 139 41 l 1,25,26
 148 21 148 21 202 21 c 1,27,-1
 202 0 l 1,28,-1
 42 0 l 1,4,-1
EndSplineSet
EndChar

StartChar: nacute
Encoding: 324 324 261
Width: 559
GlyphClass: 2
Flags: W
LayerCount: 2
Fore
SplineSet
349 678 m 1,0,-1
 455 678 l 1,1,-1
 301 516 l 1,2,-1
 275 516 l 1,3,-1
 349 678 l 1,0,-1
31 0 m 1,4,-1
 31 21 l 1,5,6
 85 21 85 21 94 41 c 1,7,-1
 94 379 l 1,8,9
 32 384 32 384 31 384 c 1,10,-1
 31 407 l 1,11,12
 50 407 50 407 105.5 428.5 c 128,-1,13
 161 450 161 450 184 450 c 1,14,-1
 184 404 l 1,15,16
 238 450 238 450 303 450 c 0,17,18
 396 450 396 450 437.5 415.5 c 128,-1,19
 479 381 479 381 479 308 c 2,20,-1
 479 41 l 1,21,22
 488 21 488 21 542 21 c 1,23,-1
 542 0 l 1,24,-1
 326 0 l 1,25,-1
 326 21 l 1,26,27
 380 21 380 21 389 41 c 1,28,-1
 389 315 l 2,29,30
 389 416 389 416 297 416 c 0,31,32
 234 416 234 416 184 372 c 1,33,-1
 184 41 l 1,34,35
 193 21 193 21 247 21 c 1,36,-1
 247 0 l 1,37,-1
 31 0 l 1,4,-1
EndSplineSet
EndChar

StartChar: Ncommaaccent
Encoding: 325 325 262
Width: 637
GlyphClass: 2
Flags: W
LayerCount: 2
Fore
SplineSet
321 -125 m 0,0,1
 270 -125 270 -125 270 -81 c 0,2,3
 270 -63 270 -63 280.5 -52.5 c 128,-1,4
 291 -42 291 -42 300 -40 c 128,-1,5
 309 -38 309 -38 316 -38 c 0,6,7
 354 -38 354 -38 381 -61.5 c 128,-1,8
 408 -85 408 -85 408 -125 c 0,9,10
 408 -209 408 -209 284 -248 c 1,11,-1
 284 -220 l 1,12,13
 309 -217 309 -217 335.5 -192.5 c 128,-1,14
 362 -168 362 -168 362 -137 c 0,15,16
 362 -119 362 -119 360 -115.5 c 128,-1,17
 358 -112 358 -112 352 -112 c 0,18,19
 349 -112 349 -112 340.5 -118.5 c 128,-1,20
 332 -125 332 -125 321 -125 c 0,0,1
41 0 m 1,21,-1
 41 21 l 1,22,23
 95 21 95 21 104 41 c 1,24,-1
 104 544 l 1,25,26
 95 564 95 564 41 564 c 1,27,-1
 41 585 l 1,28,-1
 175 585 l 1,29,-1
 506 176 l 1,30,-1
 506 544 l 1,31,32
 497 564 497 564 443 564 c 1,33,-1
 443 585 l 1,34,-1
 603 585 l 1,35,-1
 603 564 l 1,36,37
 549 564 549 564 540 544 c 1,38,-1
 540 0 l 1,39,-1
 531 0 l 1,40,-1
 138 497 l 1,41,-1
 138 41 l 1,42,43
 147 21 147 21 201 21 c 1,44,-1
 201 0 l 1,45,-1
 41 0 l 1,21,-1
EndSplineSet
EndChar

StartChar: ncommaaccent
Encoding: 326 326 263
Width: 559
GlyphClass: 2
Flags: W
LayerCount: 2
Fore
SplineSet
288 -125 m 0,0,1
 237 -125 237 -125 237 -81 c 0,2,3
 237 -63 237 -63 247.5 -52.5 c 128,-1,4
 258 -42 258 -42 267 -40 c 128,-1,5
 276 -38 276 -38 283 -38 c 0,6,7
 321 -38 321 -38 348 -61.5 c 128,-1,8
 375 -85 375 -85 375 -125 c 0,9,10
 375 -209 375 -209 251 -248 c 1,11,-1
 251 -220 l 1,12,13
 276 -217 276 -217 302.5 -192.5 c 128,-1,14
 329 -168 329 -168 329 -137 c 0,15,16
 329 -119 329 -119 327.5 -115.5 c 128,-1,17
 326 -112 326 -112 319 -112 c 0,18,19
 316 -112 316 -112 307.5 -118.5 c 128,-1,20
 299 -125 299 -125 288 -125 c 0,0,1
31 0 m 1,21,-1
 31 21 l 1,22,23
 85 21 85 21 94 41 c 1,24,-1
 94 379 l 1,25,26
 32 384 32 384 31 384 c 1,27,-1
 31 407 l 1,28,29
 50 407 50 407 105.5 428.5 c 128,-1,30
 161 450 161 450 184 450 c 1,31,-1
 184 404 l 1,32,33
 238 450 238 450 303 450 c 0,34,35
 396 450 396 450 437.5 415.5 c 128,-1,36
 479 381 479 381 479 308 c 2,37,-1
 479 41 l 1,38,39
 488 21 488 21 542 21 c 1,40,-1
 542 0 l 1,41,-1
 326 0 l 1,42,-1
 326 21 l 1,43,44
 380 21 380 21 389 41 c 1,45,-1
 389 315 l 2,46,47
 389 416 389 416 297 416 c 0,48,49
 234 416 234 416 184 372 c 1,50,-1
 184 41 l 1,51,52
 193 21 193 21 247 21 c 1,53,-1
 247 0 l 1,54,-1
 31 0 l 1,21,-1
EndSplineSet
EndChar

StartChar: Ncaron
Encoding: 327 327 264
Width: 638
GlyphClass: 2
Flags: W
LayerCount: 2
Fore
SplineSet
294 620 m 1,0,-1
 200 782 l 1,1,-1
 226 782 l 1,2,-1
 319 695 l 1,3,-1
 412 782 l 1,4,-1
 438 782 l 1,5,-1
 344 620 l 1,6,-1
 294 620 l 1,0,-1
42 0 m 1,7,-1
 42 21 l 1,8,9
 96 21 96 21 105 41 c 1,10,-1
 105 544 l 1,11,12
 96 564 96 564 42 564 c 1,13,-1
 42 585 l 1,14,-1
 176 585 l 1,15,-1
 507 176 l 1,16,-1
 507 544 l 1,17,18
 498 564 498 564 444 564 c 1,19,-1
 444 585 l 1,20,-1
 604 585 l 1,21,-1
 604 564 l 1,22,23
 550 564 550 564 541 544 c 1,24,-1
 541 0 l 1,25,-1
 532 0 l 1,26,-1
 139 497 l 1,27,-1
 139 41 l 1,28,29
 148 21 148 21 202 21 c 1,30,-1
 202 0 l 1,31,-1
 42 0 l 1,7,-1
EndSplineSet
EndChar

StartChar: ncaron
Encoding: 328 328 265
Width: 559
GlyphClass: 2
Flags: W
LayerCount: 2
Fore
SplineSet
264 516 m 1,0,-1
 170 678 l 1,1,-1
 196 678 l 1,2,-1
 289 591 l 1,3,-1
 382 678 l 1,4,-1
 408 678 l 1,5,-1
 314 516 l 1,6,-1
 264 516 l 1,0,-1
31 0 m 1,7,-1
 31 21 l 1,8,9
 85 21 85 21 94 41 c 1,10,-1
 94 379 l 1,11,12
 32 384 32 384 31 384 c 1,13,-1
 31 407 l 1,14,15
 50 407 50 407 105.5 428.5 c 128,-1,16
 161 450 161 450 184 450 c 1,17,-1
 184 404 l 1,18,19
 238 450 238 450 303 450 c 0,20,21
 396 450 396 450 437.5 415.5 c 128,-1,22
 479 381 479 381 479 308 c 2,23,-1
 479 41 l 1,24,25
 488 21 488 21 542 21 c 1,26,-1
 542 0 l 1,27,-1
 326 0 l 1,28,-1
 326 21 l 1,29,30
 380 21 380 21 389 41 c 1,31,-1
 389 315 l 2,32,33
 389 416 389 416 297 416 c 0,34,35
 234 416 234 416 184 372 c 1,36,-1
 184 41 l 1,37,38
 193 21 193 21 247 21 c 1,39,-1
 247 0 l 1,40,-1
 31 0 l 1,7,-1
EndSplineSet
EndChar

StartChar: napostrophe
Encoding: 329 329 266
Width: 559
GlyphClass: 2
Flags: W
LayerCount: 2
Fore
SplineSet
31 0 m 1,0,-1
 31 21 l 1,1,2
 85 21 85 21 94 41 c 1,3,-1
 94 379 l 1,4,5
 32 384 32 384 31 384 c 1,6,-1
 31 407 l 1,7,8
 50 407 50 407 105.5 428.5 c 128,-1,9
 161 450 161 450 184 450 c 1,10,-1
 184 404 l 1,11,12
 238 450 238 450 303 450 c 0,13,14
 396 450 396 450 437.5 415.5 c 128,-1,15
 479 381 479 381 479 308 c 2,16,-1
 479 41 l 1,17,18
 488 21 488 21 542 21 c 1,19,-1
 542 0 l 1,20,-1
 326 0 l 1,21,-1
 326 21 l 1,22,23
 380 21 380 21 389 41 c 1,24,-1
 389 315 l 2,25,26
 389 416 389 416 297 416 c 0,27,28
 234 416 234 416 184 372 c 1,29,-1
 184 41 l 1,30,31
 193 21 193 21 247 21 c 1,32,-1
 247 0 l 1,33,-1
 31 0 l 1,0,-1
27 578 m 0,34,35
 -24 578 -24 578 -24 622 c 0,36,37
 -24 640 -24 640 -13.5 650.5 c 128,-1,38
 -3 661 -3 661 6 663 c 128,-1,39
 15 665 15 665 22 665 c 0,40,41
 60 665 60 665 87 641.5 c 128,-1,42
 114 618 114 618 114 578 c 0,43,44
 114 494 114 494 -10 455 c 1,45,-1
 -10 483 l 1,46,47
 15 486 15 486 41.5 510.5 c 128,-1,48
 68 535 68 535 68 566 c 0,49,50
 68 584 68 584 66 587.5 c 128,-1,51
 64 591 64 591 58 591 c 0,52,53
 55 591 55 591 46.5 584.5 c 128,-1,54
 38 578 38 578 27 578 c 0,34,35
EndSplineSet
EndChar

